<?xml version="1.0" standalone="no"?><!DOCTYPE svg PUBLIC "-//W3C//DTD SVG 1.1//EN" "http://www.w3.org/Graphics/SVG/1.1/DTD/svg11.dtd"><svg width="100%" height="100%" viewBox="0 0 219 156" version="1.1" xmlns="http://www.w3.org/2000/svg" xmlns:xlink="http://www.w3.org/1999/xlink" xml:space="preserve" style="fill-rule:evenodd;clip-rule:evenodd;stroke-linejoin:round;stroke-miterlimit:1.41421;"><g><path d="M143.379,35.977l-0.126,-23.994l-12.871,0.072l0.064,12.006l-16.065,-14.796l-6.147,6.993l22.284,22.095l0,0.495l0.495,-0.009l7.056,7.002l0,-0.072l5.823,5.031l7.092,-7.812l-7.605,-7.011l0,0ZM112.68,78.268l-11.403,-8.964c0,0 3.897,-3.717 7.389,-7.479c3.474,-3.753 4.5,-2.943 4.887,-2.493c0.396,0.441 1.638,1.602 3.438,3.285c1.791,1.701 2.259,-0.18 4.23,-2.457c1.971,-2.277 3.294,-0.864 3.294,-0.864c0,0 1.413,1.26 2.736,2.673c1.314,1.413 2.456,1.656 4.68,-1.773c2.214,-3.42 3.888,-1.152 4.437,-0.612c0.243,0.234 0.918,0.855 1.782,1.557l-0.045,-9.369l0,0.072l-32.67,-32.4l-25.497,29.061l-1.341,-1.17l25.578,-29.142l-0.045,-0.045l1.944,-2.133l6.993,-7.956l-8.046,-7.416l-37.134,44.433l7.731,6.093l0.243,45.369l62.478,-0.333l-0.099,-18.189l-25.56,0.252l0,0Z" style="fill:#78c255;fill-rule:nonzero;"/><path d="M151.848,58.234c0,0 -2.169,-1.539 -5.022,1.503c-2.862,3.042 -3.231,4.77 -5.391,3.708c-0.369,-0.171 -0.747,-0.396 -1.125,-0.639l0.153,15.309l11.943,-0.126c0,0 -2.61,-5.022 -2.646,-11.169c-0.027,-5.283 2.088,-8.586 2.088,-8.586l0,0ZM186.66,71.329c-1.782,2.961 -5.634,3.915 -8.604,2.142c-2.961,-1.782 -3.924,-5.625 -2.142,-8.595c1.782,-2.961 5.634,-3.915 8.604,-2.133c2.961,1.773 3.924,5.625 2.142,8.586l0,0ZM185.643,47.92c-10.683,-6.408 -24.543,-2.952 -30.96,7.722c-6.417,10.683 -2.952,24.534 7.722,30.942c10.683,6.399 24.552,2.952 30.969,-7.722c6.408,-10.674 2.952,-24.534 -7.731,-30.942l0,0Z" style="fill:#78c255;fill-rule:nonzero;"/><path d="M59.256,46.975l11.727,-14.121l-5.049,-4.572l-22.383,25.506l-1.341,-1.179l22.401,-25.524l-5.283,-4.788l-28.953,33.993l7.272,5.328l0.198,35.361l32.058,-0.18l-0.225,-41.67l-10.422,-8.154l0,0Z" style="fill:#7d7e82;fill-rule:nonzero;"/><path d="M103.761,65.74c-9.468,-0.009 -18.612,-0.054 -27.342,-0.126l-0.081,-14.913l-7.407,-5.85l36.153,-43.263l6.966,6.408l-6.516,7.434l-2.403,2.619l0.054,0.054l-25.614,29.187l2.43,2.124l25.47,-29.016l31.905,31.644l0.045,7.407c-0.261,-0.225 -0.45,-0.405 -0.549,-0.504c-0.261,-0.216 -1.071,-1.404 -2.529,-1.44c-1.035,0.009 -2.061,0.693 -3.024,2.187c-1.192,1.878 -2.032,2.416 -2.374,2.416c-0.018,0 -0.033,-0.001 -0.048,-0.004c-0.008,0.001 -0.018,0.002 -0.028,0.002c-0.227,0 -0.595,-0.205 -1.087,-0.74c-1.35,-1.449 -2.781,-2.709 -2.781,-2.718c-0.018,-0.018 -0.567,-0.612 -1.593,-0.621c-0.819,0 -1.782,0.432 -2.736,1.548c-0.756,0.873 -1.287,1.674 -1.719,2.205c-0.397,0.513 -0.657,0.661 -0.731,0.661c-0.007,0 -0.012,-0.001 -0.016,-0.004c-0.003,0.001 -0.006,0.001 -0.01,0.001c-0.063,0 -0.302,-0.077 -0.701,-0.46c-1.8,-1.683 -3.069,-2.871 -3.393,-3.24c-0.176,-0.22 -0.655,-0.639 -1.335,-0.639c-0.014,0 -0.028,0 -0.042,0c-1.125,0.036 -2.394,0.774 -4.599,3.123c-1.485,1.611 -3.06,3.213 -4.365,4.518l0,0Z" style="fill:url(#_Linear1);"/><path d="M141.066,65.533l-0.018,-1.575l0.072,0.036c0.486,0.234 0.954,0.378 1.431,0.378c0.99,0 1.674,-0.621 2.313,-1.341c0.648,-0.738 1.377,-1.719 2.493,-2.907c1.323,-1.404 2.34,-1.656 3.033,-1.665c0.153,0 0.297,0.018 0.432,0.045c-0.576,1.161 -1.548,3.591 -1.746,6.93c-2.691,0.036 -5.364,0.063 -8.01,0.099l0,0ZM152.262,65.389c0.261,-3.258 1.251,-6.498 3.042,-9.477c4.095,-6.822 11.322,-10.593 18.747,-10.593c3.825,0 7.695,0.999 11.223,3.114c5.967,3.582 9.603,9.567 10.422,15.975c-2.772,0.09 -5.526,0.171 -8.271,0.243c-0.576,-1.062 -1.431,-1.98 -2.538,-2.646c-1.125,-0.675 -2.367,-0.999 -3.6,-0.999c-2.367,0 -4.689,1.206 -5.994,3.393c-0.117,0.18 -0.198,0.369 -0.288,0.558c-7.686,0.18 -15.273,0.315 -22.743,0.432l0,0Z" style="fill:url(#_Linear2);"/><path d="M143.829,49.675l-5.85,-5.058l-6.669,-6.615l-0.063,0l0,-0.063l-22.014,-21.825l5.202,-5.922l16.74,15.426l-0.063,-12.951l11.412,-0.063l0.126,23.589l7.308,6.723l-6.129,6.759l0,0Z" style="fill:url(#_Linear3);"/><path d="M69.003,65.542c-10.953,-0.108 -21.195,-0.27 -30.609,-0.459l-0.018,-3.951l-6.939,-5.085l27.954,-32.814l4.203,3.798l-22.41,25.533l2.43,2.142l22.383,-25.497l3.978,3.6l-11.754,14.166l0.585,0.459l10.143,7.947l0.054,10.161Z" style="fill:url(#_Linear4);"/></g><defs><linearGradient id="_Linear1" x1="0" y1="0" x2="1" y2="0" gradientUnits="userSpaceOnUse" gradientTransform="matrix(-2.80415e-06,-64.1514,64.1514,-2.80415e-06,113.563,65.7358)"><stop offset="0%" style="stop-color:#8ac97a;stop-opacity:1"/><stop offset="100%" style="stop-color:#b2dbb2;stop-opacity:1"/></linearGradient><linearGradient id="_Linear2" x1="0" y1="0" x2="1" y2="0" gradientUnits="userSpaceOnUse" gradientTransform="matrix(-2.80415e-06,-64.1514,64.1514,-2.80415e-06,113.563,65.7358)"><stop offset="0%" style="stop-color:#8ac97a;stop-opacity:1"/><stop offset="100%" style="stop-color:#b2dbb2;stop-opacity:1"/></linearGradient><linearGradient id="_Linear3" x1="0" y1="0" x2="1" y2="0" gradientUnits="userSpaceOnUse" gradientTransform="matrix(-2.80415e-06,-64.1514,64.1514,-2.80415e-06,113.563,65.7358)"><stop offset="0%" style="stop-color:#8ac97a;stop-opacity:1"/><stop offset="100%" style="stop-color:#b2dbb2;stop-opacity:1"/></linearGradient><linearGradient id="_Linear4" x1="0" y1="0" x2="1" y2="0" gradientUnits="userSpaceOnUse" gradientTransform="matrix(-2.80415e-06,-64.1514,64.1514,-2.80415e-06,113.563,65.7358)"><stop offset="0%" style="stop-color:#8b8b93;stop-opacity:1"/><stop offset="100%" style="stop-color:#b3bac1;stop-opacity:1"/></linearGradient></defs></svg>