<svg xmlns="http://www.w3.org/2000/svg" xmlns:xlink="http://www.w3.org/1999/xlink" width="0" height="0" style="position:absolute">

<symbol id="icon-activity" viewBox="0 0 535.806 535.807">
        <path d="M440.956 373.932c-11.934-13.158-26.315-19.584-44.676-19.584h-38.686l-25.398-24.48c-18.666 15.3-41.31 24.175-65.79 24.175-22.95 0-44.677-7.956-62.425-21.726l-22.644 21.726h-40.262c-20.502 0-36.414 7.038-48.96 21.42-36.414 42.228-30.294 132.5-27.54 160.345h407.592c2.144-28.154 5.816-120.566-31.21-161.876z"/><path d="M160.343 182.376c-7.344 6.12-12.24 15.912-12.24 27.234 0 16.83 11.016 30.6 25.092 33.048 3.06 25.398 13.464 47.736 29.07 64.26 3.365 3.366 6.73 6.732 10.403 9.486 4.59 3.672 9.486 6.732 14.688 9.486 11.628 6.12 24.48 9.485 38.25 9.485s26.623-3.366 38.25-9.485c5.202-2.754 10.098-5.814 14.688-9.486 3.673-2.754 7.038-6.12 10.404-9.486 15.3-16.523 26.01-38.556 28.764-63.954h.918c16.22 0 29.07-14.994 29.07-33.354 0-11.322-4.896-21.114-12.24-27.234H160.343zM377.41 118.116c-9.487-31.518-34.58-63.648-66.403-80.172v82.926c-.306 3.366-.918 6.426-2.447 9.486-3.98 7.65-11.935 13.158-21.114 13.158H248.89c-8.568 0-16.22-4.59-20.196-11.322-1.836-2.754-2.754-5.813-3.366-9.18-.306-1.224-.306-2.142-.306-3.366V37.638c-31.824 16.83-56.916 48.96-66.402 80.478l-2.142 6.732h-17.442v38.25h257.737v-38.25h-17.22l-2.144-6.732z"/><path d="M248.777 134.028h38.25c5.508 0 10.098-3.06 12.546-7.65 1.224-2.142 1.836-4.284 1.836-6.732V18.972c0-2.448-.613-4.59-1.225-6.732C297.432 5.202 290.395 0 282.438 0h-33.66c-7.345 0-13.465 5.508-14.077 12.546 0 .612-.305 1.224-.305 1.836V119.646c0 3.06.918 5.814 2.448 8.262 2.755 3.672 7.038 6.12 11.934 6.12z"/>
</symbol>

<symbol id="icon-contact" viewBox="0 0 237.02 237.02">
        <path d="M229.52 9.834H7.5c-4.142 0-7.5 3.358-7.5 7.5v153.85c0 4.142 3.358 7.5 7.5 7.5h55.492c4.142 0 7.5-3.358 7.5-7.5 0-4.142-3.358-7.5-7.5-7.5H15V24.834h207.02v138.85h-89.062c-1.527 0-3.018.466-4.273 1.337L58.72 213.524c-3.405 2.36-4.25 7.032-1.892 10.437 1.456 2.1 3.793 3.228 6.17 3.228 1.475 0 2.964-.433 4.267-1.337l68.038-47.165h94.216c4.14 0 7.5-3.358 7.5-7.5V17.335c0-4.143-3.358-7.5-7.5-7.5z"/><path d="M146.265 69.45c4.142 0 7.5-3.357 7.5-7.5s-3.358-7.5-7.5-7.5H90.76c-4.143 0-7.5 3.36-7.5 7.5s3.357 7.5 7.5 7.5h55.505zM55.507 94.26c0 4.142 3.358 7.5 7.5 7.5h111.01c4.142 0 7.5-3.358 7.5-7.5 0-4.142-3.358-7.5-7.5-7.5H63.007c-4.142 0-7.5 3.357-7.5 7.5zM63.007 134.066h111.01c4.142 0 7.5-3.358 7.5-7.5 0-4.142-3.358-7.5-7.5-7.5H63.007c-4.142 0-7.5 3.358-7.5 7.5 0 4.142 3.358 7.5 7.5 7.5z"/>
</symbol>

<symbol id="icon-facebook" viewBox="0 0 800 800">
        <path d="M445 643h-90V419h-75v-87h75v-64q0-55 32-86 30-29 80-29 28 0 67 3v78h-47q-42 0-42 38v60h86l-11 87h-75v224z"/>
</symbol>

<symbol id="icon-googleplus" viewBox="0 0 800 800">
        <path d="M487 370c21 129-62 237-195 237-114 0-207-93-207-207s93-207 207-207c89 0 138 54 138 54l-56 54s-29-32-82-32c-71 0-128 59-128 131 0 73 57 131 128 131 81 0 113-58 117-90H292v-71h195zm189-59v59h59v60h-59v59h-59v-59h-59v-60h59v-59h59z"/>
</symbol>

<symbol id="icon-houzz" viewBox="307.98 143.727 175.199 306.015">
        <g><path d="M395.633 449.742l87.546-51.833V297.11l-87.547 51.833"/><path d="M395.633 247.552l87.546 49.56V195.718M395.633 257.352v81.794l70.62-41.816M307.98 299.557V400.95l87.546-51.833M395.526 143.727l-87.546 51.835v103.995l87.546-51.834"/></g>
</symbol>

<symbol id="icon-instagram" viewBox="0 0 800 800">
        <path d="M400 309c-51 0-92 41-92 90s41 90 92 90 93-41 93-90-42-90-93-90zm178 56h-40c27 97-50 178-138 178s-164-82-137-178h-42v194c0 10 8 18 18 18h321c10 0 18-8 18-18V365zm-73-144c-11 0-21 10-21 21v49c0 11 10 21 21 21h52c11 0 21-10 21-21v-49c0-11-10-21-21-21h-52zm-276-51h342c32 0 59 27 59 59v342c0 32-27 59-59 59H229c-32 0-59-27-59-59V229c0-32 27-59 59-59z"/>
</symbol>

<symbol id="icon-land" viewBox="0 0 475.902 475.902">
        <g><path d="M13.734 51.167l.016.016c.26.61.545.878.545.878l.18-.186 121.846 116.54V475.9h327.664V18.67H136.32v53.404L61.856.86l-.366.382C59.017.34 45.093-4.806 25.706 15.467s-12.98 33.27-11.973 35.7zM353.354 336.7h69.987v98.56h-69.986V336.7zm0-184.925h69.984V328.57h-69.986V151.776zm0-92.463h11.177v84.334h-11.176V59.312zm37.53 0h11.176v84.334h-11.177V59.312zm32.457 84.334h-13.15V59.312h13.15v84.334zm-40.585 0H372.66V59.312h10.095v84.334zm-37.53 0h-10.16V59.312h10.16v84.334zM315.76 59.312h11.176v84.334H315.76V59.312zm-138.796 0H307.63v84.334h-42.674v8.13h80.27V435.26h-53.85v-18.85h-16.258v18.85h-98.153V283.863h12.803v-16.257h-12.803v-60.322l7.34 7.023c1.796-8.99 8.348-20.053 16.64-29.515 10.005-11.437 21.572-19.622 30.375-21.858l-54.357-51.99V59.312z"/><path d="M204.455 187.19c-11.453 13.316-15.818 24.77-16.038 30.54-.065 1.756 3.877 3.983 4.576 3.983h.04l9.308 1.114 6.935.83 31.653 3.795c0-.016-.016-.033-.016-.057-.187-2.365.894-5.12 2.967-7.56 1.007-1.18 3.65-3.796 6.94-4.032l-9.03-30.807-1.95-6.657-2.43-8.308c.145-1.83-1.952-4.178-2.537-4.178-5.862.008-18.51 7.486-30.418 21.337zm26.125-11.558l1.463 5 1.95 6.656 7.065 24.093c-1.56 1.196-2.707 2.415-3.365 3.196-1.08 1.268-1.992 2.61-2.73 3.975l-24.72-2.958-6.934-.83-5.92-.706c1.627-4.99 5.69-12.794 13.226-21.557 7.99-9.308 15.38-14.486 19.964-16.868zM246.227 227.582c.04.057.04.146.09.195l7.33 6.137c.472.39 2.204.95 3.854.95 1.106 0 2.17-.25 2.79-.966 1.543-1.78-.26-5.788-1.05-6.446l-7.332-6.137c-.17-.146-.398-.21-.667-.21-.048 0-.105.023-.153.032-.935.08-2.26.902-3.398 2.22-1.446 1.664-2.024 3.453-1.463 4.225zM275.116 293.57h16.257v-25.963h-27.54v16.257h11.283M215.062 267.607h23.475v16.257h-23.475zM275.116 318.866h16.257v23.475h-16.257zM275.116 367.637h16.257v23.475h-16.257z"/></g>
</symbol>

<symbol id="icon-land-2" viewBox="0 0 79.536 79.536">
        <path d="M65.482 70.56l3.148 3.666-58.36.016.714-4.51 6.41-3.562-.996-7.55 8.505-.74.44-3.93 9.88-.85.567-7.063 1.696-2.258 3.95.85.456 3.758 6.32-.398.398 7.11 7.11 2.77.398 5.53c.61.85 3.712-.513 4.256.28.55.797-.497-.777 0 0-.7 3.277 4.147 3.836 4.147 3.836l.962 3.044zm-7.725-23.72l-2.978-1.01c-1.01.78-1.394 1.594-1.1 2.442l1.487 1.72 2.253-.75c.812-.275 1.092-.782.844-1.508-.072-.254-.238-.56-.507-.895zm-1.895-7.92c-.658-.315-1.336-.37-2.072-.126-.393.127-.792.388-1.242.774l.114 3.526 3.423-.425c.896-1.023 1.237-1.85 1.03-2.486-.186-.51-.59-.934-1.253-1.263zm10.48 4.9l.022.072c-.124.04-.746-.104-1.864-.456-.54-.18-1.082-.383-1.626-.596-.776.26-1.253 1.03-1.44 2.305-.186 1.28-.06 2.562.363 3.842.108.353.383.725.808 1.16l.726.684 1.264-.066c1.42-.616 2.227-.958 2.444-1.03.508-.306.86-.953 1.03-1.916.177-.974.11-1.896-.196-2.79-.34-1.027-.836-1.436-1.53-1.21zm-5.51 10.506l-.74 2.677c.555.482 1.342.818 2.397.974l2.495-.84-1.264-3.778-2.887.966zM73.54 49.49l-.746 2.682c.55.48 1.336.813 2.403.98l2.495-.835-1.27-3.785-2.882.957zm1.838 20.127l-.74 2.677c.55.482 1.34.813 2.393.98l2.507-.834-1.264-3.785-2.895.962zm-.704-11.9c-1.444-1.61-3.236-2.06-5.37-1.345l-.32.104c-1.005.89-1.844 2.195-2.537 3.883-.684 1.604-.875 2.873-.57 3.8.03.072.694.674 1.973 1.823 1.373 1.123 2.13 1.874 2.295 2.247l4.044-1.352c.465-.155.92-.373 1.35-.657.44-.28.798-.61 1.104-.963.295-.352.513-.714.652-1.076.13-.356.15-.693.036-1.02-.882-2.63-1.768-4.437-2.658-5.442zM33.378 40.535c-.678 4.042-2.752 7.77-2.752 7.77s-4.26.326-8.217-.75c-3.952-1.072-10.03-11.092-10.03-11.092l6.238-3.998-7.503-12.422-5.844-1.28-2.603-4.066-1.134.728L0 13.03l12.073-7.735 1.532 2.387-1.134.725 2.616 4.073-1.295 5.905 7.483 12.384 6.21-3.99c0-.002 6.57 9.713 5.895 13.754zM6.532 16.956l5.24 1.15 1.145-5.233-2.154-3.37-6.382 4.094 2.152 3.36z"/>
</symbol>

<symbol id="icon-logo" viewBox="0 0 219 156">
        <path d="M143.38 35.977l-.127-23.994-12.87.072.063 12.006L114.38 9.266l-6.146 6.993 22.284 22.095v.495l.495-.01 7.056 7.003v-.07l5.822 5.03 7.092-7.812-7.605-7.01zm-30.7 42.29l-11.403-8.963s3.897-3.717 7.39-7.48c3.473-3.752 4.5-2.942 4.886-2.492.396.44 1.638 1.602 3.438 3.285 1.792 1.7 2.26-.18 4.23-2.457 1.972-2.277 3.295-.864 3.295-.864s1.413 1.26 2.736 2.673c1.315 1.412 2.457 1.655 4.68-1.774 2.215-3.42 3.89-1.152 4.438-.612.243.234.918.855 1.782 1.557l-.045-9.368v.072l-32.67-32.4-25.497 29.06-1.34-1.17 25.577-29.14-.045-.046 1.944-2.133 6.993-7.956L105.02.642 67.888 45.076l7.73 6.093.244 45.368 62.48-.333-.1-18.19-25.56.253zM151.848 58.234s-2.17-1.54-5.022 1.503c-2.862 3.042-3.23 4.77-5.39 3.708-.37-.17-.748-.396-1.126-.64l.153 15.31 11.943-.126s-2.61-5.023-2.646-11.17c-.027-5.283 2.088-8.586 2.088-8.586zM186.66 71.33c-1.782 2.96-5.634 3.914-8.604 2.14-2.96-1.78-3.924-5.624-2.142-8.594 1.782-2.96 5.634-3.915 8.604-2.133 2.96 1.773 3.924 5.625 2.142 8.586zm-1.017-23.41c-10.683-6.408-24.543-2.952-30.96 7.722-6.417 10.683-2.952 24.534 7.722 30.942 10.683 6.4 24.552 2.952 30.97-7.722 6.407-10.674 2.95-24.534-7.732-30.942z" fill-rule="nonzero"/><path d="M59.256 46.975l11.727-14.12-5.05-4.573-22.382 25.506-1.34-1.18 22.4-25.523-5.282-4.788L30.375 56.29l7.272 5.328.198 35.36 32.058-.18-.225-41.67-10.422-8.153z" fill-rule="nonzero"/><path d="M103.76 65.74c-9.467-.01-18.61-.054-27.34-.126L76.337 50.7l-7.407-5.85L105.085 1.59l6.966 6.408-6.516 7.434-2.403 2.62.055.053L77.57 47.29 80 49.414l25.47-29.016 31.906 31.644.045 7.407c-.26-.226-.45-.406-.548-.505-.26-.216-1.07-1.404-2.53-1.44-1.034.01-2.06.693-3.023 2.187-1.193 1.878-2.033 2.416-2.375 2.416-.018 0-.033 0-.048-.004l-.028.002c-.228 0-.596-.205-1.088-.74-1.35-1.45-2.78-2.71-2.78-2.718-.02-.018-.568-.612-1.594-.62-.82 0-1.782.43-2.736 1.547-.756.873-1.287 1.674-1.72 2.205-.396.513-.656.66-.73.66-.007 0-.012 0-.016-.003h-.01c-.063 0-.302-.076-.7-.46-1.8-1.682-3.07-2.87-3.394-3.24-.176-.22-.655-.638-1.335-.638h-.042c-1.125.035-2.394.773-4.6 3.122-1.484 1.61-3.06 3.213-4.364 4.518z" fill="url(#aja)"/><path d="M141.066 65.533l-.018-1.575.072.036c.486.234.954.378 1.43.378.99 0 1.675-.62 2.314-1.34.648-.74 1.377-1.72 2.493-2.908 1.323-1.404 2.34-1.656 3.033-1.665.153 0 .297.017.432.044-.576 1.16-1.548 3.59-1.746 6.93-2.69.036-5.364.063-8.01.1zm11.196-.144c.26-3.26 1.25-6.5 3.042-9.478C159.4 49.09 166.626 45.32 174.05 45.32c3.826 0 7.696.998 11.224 3.113 5.967 3.582 9.603 9.567 10.422 15.975-2.772.09-5.526.17-8.27.243-.577-1.06-1.432-1.98-2.54-2.645-1.124-.675-2.366-1-3.6-1-2.366 0-4.688 1.207-5.993 3.394-.117.18-.198.368-.288.557-7.686.18-15.273.315-22.743.432z" fill="url(#ajb)"/><path d="M143.83 49.675l-5.85-5.058-6.67-6.615h-.063v-.063l-22.014-21.826 5.202-5.922 16.74 15.426-.063-12.95 11.412-.064.126 23.59 7.308 6.722-6.13 6.76z" fill="url(#ajc)"/><path d="M69.003 65.542c-10.953-.108-21.195-.27-30.61-.46l-.017-3.95-6.94-5.085 27.955-32.814 4.204 3.798-22.41 25.534 2.43 2.142L65.997 29.21l3.978 3.6L58.22 46.974l.586.46L68.95 55.38l.053 10.162z" fill="url(#ajd)"/><path d="M6.055 128.716c0 .972.153 1.42.38 2.056-.95.6-2.627.97-4.15.97-1.6 0-2.285-.597-2.285-1.644 0-.934.228-2.018.495-3.14 1.752-6.954 3.35-13.16 4.227-17.944.114-.674.267-1.533.267-2.132 0-1.42-1.258-.15-1.258-1.495.076-.972.19-1.57.61-1.906 2.246-1.158 5.598-1.756 8.34-1.756 6.246 0 10.398 1.682 10.398 6.953 0 5.945-5.485 10.842-12.53 10.842-1.105 0-1.486-1.31-1.486-2.693 0-.15.076-.15.343-.15 4.8 0 7.922-2.542 7.922-7.29 0-3.364-2.172-4.523-5.524-4.523-.457.038-1.104.075-1.752.224.23.524.343 1.047.343 1.683 0 .6-.114 1.27-.305 2.17-1.066 4.784-2.285 9.195-3.237 13.98-.495 2.393-.8 4.45-.8 5.796zM36.634 110.808c1.18 0 1.6.71 1.6 1.794 0 1.72-1.105 3.627-2.628 5.31-.38-.6-.876-.936-1.447-.936-3.048 0-5.41 5.758-8.075 12.3-.534 1.346-1.22 2.055-3.124 2.055-.76 0-1.712-.11-2.97-.334 2.933-7.366 4.266-14.02 4.266-16.636 0-.973-.114-1.832-.42-2.468 1.677-.71 3.01-1.047 4-1.047 1.18 0 2.02.71 2.02 1.907 0 1.495-.572 3.663-1.22 6.168 2.857-4.934 5.523-8.075 7.808-8.112h.19zM48.362 113.5c-3.39 0-5.6 7.177-5.6 11.477 0 2.205.687 3.812 2.515 3.812 3.35 0 5.522-7.103 5.522-11.403 0-2.205-.61-3.888-2.438-3.888zm1.142-2.767c4.152 0 6.97 2.505 6.97 6.654 0 7.028-5.56 14.133-12.34 14.133-4.19 0-6.97-2.618-6.97-6.955 0-3.626 1.296-6.878 3.695-9.645 2.36-2.58 5.33-4.187 8.644-4.187zM81.796 123.033c.953-4.188 1.448-6.58 1.448-6.992 0-.484-.19-.633-.572-.633-1.713 0-7.617 9.382-8.53 14.243 0 .262.037.523.15.86-.38.298-1.712.784-2.665.784-1.104 0-1.942-.374-2.666-1.12 1.753-7.254 3.2-12.787 3.2-14.133 0-.522-.228-.67-.61-.67-1.027.037-3.007 2.802-4.912 5.57-1.257 1.83-2.056 3.887-3.923 8.3-.57 1.344-1.18 2.054-3.123 2.054-.76 0-1.714-.112-2.97-.336 3.008-7.29 4.303-14.17 4.303-16.636 0-.897-.152-1.757-.457-2.467 1.676-.71 3.01-1.047 4-1.047 1.142 0 2.056.673 2.056 1.832 0 1.42-.57 3.59-1.257 6.205 3.504-5.346 7.198-8.15 9.56-8.15 1.447 0 2.628.786 2.628 2.43 0 1.908-.305 4-.876 5.646 3.503-5.494 7.235-8.074 9.444-8.074 1.523 0 2.59 1.233 2.59 2.69 0 4.113-2.4 9.984-2.4 12.487 0 .75.19 1.272.38 1.608 1.068-.223 3.734-3.214 4.153-3.214.152 0 .228.112.228.337 0 2.69-4.037 6.805-6.78 6.805-2.056 0-3.313-1.048-3.313-3.366.038-1.533.572-3.365.914-5.01z" fill-rule="nonzero"/><path d="M102.052 113.5c-3.39 0-5.6 7.177-5.6 11.477 0 2.205.686 3.812 2.514 3.812 3.352 0 5.523-7.103 5.523-11.403 0-2.205-.61-3.888-2.438-3.888zm1.142-2.767c4.152 0 6.97 2.505 6.97 6.654 0 7.028-5.56 14.133-12.34 14.133-4.19 0-6.97-2.618-6.97-6.955 0-3.626 1.295-6.878 3.694-9.645 2.362-2.58 5.332-4.187 8.646-4.187zM123.338 118.323c-.914 3.327-2.4 3.438-5.484 3.438h-1.105c-2.248 0-3.77.525-4.343.525 0-.262.076-.598.23-.935 1.294-3.103 1.98-3.514 3.845-3.514.457-.037.99 0 1.676 0h1.257c1.447 0 2.818-.15 3.81-.41.15.26.19.56.113.897zM132.59 105.948c-2.133 0-3.542.523-4.647 1.085-.342.223-.723.336-.952.336-.037-.488-.075-1.01-.075-1.422 0-2.617 1.295-3.776 3.81-3.776 3.883 0 7.692.113 11.386.113 3.01 0 4.572-.56 6.17-.823.04.15.077.336.077.56-.076 2.842-1.6 4.076-3.846 4.076-.95 0-2.894-.15-3.846-.15-.685 0-1.028.112-1.18.674-.877 3.663-2.743 11.25-4 17.084-.38 1.756-.723 3.513-.723 4.897 0 .86.19 1.31.496 2.094-1.257.786-3.16 1.046-4.113 1.046-1.563 0-2.4-.598-2.4-1.83 0-.824.153-2.095.61-3.815.342-1.31 4.19-17.122 4.57-19.103.076-.373.152-.673.19-1.01-.533 0-.99-.037-1.523-.037z" fill-rule="nonzero"/><path d="M158.294 111.033c1.714 0 2.704.934 2.704 3.027-.038 2.654-1.942 7.7-1.942 11.74 0 .746.266 1.27.457 1.607.342-.113 1.142-.56 1.866-1.31 1.218-1.232 1.865-1.868 2.284-1.868.152 0 .23.074.23.298 0 2.69-4.04 6.803-6.78 6.803-2.095 0-3.39-1.27-3.39-3.923 0-1.047.114-3.178.76-5.495.687-2.356.954-4.15.992-5.235 0-.448-.153-1.16-.61-1.16-1.676 0-5.256 5.534-8.76 13.76-.57 1.345-1.18 2.017-3.16 2.017-.724 0-1.715-.112-2.933-.298 2.894-7.44 4.684-15.74 5.79-24.225 0-.148.037-.26.037-.373 0-.6-.152-1.084-.457-1.72 1.56-.86 2.894-1.196 4.113-1.196 1.105 0 1.904.6 1.904 1.758 0 .112 0 .224-.038.337-.076.934-1.18 7.102-2.932 13.87 2.513-4.45 6.398-8.412 9.864-8.412z" fill-rule="nonzero"/><path d="M169.068 122.135c.648-1.383 1.79-1.87 3.2-2.616 2.437-1.31 3.123-2.544 3.503-3.852.382-1.308-.075-2.43-1.446-2.43-2.056 0-3.77 2.58-4.875 7.216 0 0-.153.634-.382 1.68zm10.436 3.14c.533.935.457 2.095-.23 2.954-.646.784-1.598 1.494-2.855 2.017-1.905.86-3.886 1.273-6.02 1.273-4.455 0-7.006-1.908-7.197-5.758-.19-3.85 1.18-7.627 3.81-10.43 2.55-2.99 5.826-4.6 9.216-4.6 3.198 0 4.72 1.348 4.683 3.89 0 2.542-3.35 5.793-8.493 7.588-1.22.412-3.694 1.496-3.732 2.467-.04.898.076 1.683.418 2.17.838 1.195 2.21 1.905 3.657 1.72 2.704-.263 4.76-1.422 6.74-3.29zM198.162 107.743c.952 0 2.02-.3 3.047-.898.418-1.047.646-1.87.646-2.467 0-1.234-.914-1.907-2.36-1.907-.877 0-1.867.3-2.857.786 0 .673-.458 1.31-.458 2.767 0 1.308.99 1.72 1.98 1.72zm-8.226 0c.952 0 2.018-.3 3.046-.898.42-1.047.648-1.87.648-2.467 0-1.234-.914-1.907-2.36-1.907-.877 0-1.868.3-2.858.786 0 .673-.457 1.31-.457 2.767 0 1.308.99 1.72 1.98 1.72zm12.377 5.12c0 .786-.19 1.72-.495 2.805-1.028 3.663-2.247 7.328-2.247 9.982 0 .747.23 1.27.42 1.607 1.067-.224 3.733-3.215 4.152-3.215.152 0 .228.112.228.336 0 2.692-4.037 6.804-6.78 6.804-2.132 0-3.39-1.31-3.39-4 0-1.01.154-1.87.344-2.878-2.933 4.71-5.79 7.216-8.874 7.216-2.818 0-3.314-1.944-3.314-3.852 0-2.916 2.743-11.327 2.743-14.13 0-.636-.078-1.347-.382-1.908 1.37-.523 2.742-.785 3.732-.785 1.752 0 2.21.935 2.21 2.057 0 .747-.23 1.607-.382 2.28-1.218 5.233-2.475 9.533-2.475 11.364 0 .487.152.973.723.973 1.067 0 3.428-2.58 5.523-6.282 1.94-3.477 2.93-6.58 2.93-8.598 0-.41-.075-.897-.265-1.27.99-.337 2.323-.525 3.275-.525 1.22.075 2.323.486 2.323 2.02z" fill-rule="nonzero"/><path d="M212.516 114.845c0 .748.38 1.42.99 2.17 1.638 1.942 3.313 3.7 3.313 6.43 0 4.485-4.19 7.963-8.8 7.963-2.626 0-5.635-1.684-5.635-4.6 0-1.27.838-2.056 1.523-2.43.876 2.32 2.362 4.374 4.647 4.487 1.79 0 2.932-.972 2.932-2.992 0-1.756-1.6-2.99-3.047-4.597-.99-1.16-1.523-2.617-1.523-4.075 0-4.822 4.95-6.915 9.33-6.915 1.372 0 1.943.26 2.172 1.122 0 .747-.344 1.42-1.486 2.205-.762-.748-1.524-1.084-2.21-1.084-1.523 0-2.208.86-2.208 2.317z" fill-rule="nonzero"/><path d="M34.632 138.33c-1.244 0-2.877.194-3.577.408v11.256h2.158c3.383 0 5.327-1.964 5.327-6.007 0-4.724-1.905-5.657-3.908-5.657zm-1.42 13.277h-4.08v-14.27c.873-.135 3.576-.582 5.928-.582 4.472 0 5.52 3.402 5.52 7.367 0 4.86-2.565 7.485-7.367 7.485zM45.58 139.477l-.66-1.03 4.315-1.42.68 1.516-4.334.934zm2.197 2.293c-1.75 0-3.052 1.73-3.052 3.675 1.75 0 3.693 0 5.27-.817.017-1.38-.468-2.858-2.218-2.858zm4.18 8.71c-1.594 1.185-2.82 1.36-4.452 1.36-3.188 0-4.724-2.04-4.724-5.754 0-3.304 2.004-5.85 5.134-5.85 2.954 0 3.984 2.098 3.984 5.305-2.118 1.226-4.977 1.324-7.114 1.324 0 2.02 1.07 3.42 2.954 3.42 1.516 0 2.41-.485 3.422-1.165.447-.293.544-.215.777.096l.37.486c.155.194.097.427-.35.777zM60.28 151.004c-.136.195-.292.487-.642.525l-1.166.116c-.194.02-.583.06-.778-.467l-3.868-10.265c-.097-.252.135-.564.37-.584l.972-.095c.583 0 .7.253.796.524l3.11 9.428c1.964-3.85 3.227-8.418 3.227-9.43 0-.29.313-.562.682-.523l.972.077c.253.02.388.233.388.525 0 1.886-2.896 8.515-4.062 10.167zM70.993 141.77c-1.75 0-3.052 1.73-3.052 3.675 1.75 0 3.85-.117 5.27-.817 0-1.38-.448-2.858-2.217-2.858zm4.18 8.71c-1.594 1.185-2.82 1.36-4.452 1.36-3.187 0-4.723-2.04-4.723-5.754 0-3.304 2.003-5.85 5.132-5.85 2.954 0 3.984 1.826 3.984 5.403-1.613.737-4.14 1.243-6.61 1.243-.155 0-.29 0-.504-.02 0 2.022 1.07 3.422 2.954 3.422 1.516 0 2.41-.486 3.422-1.166.194-.137.35-.196.447-.196.116 0 .214.078.35.253l.37.486.077.213c0 .157-.117.37-.448.603zM79.336 151.607h-.99c-.254 0-.487-.234-.487-.506v-13.548c0-.292.232-.525.485-.525h.99c.254 0 .468.233.468.525v13.55c0 .27-.214.505-.467.505zM87.462 141.77c-2.468 0-3.012 2.197-3.09 4.22-.06 1.826.505 4.295 2.74 4.295 2.548 0 3.13-2.1 3.19-4.12.057-1.83-.604-4.395-2.84-4.395zm-.35 10.07c-3.44 0-4.742-2.586-4.742-5.793 0-3.208 1.613-5.812 5.073-5.812 3.577 0 4.86 2.604 4.86 5.812 0 3.207-1.593 5.793-5.19 5.793zM99.908 141.77c-1.11 0-2.683.953-3.713 1.925.077.388.116.76.116 1.128v4.082c0 .388-.038.758-.115 1.146h1.594c2.468 0 4.004-2.31 4.004-5.033 0-2.722-.797-3.247-1.886-3.247zm-2.294 9.837h-1.42c.078.39.117.777.117 1.146v2.742c0 .292-.232.505-.466.505h-1.01c-.234 0-.466-.213-.466-.505V140.74c0-.29.232-.505.466-.505h1.01c.234 0 .467.214.467.505v1.167c1.537-1.167 2.8-1.672 4.026-1.672 2.818 0 3.44 2.294 3.44 4.743 0 3.693-2.1 6.63-6.162 6.63zM111.555 141.77c-1.11 0-2.683.953-3.713 1.925.077.388.116.76.116 1.128v4.082c0 .388-.04.758-.116 1.146h1.594c2.468 0 4.004-2.31 4.004-5.033 0-2.722-.796-3.247-1.885-3.247zm-2.294 9.837h-1.418c.077.39.116.777.116 1.146v2.742c0 .292-.233.505-.467.505h-1.01c-.233 0-.465-.213-.465-.505V140.74c0-.29.232-.505.465-.505h1.01c.235 0 .468.214.468.505v1.167c1.536-1.167 2.8-1.672 4.024-1.672 2.82 0 3.44 2.294 3.44 4.743 0 3.693-2.1 6.63-6.16 6.63zM122.502 141.77c-1.75 0-3.052 1.73-3.052 3.675 1.75 0 3.85-.117 5.27-.817 0-1.38-.45-2.858-2.218-2.858zm4.18 8.71c-1.594 1.185-2.82 1.36-4.452 1.36-3.188 0-4.724-2.04-4.724-5.754 0-3.304 2.003-5.85 5.133-5.85 2.953 0 3.983 1.826 3.983 5.403-1.613.737-4.14 1.243-6.61 1.243-.155 0-.29 0-.504-.02 0 2.022 1.068 3.422 2.953 3.422 1.516 0 2.41-.486 3.422-1.166.194-.137.35-.196.447-.196.116 0 .214.078.35.253l.37.486.077.213c0 .157-.117.37-.448.603zM143.578 151.607h-.932c-.253 0-.467-.234-.467-.506v-8.475c0-.602-.196-.855-.76-.855-.68 0-2.37 1.128-3.77 2.508v6.823c0 .273-.234.507-.487.507h-.99c-.254 0-.468-.234-.468-.506v-8.475c0-.504-.155-.855-.72-.855-.835 0-2.76 1.38-3.81 2.508v6.823c0 .273-.233.507-.485.507h-.992c-.252 0-.467-.234-.467-.506v-10.127c0-.27.216-.505.468-.505h.992c.252 0 .486.234.486.505v1.672c1.167-1.244 2.78-2.41 4.47-2.41 1.032 0 1.556.233 2.003 1.127v1.283c1.438-1.38 2.935-2.41 4.47-2.41 1.03 0 1.556.233 2.003 1.127v9.74c0 .27-.292.505-.545.505zM151.767 141.77c-1.75 0-3.052 1.73-3.052 3.675 1.75 0 3.848-.117 5.268-.817 0-1.38-.447-2.858-2.216-2.858zm4.18 8.71c-1.594 1.185-2.82 1.36-4.452 1.36-3.188 0-4.724-2.04-4.724-5.754 0-3.304 2.003-5.85 5.133-5.85 2.954 0 3.985 1.826 3.985 5.403-1.614.737-4.14 1.243-6.61 1.243-.155 0-.29 0-.505-.02 0 2.022 1.07 3.422 2.955 3.422 1.516 0 2.41-.486 3.42-1.166.196-.137.35-.196.45-.196.115 0 .213.078.348.253l.37.486.078.213c0 .157-.117.37-.448.603zM166.894 151.607h-.953c-.232 0-.465-.234-.465-.506v-8.57c0-.507-.292-.76-.856-.76-.992 0-3.13 1.497-4.238 2.508v6.823c0 .273-.234.507-.486.507h-.992c-.253 0-.466-.234-.466-.506v-10.36c0-.29.213-.505.466-.505h.992c.252 0 .486.214.486.505v1.905c1.107-1.107 3.032-2.41 4.704-2.41 1.05 0 1.905.31 2.333 1.205v9.66c0 .273-.293.507-.526.507zM177.472 150.285c-1.342 1.05-2.528 1.555-4.025 1.555-1.03 0-2.04-.7-2.216-1.438v-8.632h-1.573c-.408 0-.584-.116-.428-.485l.155-.37c.116-.272.37-.37.836-.466l1.01-.215v-1.42c0-.64.235-.72.468-.816l.933-.35c.254 0 .487-.06.487.505v2.08h3.616c.33 0 .427.077.427.253l-.038.233-.233.642c-.1.272-.235.408-.702.408h-3.07v7.33c0 .738.135 1.185.894 1.185.738 0 1.866-.525 2.643-1.147.195-.155.66-.428.817-.078l.272.603c.116.233-.04.427-.272.622z" fill-rule="nonzero"/><defs><linearGradient id="aja" x2="1" gradientUnits="userSpaceOnUse" gradientTransform="rotate(-90 89.65 -23.914) scale(64.1514)"><stop offset="0%" stop-color="#8ac97a"/><stop offset="100%" stop-color="#b2dbb2"/></linearGradient><linearGradient id="ajb" x2="1" gradientUnits="userSpaceOnUse" gradientTransform="rotate(-90 89.65 -23.914) scale(64.1514)"><stop offset="0%" stop-color="#8ac97a"/><stop offset="100%" stop-color="#b2dbb2"/></linearGradient><linearGradient id="ajc" x2="1" gradientUnits="userSpaceOnUse" gradientTransform="rotate(-90 89.65 -23.914) scale(64.1514)"><stop offset="0%" stop-color="#8ac97a"/><stop offset="100%" stop-color="#b2dbb2"/></linearGradient><linearGradient id="ajd" x2="1" gradientUnits="userSpaceOnUse" gradientTransform="rotate(-90 89.65 -23.914) scale(64.1514)"><stop offset="0%" stop-color="#8b8b93"/><stop offset="100%" stop-color="#b3bac1"/></linearGradient></defs>
</symbol>

<symbol id="icon-logo-no-text" viewBox="0 0 219 156">
        <path d="M143.38 35.977l-.127-23.994-12.87.072.063 12.006L114.38 9.266l-6.146 6.993 22.284 22.095v.495l.495-.01 7.056 7.003v-.07l5.822 5.03 7.092-7.812-7.605-7.01zm-30.7 42.29l-11.403-8.963s3.897-3.717 7.39-7.48c3.473-3.752 4.5-2.942 4.886-2.492.396.44 1.638 1.602 3.438 3.285 1.792 1.7 2.26-.18 4.23-2.457 1.972-2.277 3.295-.864 3.295-.864s1.413 1.26 2.736 2.673c1.315 1.412 2.457 1.655 4.68-1.774 2.215-3.42 3.89-1.152 4.438-.612.243.234.918.855 1.782 1.557l-.045-9.368v.072l-32.67-32.4-25.497 29.06-1.34-1.17 25.577-29.14-.045-.046 1.944-2.133 6.993-7.956L105.02.642 67.888 45.076l7.73 6.093.244 45.368 62.48-.333-.1-18.19-25.56.253zM151.848 58.234s-2.17-1.54-5.022 1.503c-2.862 3.042-3.23 4.77-5.39 3.708-.37-.17-.748-.396-1.126-.64l.153 15.31 11.943-.126s-2.61-5.023-2.646-11.17c-.027-5.283 2.088-8.586 2.088-8.586zM186.66 71.33c-1.782 2.96-5.634 3.914-8.604 2.14-2.96-1.78-3.924-5.624-2.142-8.594 1.782-2.96 5.634-3.915 8.604-2.133 2.96 1.773 3.924 5.625 2.142 8.586zm-1.017-23.41c-10.683-6.408-24.543-2.952-30.96 7.722-6.417 10.683-2.952 24.534 7.722 30.942 10.683 6.4 24.552 2.952 30.97-7.722 6.407-10.674 2.95-24.534-7.732-30.942z" fill-rule="nonzero"/><path d="M59.256 46.975l11.727-14.12-5.05-4.573-22.382 25.506-1.34-1.18 22.4-25.523-5.282-4.788L30.375 56.29l7.272 5.328.198 35.36 32.058-.18-.225-41.67-10.422-8.153z" fill-rule="nonzero"/><path d="M103.76 65.74c-9.467-.01-18.61-.054-27.34-.126L76.337 50.7l-7.407-5.85L105.085 1.59l6.966 6.408-6.516 7.434-2.403 2.62.055.053L77.57 47.29 80 49.414l25.47-29.016 31.906 31.644.045 7.407c-.26-.226-.45-.406-.548-.505-.26-.216-1.07-1.404-2.53-1.44-1.034.01-2.06.693-3.023 2.187-1.193 1.878-2.033 2.416-2.375 2.416-.018 0-.033 0-.048-.004l-.028.002c-.228 0-.596-.205-1.088-.74-1.35-1.45-2.78-2.71-2.78-2.718-.02-.018-.568-.612-1.594-.62-.82 0-1.782.43-2.736 1.547-.756.873-1.287 1.674-1.72 2.205-.396.513-.656.66-.73.66-.007 0-.012 0-.016-.003h-.01c-.063 0-.302-.076-.7-.46-1.8-1.682-3.07-2.87-3.394-3.24-.176-.22-.655-.638-1.335-.638h-.042c-1.125.035-2.394.773-4.6 3.122-1.484 1.61-3.06 3.213-4.364 4.518z" fill="url(#aia)"/><path d="M141.066 65.533l-.018-1.575.072.036c.486.234.954.378 1.43.378.99 0 1.675-.62 2.314-1.34.648-.74 1.377-1.72 2.493-2.908 1.323-1.404 2.34-1.656 3.033-1.665.153 0 .297.017.432.044-.576 1.16-1.548 3.59-1.746 6.93-2.69.036-5.364.063-8.01.1zm11.196-.144c.26-3.26 1.25-6.5 3.042-9.478C159.4 49.09 166.626 45.32 174.05 45.32c3.826 0 7.696.998 11.224 3.113 5.967 3.582 9.603 9.567 10.422 15.975-2.772.09-5.526.17-8.27.243-.577-1.06-1.432-1.98-2.54-2.645-1.124-.675-2.366-1-3.6-1-2.366 0-4.688 1.207-5.993 3.394-.117.18-.198.368-.288.557-7.686.18-15.273.315-22.743.432z" fill="url(#aib)"/><path d="M143.83 49.675l-5.85-5.058-6.67-6.615h-.063v-.063l-22.014-21.826 5.202-5.922 16.74 15.426-.063-12.95 11.412-.064.126 23.59 7.308 6.722-6.13 6.76z" fill="url(#aic)"/><path d="M69.003 65.542c-10.953-.108-21.195-.27-30.61-.46l-.017-3.95-6.94-5.085 27.955-32.814 4.204 3.798-22.41 25.534 2.43 2.142L65.997 29.21l3.978 3.6L58.22 46.974l.586.46L68.95 55.38l.053 10.162z" fill="url(#aid)"/><defs><linearGradient id="aia" x2="1" gradientUnits="userSpaceOnUse" gradientTransform="rotate(-90 89.65 -23.914) scale(64.1514)"><stop offset="0%" stop-color="#8ac97a"/><stop offset="100%" stop-color="#b2dbb2"/></linearGradient><linearGradient id="aib" x2="1" gradientUnits="userSpaceOnUse" gradientTransform="rotate(-90 89.65 -23.914) scale(64.1514)"><stop offset="0%" stop-color="#8ac97a"/><stop offset="100%" stop-color="#b2dbb2"/></linearGradient><linearGradient id="aic" x2="1" gradientUnits="userSpaceOnUse" gradientTransform="rotate(-90 89.65 -23.914) scale(64.1514)"><stop offset="0%" stop-color="#8ac97a"/><stop offset="100%" stop-color="#b2dbb2"/></linearGradient><linearGradient id="aid" x2="1" gradientUnits="userSpaceOnUse" gradientTransform="rotate(-90 89.65 -23.914) scale(64.1514)"><stop offset="0%" stop-color="#8b8b93"/><stop offset="100%" stop-color="#b3bac1"/></linearGradient></defs>
</symbol>

<symbol id="icon-pinterest" viewBox="0 0 800 800">
        <path d="M287 681c-9-3-15-77-6-115l38-163s-9-20-9-49c0-46 26-80 59-80 28 0 42 21 42 46 0 28-19 71-28 110-8 33 17 59 49 59 58 0 104-61 104-150 0-79-57-134-138-134-94 0-148 69-148 142 0 28 9.7 57.4 23 74 4 5 5 6 2 17l-8 31s-2 9.5-14 3c-41-22.3-63-78-63-126 0-104 75-199 217-199 114 0 203 81 203 190 0 113-72 205-171 205-55 0-75-38-75-38l-21 78c-11 41-47 102-56 99z"/>
</symbol>

<symbol id="icon-real" viewBox="0 0 612 612">
        <path d="M74.165 294.77V572.86h244.512V367.34H447.96v205.513h87.59V294.77L304.86 122.543 74.165 294.77zM250.74 475.7H142.388V367.34h108.358V475.7h-.006z"/><path d="M605.726 259.844l-69.035-45.952V86.66h-80.914v66.486L303.912 39.14 6.192 259.892c-6.898 5.25-8.234 15.1-2.99 21.99 5.246 6.898 15.09 8.246 21.992 2.99l278.84-206.404 282.853 206.464c2.824 2.122 6.13 3.14 9.41 3.14 4.763 0 9.477-2.164 12.563-6.268 5.196-6.928 3.8-16.758-3.134-21.96z"/>
</symbol>

<symbol id="icon-symbols" viewBox="">
        
</symbol>

<symbol id="icon-twitter" viewBox="0 0 800 800">
        <path d="M679 239s-21 34-55 57c7 156-107 329-314 329-103 0-169-50-169-50s81 17 163-45c-83-5-103-77-103-77s23 6 50-2c-93-23-89-110-89-110s23 14 50 14c-84-65-34-148-34-148s76 107 228 116c-22-121 117-177 188-101 37-6 71-27 71-27s-12 41-49 61c30-2 63-17 63-17z"/>
</symbol>
</svg>