<?xml version="1.0" standalone="no"?><!DOCTYPE svg PUBLIC "-//W3C//DTD SVG 1.1//EN" "http://www.w3.org/Graphics/SVG/1.1/DTD/svg11.dtd"><svg width="100%" height="100%" viewBox="0 0 219 127" version="1.1" xmlns="http://www.w3.org/2000/svg" xmlns:xlink="http://www.w3.org/1999/xlink" xml:space="preserve" style="fill-rule:evenodd;clip-rule:evenodd;stroke-linejoin:round;stroke-miterlimit:1.41421;"><path d="M148.665,46.484l-0.166,-31.565l-16.933,0.094l0.085,15.795l-21.135,-19.465l-8.087,9.2l29.316,29.067l0,0.651l0.652,-0.011l9.282,9.211l0,-0.094l7.661,6.618l9.33,-10.277l-10.005,-9.224l0,0ZM108.278,102.121l-15.001,-11.792c0,0 5.126,-4.89 9.72,-9.84c4.571,-4.937 5.921,-3.871 6.43,-3.279c0.521,0.58 2.155,2.107 4.523,4.321c2.356,2.238 2.971,-0.237 5.564,-3.232c2.593,-2.996 4.334,-1.137 4.334,-1.137c0,0 1.859,1.658 3.599,3.517c1.729,1.859 3.231,2.178 6.157,-2.333c2.913,-4.499 5.115,-1.515 5.837,-0.805c0.32,0.308 1.208,1.125 2.345,2.048l-0.059,-12.325l0,0.095l-42.98,-42.625l-33.543,38.232l-1.764,-1.539l33.649,-38.339l-0.059,-0.059l2.558,-2.806l9.199,-10.467l-10.585,-9.756l-48.852,58.455l10.17,8.016l0.32,59.686l82.194,-0.438l-0.13,-23.929l-33.626,0.331l0,0Z" style="fill:#78c255;fill-rule:nonzero;"/><path d="M159.807,75.765c0,0 -2.854,-2.025 -6.607,1.977c-3.765,4.002 -4.251,6.276 -7.093,4.879c-0.485,-0.225 -0.982,-0.521 -1.48,-0.841l0.202,20.14l15.712,-0.166c0,0 -3.434,-6.607 -3.481,-14.693c-0.036,-6.951 2.747,-11.296 2.747,-11.296l0,0ZM205.604,92.993c-2.344,3.895 -7.412,5.15 -11.319,2.818c-3.895,-2.345 -5.162,-7.401 -2.818,-11.308c2.344,-3.895 7.412,-5.15 11.319,-2.806c3.896,2.333 5.163,7.4 2.818,11.296l0,0ZM204.266,62.196c-14.054,-8.43 -32.288,-3.883 -40.73,10.159c-8.442,14.054 -3.883,32.276 10.159,40.707c14.054,8.418 32.3,3.883 40.742,-10.159c8.43,-14.043 3.884,-32.276 -10.171,-40.707l0,0Z" style="fill:#78c255;fill-rule:nonzero;"/><path d="M37.995,60.953l15.428,-18.577l-6.643,-6.015l-29.446,33.555l-1.764,-1.551l29.47,-33.579l-6.95,-6.299l-38.09,44.721l9.567,7.009l0.26,46.52l42.175,-0.237l-0.296,-54.82l-13.711,-10.727l0,0Z" style="fill:#7d7e82;fill-rule:nonzero;"/><path d="M96.545,85.64c-12.456,-0.012 -24.486,-0.071 -35.971,-0.166l-0.106,-19.619l-9.745,-7.696l47.562,-56.916l9.164,8.43l-8.572,9.78l-3.161,3.446l0.071,0.071l-33.697,38.398l3.197,2.794l33.507,-38.173l41.974,41.63l0.059,9.745c-0.344,-0.296 -0.592,-0.533 -0.722,-0.663c-0.344,-0.285 -1.409,-1.848 -3.328,-1.895c-1.361,0.012 -2.711,0.912 -3.978,2.877c-1.568,2.471 -2.673,3.179 -3.123,3.179c-0.024,0 -0.043,-0.002 -0.063,-0.006c-0.011,0.002 -0.024,0.003 -0.037,0.003c-0.299,0 -0.783,-0.27 -1.43,-0.973c-1.776,-1.907 -3.659,-3.564 -3.659,-3.576c-0.023,-0.024 -0.746,-0.805 -2.095,-0.817c-1.078,0 -2.345,0.568 -3.6,2.036c-0.994,1.149 -1.693,2.203 -2.261,2.901c-0.523,0.675 -0.865,0.87 -0.962,0.87c-0.009,0 -0.016,-0.002 -0.021,-0.006c-0.004,0.002 -0.008,0.002 -0.013,0.002c-0.083,0 -0.397,-0.102 -0.922,-0.605c-2.368,-2.214 -4.038,-3.777 -4.464,-4.263c-0.232,-0.289 -0.862,-0.84 -1.756,-0.84c-0.019,0 -0.037,0 -0.056,0c-1.48,0.047 -3.149,1.018 -6.05,4.108c-1.954,2.119 -4.026,4.227 -5.742,5.944l0,0Z" style="fill:url(#_Linear1);"/><path d="M145.622,85.367l-0.024,-2.072l0.095,0.048c0.639,0.308 1.255,0.497 1.883,0.497c1.302,0 2.202,-0.817 3.043,-1.764c0.852,-0.971 1.811,-2.262 3.279,-3.824c1.741,-1.848 3.079,-2.179 3.99,-2.191c0.202,0 0.391,0.024 0.569,0.059c-0.758,1.528 -2.037,4.725 -2.297,9.117c-3.54,0.048 -7.057,0.083 -10.538,0.13l0,0ZM160.351,85.178c0.344,-4.286 1.646,-8.549 4.002,-12.468c5.387,-8.974 14.895,-13.935 24.663,-13.935c5.032,0 10.124,1.314 14.765,4.096c7.85,4.713 12.633,12.586 13.711,21.016c-3.647,0.119 -7.27,0.225 -10.881,0.32c-0.758,-1.397 -1.883,-2.605 -3.339,-3.481c-1.48,-0.888 -3.114,-1.314 -4.736,-1.314c-3.114,0 -6.169,1.586 -7.886,4.464c-0.154,0.236 -0.26,0.485 -0.379,0.734c-10.111,0.237 -20.093,0.414 -29.92,0.568l0,0Z" style="fill:url(#_Linear2);"/><path d="M149.257,64.505l-7.696,-6.654l-8.774,-8.703l-0.083,0l0,-0.082l-28.961,-28.713l6.844,-7.791l22.023,20.294l-0.083,-17.038l15.013,-0.082l0.166,31.033l9.614,8.844l-8.063,8.892l0,0Z" style="fill:url(#_Linear3);"/><path d="M50.818,85.379c-14.41,-0.142 -27.884,-0.355 -40.268,-0.604l-0.024,-5.197l-9.129,-6.69l36.776,-43.169l5.529,4.996l-29.482,33.591l3.197,2.818l29.446,-33.543l5.234,4.736l-15.464,18.636l0.77,0.604l13.344,10.455l0.071,13.367Z" style="fill:url(#_Linear4);"/><defs><linearGradient id="_Linear1" x1="0" y1="0" x2="1" y2="0" gradientUnits="userSpaceOnUse" gradientTransform="matrix(-3.68906e-06,-84.3958,84.3958,-3.68906e-06,109.44,85.6343)"><stop offset="0%" style="stop-color:#8ac97a;stop-opacity:1"/><stop offset="100%" style="stop-color:#b2dbb2;stop-opacity:1"/></linearGradient><linearGradient id="_Linear2" x1="0" y1="0" x2="1" y2="0" gradientUnits="userSpaceOnUse" gradientTransform="matrix(-3.68906e-06,-84.3958,84.3958,-3.68906e-06,109.44,85.6343)"><stop offset="0%" style="stop-color:#8ac97a;stop-opacity:1"/><stop offset="100%" style="stop-color:#b2dbb2;stop-opacity:1"/></linearGradient><linearGradient id="_Linear3" x1="0" y1="0" x2="1" y2="0" gradientUnits="userSpaceOnUse" gradientTransform="matrix(-3.68906e-06,-84.3958,84.3958,-3.68906e-06,109.44,85.6343)"><stop offset="0%" style="stop-color:#8ac97a;stop-opacity:1"/><stop offset="100%" style="stop-color:#b2dbb2;stop-opacity:1"/></linearGradient><linearGradient id="_Linear4" x1="0" y1="0" x2="1" y2="0" gradientUnits="userSpaceOnUse" gradientTransform="matrix(-3.68906e-06,-84.3958,84.3958,-3.68906e-06,109.44,85.6343)"><stop offset="0%" style="stop-color:#8b8b93;stop-opacity:1"/><stop offset="100%" style="stop-color:#b3bac1;stop-opacity:1"/></linearGradient></defs></svg>