<?xml version="1.0" standalone="no"?><!DOCTYPE svg PUBLIC "-//W3C//DTD SVG 1.1//EN" "http://www.w3.org/Graphics/SVG/1.1/DTD/svg11.dtd"><svg width="100%" height="100%" viewBox="0 0 219 156" version="1.1" xmlns="http://www.w3.org/2000/svg" xmlns:xlink="http://www.w3.org/1999/xlink" xml:space="preserve" style="fill-rule:evenodd;clip-rule:evenodd;stroke-linejoin:round;stroke-miterlimit:1.41421;"><g><path d="M143.379,35.977l-0.126,-23.994l-12.871,0.072l0.064,12.006l-16.065,-14.796l-6.147,6.993l22.284,22.095l0,0.495l0.495,-0.009l7.056,7.002l0,-0.072l5.823,5.031l7.092,-7.812l-7.605,-7.011ZM112.68,78.268l-11.403,-8.964c0,0 3.897,-3.717 7.389,-7.479c3.474,-3.753 4.5,-2.943 4.887,-2.493c0.396,0.441 1.638,1.602 3.438,3.285c1.791,1.701 2.259,-0.18 4.23,-2.457c1.971,-2.277 3.294,-0.864 3.294,-0.864c0,0 1.413,1.26 2.736,2.673c1.314,1.413 2.456,1.656 4.68,-1.773c2.214,-3.42 3.888,-1.152 4.437,-0.612c0.243,0.234 0.918,0.855 1.782,1.557l-0.045,-9.369l0,0.072l-32.67,-32.4l-25.497,29.061l-1.341,-1.17l25.578,-29.142l-0.045,-0.045l1.944,-2.133l6.993,-7.956l-8.046,-7.416l-37.134,44.433l7.731,6.093l0.243,45.369l62.478,-0.333l-0.099,-18.189l-25.56,0.252Z" style="fill:#78c255;fill-rule:nonzero;"/><path d="M151.848,58.234c0,0 -2.169,-1.539 -5.022,1.503c-2.862,3.042 -3.231,4.77 -5.391,3.708c-0.369,-0.171 -0.747,-0.396 -1.125,-0.639l0.153,15.309l11.943,-0.126c0,0 -2.61,-5.022 -2.646,-11.169c-0.027,-5.283 2.088,-8.586 2.088,-8.586ZM186.66,71.329c-1.782,2.961 -5.634,3.915 -8.604,2.142c-2.961,-1.782 -3.924,-5.625 -2.142,-8.595c1.782,-2.961 5.634,-3.915 8.604,-2.133c2.961,1.773 3.924,5.625 2.142,8.586ZM185.643,47.92c-10.683,-6.408 -24.543,-2.952 -30.96,7.722c-6.417,10.683 -2.952,24.534 7.722,30.942c10.683,6.399 24.552,2.952 30.969,-7.722c6.408,-10.674 2.952,-24.534 -7.731,-30.942Z" style="fill:#78c255;fill-rule:nonzero;"/><path d="M59.256,46.975l11.727,-14.121l-5.049,-4.572l-22.383,25.506l-1.341,-1.179l22.401,-25.524l-5.283,-4.788l-28.953,33.993l7.272,5.328l0.198,35.361l32.058,-0.18l-0.225,-41.67l-10.422,-8.154Z" style="fill:#7d7e82;fill-rule:nonzero;"/><path d="M103.761,65.74c-9.468,-0.009 -18.612,-0.054 -27.342,-0.126l-0.081,-14.913l-7.407,-5.85l36.153,-43.263l6.966,6.408l-6.516,7.434l-2.403,2.619l0.054,0.054l-25.614,29.187l2.43,2.124l25.47,-29.016l31.905,31.644l0.045,7.407c-0.261,-0.225 -0.45,-0.405 -0.549,-0.504c-0.261,-0.216 -1.071,-1.404 -2.529,-1.44c-1.035,0.009 -2.061,0.693 -3.024,2.187c-1.192,1.878 -2.032,2.416 -2.374,2.416c-0.018,0 -0.033,-0.001 -0.048,-0.004c-0.008,0.001 -0.018,0.002 -0.028,0.002c-0.227,0 -0.595,-0.205 -1.087,-0.74c-1.35,-1.449 -2.781,-2.709 -2.781,-2.718c-0.018,-0.018 -0.567,-0.612 -1.593,-0.621c-0.819,0 -1.782,0.432 -2.736,1.548c-0.756,0.873 -1.287,1.674 -1.719,2.205c-0.397,0.513 -0.657,0.661 -0.731,0.661c-0.007,0 -0.012,-0.001 -0.016,-0.004c-0.003,0.001 -0.006,0.001 -0.01,0.001c-0.063,0 -0.302,-0.077 -0.701,-0.46c-1.8,-1.683 -3.069,-2.871 -3.393,-3.24c-0.176,-0.22 -0.655,-0.639 -1.335,-0.639c-0.014,0 -0.028,0 -0.042,0c-1.125,0.036 -2.394,0.774 -4.599,3.123c-1.485,1.611 -3.06,3.213 -4.365,4.518Z" style="fill:url(#_Linear1);"/><path d="M141.066,65.533l-0.018,-1.575l0.072,0.036c0.486,0.234 0.954,0.378 1.431,0.378c0.99,0 1.674,-0.621 2.313,-1.341c0.648,-0.738 1.377,-1.719 2.493,-2.907c1.323,-1.404 2.34,-1.656 3.033,-1.665c0.153,0 0.297,0.018 0.432,0.045c-0.576,1.161 -1.548,3.591 -1.746,6.93c-2.691,0.036 -5.364,0.063 -8.01,0.099ZM152.262,65.389c0.261,-3.258 1.251,-6.498 3.042,-9.477c4.095,-6.822 11.322,-10.593 18.747,-10.593c3.825,0 7.695,0.999 11.223,3.114c5.967,3.582 9.603,9.567 10.422,15.975c-2.772,0.09 -5.526,0.171 -8.271,0.243c-0.576,-1.062 -1.431,-1.98 -2.538,-2.646c-1.125,-0.675 -2.367,-0.999 -3.6,-0.999c-2.367,0 -4.689,1.206 -5.994,3.393c-0.117,0.18 -0.198,0.369 -0.288,0.558c-7.686,0.18 -15.273,0.315 -22.743,0.432Z" style="fill:url(#_Linear2);"/><path d="M143.829,49.675l-5.85,-5.058l-6.669,-6.615l-0.063,0l0,-0.063l-22.014,-21.825l5.202,-5.922l16.74,15.426l-0.063,-12.951l11.412,-0.063l0.126,23.589l7.308,6.723l-6.129,6.759Z" style="fill:url(#_Linear3);"/><path d="M69.003,65.542c-10.953,-0.108 -21.195,-0.27 -30.609,-0.459l-0.018,-3.951l-6.939,-5.085l27.954,-32.814l4.203,3.798l-22.41,25.533l2.43,2.142l22.383,-25.497l3.978,3.6l-11.754,14.166l0.585,0.459l10.143,7.947l0.054,10.161Z" style="fill:url(#_Linear4);"/><path d="M6.055,128.716c0,0.972 0.153,1.42 0.381,2.056c-0.952,0.599 -2.628,0.971 -4.151,0.971c-1.6,0 -2.285,-0.598 -2.285,-1.645c0,-0.934 0.228,-2.018 0.495,-3.141c1.752,-6.953 3.351,-13.158 4.227,-17.943c0.114,-0.674 0.267,-1.533 0.267,-2.132c0,-1.42 -1.257,-0.149 -1.257,-1.495c0.076,-0.972 0.19,-1.57 0.609,-1.906c2.247,-1.159 5.599,-1.757 8.341,-1.757c6.246,0 10.398,1.682 10.398,6.953c0,5.945 -5.485,10.842 -12.531,10.842c-1.104,0 -1.485,-1.309 -1.485,-2.692c0,-0.15 0.076,-0.15 0.343,-0.15c4.799,0 7.922,-2.542 7.922,-7.29c0,-3.364 -2.171,-4.523 -5.523,-4.523c-0.457,0.038 -1.104,0.075 -1.752,0.224c0.229,0.524 0.343,1.047 0.343,1.683c0,0.598 -0.114,1.27 -0.305,2.168c-1.066,4.785 -2.285,9.196 -3.237,13.981c-0.495,2.393 -0.8,4.45 -0.8,5.796Z" style="fill:#7d7e82;fill-rule:nonzero;"/><path d="M36.634,110.808c1.181,0 1.6,0.71 1.6,1.794c0,1.72 -1.105,3.627 -2.628,5.309c-0.381,-0.598 -0.876,-0.935 -1.447,-0.935c-3.047,0 -5.408,5.758 -8.074,12.3c-0.534,1.346 -1.219,2.055 -3.124,2.055c-0.761,0 -1.713,-0.111 -2.97,-0.335c2.932,-7.366 4.265,-14.02 4.265,-16.636c0,-0.973 -0.114,-1.832 -0.419,-2.468c1.676,-0.71 3.009,-1.047 3.999,-1.047c1.181,0 2.019,0.711 2.019,1.907c0,1.495 -0.571,3.663 -1.219,6.168c2.857,-4.934 5.523,-8.075 7.808,-8.112l0.19,0Z" style="fill:#7d7e82;fill-rule:nonzero;"/><path d="M48.362,113.499c-3.39,0 -5.599,7.178 -5.599,11.478c0,2.205 0.686,3.812 2.514,3.812c3.351,0 5.522,-7.102 5.522,-11.402c0,-2.205 -0.609,-3.888 -2.437,-3.888ZM49.504,110.733c4.152,0 6.97,2.505 6.97,6.654c0,7.028 -5.56,14.133 -12.34,14.133c-4.189,0 -6.969,-2.618 -6.969,-6.955c0,-3.626 1.295,-6.878 3.694,-9.645c2.361,-2.579 5.332,-4.187 8.645,-4.187Z" style="fill:#7d7e82;fill-rule:nonzero;"/><path d="M81.796,123.033c0.953,-4.188 1.448,-6.58 1.448,-6.992c0,-0.485 -0.191,-0.634 -0.572,-0.634c-1.713,0 -7.617,9.382 -8.531,14.243c0,0.262 0.038,0.523 0.152,0.859c-0.38,0.299 -1.713,0.785 -2.666,0.785c-1.104,0 -1.942,-0.374 -2.666,-1.121c1.752,-7.253 3.2,-12.786 3.2,-14.132c0,-0.523 -0.229,-0.672 -0.61,-0.672c-1.028,0.038 -3.008,2.803 -4.913,5.57c-1.257,1.832 -2.056,3.888 -3.923,8.3c-0.571,1.345 -1.18,2.055 -3.123,2.055c-0.761,0 -1.714,-0.112 -2.97,-0.336c3.008,-7.29 4.303,-14.169 4.303,-16.636c0,-0.897 -0.152,-1.757 -0.457,-2.467c1.676,-0.71 3.009,-1.047 3.999,-1.047c1.143,0 2.057,0.673 2.057,1.832c0,1.42 -0.571,3.589 -1.257,6.205c3.504,-5.346 7.198,-8.149 9.56,-8.149c1.447,0 2.628,0.785 2.628,2.429c0,1.908 -0.305,4.001 -0.876,5.646c3.504,-5.495 7.236,-8.075 9.445,-8.075c1.523,0 2.59,1.233 2.59,2.691c0,4.112 -2.4,9.983 -2.4,12.486c0,0.749 0.191,1.272 0.381,1.608c1.067,-0.224 3.733,-3.215 4.152,-3.215c0.152,0 0.228,0.112 0.228,0.337c0,2.691 -4.037,6.805 -6.779,6.805c-2.057,0 -3.314,-1.048 -3.314,-3.366c0.038,-1.533 0.572,-3.365 0.914,-5.009Z" style="fill:#7d7e82;fill-rule:nonzero;"/><path d="M102.052,113.499c-3.39,0 -5.599,7.178 -5.599,11.478c0,2.205 0.685,3.812 2.513,3.812c3.352,0 5.523,-7.102 5.523,-11.402c0,-2.205 -0.609,-3.888 -2.437,-3.888ZM103.194,110.733c4.152,0 6.97,2.505 6.97,6.654c0,7.028 -5.56,14.133 -12.34,14.133c-4.19,0 -6.97,-2.618 -6.97,-6.955c0,-3.626 1.295,-6.878 3.694,-9.645c2.362,-2.579 5.332,-4.187 8.646,-4.187Z" style="fill:#7d7e82;fill-rule:nonzero;"/><path d="M123.338,118.323c-0.914,3.327 -2.4,3.438 -5.484,3.438l-1.105,0c-2.247,0 -3.77,0.524 -4.342,0.524c0,-0.262 0.076,-0.598 0.229,-0.935c1.295,-3.103 1.98,-3.514 3.846,-3.514c0.457,-0.037 0.991,0 1.676,0l1.257,0c1.447,0 2.818,-0.149 3.809,-0.411c0.152,0.262 0.19,0.561 0.114,0.898Z" style="fill:#7d7e82;fill-rule:nonzero;"/><path d="M132.59,105.948c-2.133,0 -3.542,0.523 -4.647,1.085c-0.342,0.223 -0.723,0.336 -0.952,0.336c-0.038,-0.487 -0.076,-1.009 -0.076,-1.421c0,-2.617 1.295,-3.776 3.809,-3.776c3.884,0 7.693,0.113 11.387,0.113c3.009,0 4.571,-0.561 6.17,-0.823c0.038,0.15 0.076,0.336 0.076,0.561c-0.076,2.841 -1.599,4.075 -3.846,4.075c-0.952,0 -2.895,-0.15 -3.847,-0.15c-0.685,0 -1.028,0.112 -1.181,0.674c-0.876,3.663 -2.742,11.251 -3.999,17.084c-0.38,1.756 -0.723,3.513 -0.723,4.897c0,0.859 0.19,1.309 0.495,2.094c-1.257,0.786 -3.161,1.046 -4.113,1.046c-1.563,0 -2.4,-0.598 -2.4,-1.831c0,-0.823 0.153,-2.094 0.61,-3.814c0.342,-1.309 4.189,-17.122 4.57,-19.103c0.076,-0.373 0.152,-0.673 0.19,-1.009c-0.533,0 -0.99,-0.038 -1.523,-0.038Z" style="fill:#7d7e82;fill-rule:nonzero;"/><path d="M158.294,111.033c1.714,0 2.704,0.934 2.704,3.027c-0.038,2.654 -1.942,7.701 -1.942,11.739c0,0.747 0.266,1.271 0.457,1.608c0.342,-0.113 1.142,-0.561 1.866,-1.309c1.219,-1.233 1.866,-1.869 2.285,-1.869c0.152,0 0.229,0.075 0.229,0.299c0,2.691 -4.038,6.803 -6.78,6.803c-2.094,0 -3.389,-1.27 -3.389,-3.924c0,-1.047 0.114,-3.178 0.761,-5.495c0.686,-2.356 0.953,-4.151 0.991,-5.235c0,-0.448 -0.153,-1.159 -0.61,-1.159c-1.676,0 -5.256,5.533 -8.76,13.758c-0.571,1.346 -1.18,2.018 -3.161,2.018c-0.723,0 -1.714,-0.112 -2.932,-0.298c2.894,-7.44 4.684,-15.74 5.789,-24.225c0,-0.149 0.038,-0.262 0.038,-0.374c0,-0.599 -0.152,-1.084 -0.457,-1.72c1.561,-0.86 2.894,-1.196 4.113,-1.196c1.105,0 1.904,0.598 1.904,1.757c0,0.112 0,0.224 -0.038,0.337c-0.076,0.934 -1.18,7.102 -2.932,13.869c2.513,-4.449 6.398,-8.411 9.864,-8.411Z" style="fill:#7d7e82;fill-rule:nonzero;"/><path d="M169.068,122.135c0.648,-1.383 1.79,-1.869 3.2,-2.616c2.437,-1.309 3.123,-2.543 3.503,-3.851c0.381,-1.308 -0.076,-2.43 -1.447,-2.43c-2.056,0 -3.77,2.58 -4.875,7.216c0,0 -0.152,0.634 -0.381,1.681ZM179.504,125.276c0.533,0.934 0.457,2.094 -0.229,2.953c-0.647,0.785 -1.599,1.495 -2.856,2.018c-1.904,0.861 -3.885,1.273 -6.018,1.273c-4.456,0 -7.007,-1.908 -7.198,-5.758c-0.19,-3.85 1.181,-7.627 3.809,-10.431c2.551,-2.99 5.827,-4.598 9.217,-4.598c3.199,0 4.722,1.347 4.684,3.889c0,2.542 -3.351,5.793 -8.493,7.588c-1.219,0.412 -3.694,1.496 -3.732,2.467c-0.039,0.898 0.076,1.683 0.418,2.169c0.838,1.196 2.209,1.906 3.657,1.72c2.704,-0.262 4.76,-1.421 6.741,-3.29Z" style="fill:#7d7e82;fill-rule:nonzero;"/><path d="M198.162,107.743c0.952,0 2.019,-0.299 3.047,-0.898c0.419,-1.047 0.647,-1.869 0.647,-2.467c0,-1.234 -0.914,-1.907 -2.361,-1.907c-0.876,0 -1.866,0.3 -2.856,0.785c0,0.673 -0.457,1.309 -0.457,2.767c0,1.308 0.99,1.72 1.98,1.72ZM189.936,107.743c0.952,0 2.018,-0.299 3.046,-0.898c0.419,-1.047 0.648,-1.869 0.648,-2.467c0,-1.234 -0.914,-1.907 -2.361,-1.907c-0.876,0 -1.867,0.3 -2.857,0.785c0,0.673 -0.457,1.309 -0.457,2.767c0,1.308 0.99,1.72 1.981,1.72ZM202.313,112.864c0,0.785 -0.19,1.719 -0.495,2.804c-1.028,3.663 -2.247,7.328 -2.247,9.982c0,0.747 0.229,1.27 0.419,1.607c1.067,-0.224 3.733,-3.215 4.152,-3.215c0.152,0 0.228,0.112 0.228,0.336c0,2.692 -4.037,6.804 -6.779,6.804c-2.133,0 -3.39,-1.309 -3.39,-4c0,-1.009 0.153,-1.869 0.343,-2.878c-2.933,4.71 -5.789,7.216 -8.874,7.216c-2.818,0 -3.314,-1.944 -3.314,-3.852c0,-2.916 2.743,-11.327 2.743,-14.13c0,-0.636 -0.077,-1.347 -0.381,-1.908c1.371,-0.523 2.742,-0.785 3.732,-0.785c1.752,0 2.209,0.935 2.209,2.057c0,0.747 -0.228,1.607 -0.381,2.28c-1.218,5.233 -2.475,9.533 -2.475,11.364c0,0.487 0.152,0.973 0.723,0.973c1.067,0 3.428,-2.58 5.523,-6.281c1.942,-3.477 2.932,-6.579 2.932,-8.598c0,-0.411 -0.076,-0.897 -0.266,-1.271c0.99,-0.336 2.323,-0.524 3.275,-0.524c1.219,0.075 2.323,0.486 2.323,2.019Z" style="fill:#7d7e82;fill-rule:nonzero;"/><path d="M212.516,114.845c0,0.748 0.38,1.421 0.99,2.169c1.638,1.943 3.313,3.701 3.313,6.43c0,4.486 -4.189,7.964 -8.798,7.964c-2.627,0 -5.636,-1.684 -5.636,-4.6c0,-1.27 0.838,-2.056 1.523,-2.43c0.876,2.319 2.362,4.374 4.647,4.487c1.79,0 2.932,-0.972 2.932,-2.992c0,-1.756 -1.599,-2.99 -3.047,-4.597c-0.99,-1.159 -1.523,-2.617 -1.523,-4.075c0,-4.823 4.951,-6.916 9.331,-6.916c1.371,0 1.942,0.261 2.171,1.122c0,0.747 -0.343,1.42 -1.485,2.205c-0.762,-0.748 -1.524,-1.084 -2.209,-1.084c-1.524,0 -2.209,0.859 -2.209,2.317Z" style="fill:#7d7e82;fill-rule:nonzero;"/><path d="M34.632,138.33c-1.244,0 -2.877,0.194 -3.577,0.408l0,11.256l2.158,0c3.383,0 5.327,-1.964 5.327,-6.007c0,-4.724 -1.905,-5.657 -3.908,-5.657ZM33.213,151.607l-4.082,0l0,-14.269c0.874,-0.136 3.577,-0.583 5.929,-0.583c4.472,0 5.521,3.402 5.521,7.367c0,4.861 -2.566,7.485 -7.368,7.485Z" style="fill:#78c255;fill-rule:nonzero;"/><path d="M45.581,139.477l-0.662,-1.031l4.316,-1.419l0.681,1.516l-4.335,0.934ZM47.777,141.77c-1.749,0 -3.052,1.73 -3.052,3.675c1.75,0 3.693,0 5.269,-0.817c0.018,-1.381 -0.467,-2.858 -2.217,-2.858ZM51.957,150.479c-1.594,1.186 -2.819,1.361 -4.452,1.361c-3.188,0 -4.724,-2.041 -4.724,-5.754c0,-3.304 2.003,-5.851 5.133,-5.851c2.954,0 3.984,2.099 3.984,5.306c-2.118,1.225 -4.977,1.323 -7.114,1.323c0,2.021 1.069,3.421 2.954,3.421c1.516,0 2.411,-0.486 3.422,-1.166c0.447,-0.292 0.544,-0.214 0.777,0.097l0.369,0.486c0.156,0.194 0.098,0.427 -0.349,0.777Z" style="fill:#78c255;fill-rule:nonzero;"/><path d="M60.28,151.004c-0.136,0.195 -0.292,0.487 -0.642,0.525l-1.166,0.117c-0.194,0.019 -0.583,0.059 -0.778,-0.467l-3.868,-10.264c-0.097,-0.252 0.135,-0.564 0.369,-0.584l0.973,-0.096c0.583,0 0.699,0.253 0.796,0.524l3.111,9.429c1.963,-3.85 3.226,-8.418 3.226,-9.429c0,-0.291 0.312,-0.563 0.681,-0.524l0.972,0.077c0.253,0.019 0.388,0.233 0.388,0.525c0,1.886 -2.896,8.515 -4.062,10.167Z" style="fill:#78c255;fill-rule:nonzero;"/><path d="M70.993,141.77c-1.749,0 -3.052,1.73 -3.052,3.675c1.75,0 3.849,-0.117 5.269,-0.817c0,-1.381 -0.448,-2.858 -2.217,-2.858ZM75.172,150.479c-1.593,1.186 -2.818,1.361 -4.451,1.361c-3.188,0 -4.724,-2.041 -4.724,-5.754c0,-3.304 2.003,-5.851 5.132,-5.851c2.955,0 3.985,1.827 3.985,5.404c-1.613,0.738 -4.141,1.244 -6.61,1.244c-0.155,0 -0.291,0 -0.504,-0.019c0,2.021 1.069,3.421 2.954,3.421c1.516,0 2.411,-0.486 3.422,-1.166c0.194,-0.136 0.349,-0.195 0.447,-0.195c0.116,0 0.214,0.078 0.349,0.253l0.37,0.486l0.078,0.213c0,0.157 -0.117,0.371 -0.448,0.603Z" style="fill:#78c255;fill-rule:nonzero;"/><path d="M79.336,151.607l-0.991,0c-0.253,0 -0.486,-0.234 -0.486,-0.506l0,-13.549c0,-0.292 0.233,-0.525 0.486,-0.525l0.991,0c0.253,0 0.467,0.233 0.467,0.525l0,13.549c0,0.272 -0.214,0.506 -0.467,0.506Z" style="fill:#78c255;fill-rule:nonzero;"/><path d="M87.462,141.77c-2.468,0 -3.012,2.197 -3.09,4.219c-0.059,1.827 0.505,4.296 2.741,4.296c2.547,0 3.13,-2.099 3.188,-4.121c0.058,-1.828 -0.603,-4.394 -2.839,-4.394ZM87.113,151.84c-3.441,0 -4.743,-2.586 -4.743,-5.793c0,-3.208 1.613,-5.812 5.073,-5.812c3.577,0 4.86,2.604 4.86,5.812c0,3.207 -1.593,5.793 -5.19,5.793Z" style="fill:#78c255;fill-rule:nonzero;"/><path d="M99.908,141.77c-1.109,0 -2.683,0.953 -3.713,1.925c0.077,0.388 0.116,0.759 0.116,1.128l0,4.082c0,0.388 -0.039,0.758 -0.116,1.146l1.594,0c2.469,0 4.005,-2.312 4.005,-5.034c0,-2.722 -0.797,-3.247 -1.886,-3.247ZM97.614,151.607l-1.419,0c0.077,0.389 0.116,0.777 0.116,1.146l0,2.742c0,0.292 -0.233,0.505 -0.467,0.505l-1.01,0c-0.234,0 -0.466,-0.213 -0.466,-0.505l0,-14.755c0,-0.291 0.232,-0.505 0.466,-0.505l1.01,0c0.234,0 0.467,0.214 0.467,0.505l0,1.167c1.536,-1.167 2.8,-1.672 4.025,-1.672c2.818,0 3.44,2.294 3.44,4.743c0,3.693 -2.099,6.629 -6.162,6.629Z" style="fill:#78c255;fill-rule:nonzero;"/><path d="M111.555,141.77c-1.109,0 -2.683,0.953 -3.713,1.925c0.077,0.388 0.116,0.759 0.116,1.128l0,4.082c0,0.388 -0.039,0.758 -0.116,1.146l1.594,0c2.468,0 4.004,-2.312 4.004,-5.034c0,-2.722 -0.796,-3.247 -1.885,-3.247ZM109.261,151.607l-1.419,0c0.077,0.389 0.116,0.777 0.116,1.146l0,2.742c0,0.292 -0.233,0.505 -0.467,0.505l-1.011,0c-0.233,0 -0.465,-0.213 -0.465,-0.505l0,-14.755c0,-0.291 0.232,-0.505 0.465,-0.505l1.011,0c0.234,0 0.467,0.214 0.467,0.505l0,1.167c1.536,-1.167 2.8,-1.672 4.024,-1.672c2.819,0 3.441,2.294 3.441,4.743c0,3.693 -2.1,6.629 -6.162,6.629Z" style="fill:#78c255;fill-rule:nonzero;"/><path d="M122.502,141.77c-1.749,0 -3.052,1.73 -3.052,3.675c1.75,0 3.849,-0.117 5.269,-0.817c0,-1.381 -0.448,-2.858 -2.217,-2.858ZM126.682,150.479c-1.594,1.186 -2.819,1.361 -4.452,1.361c-3.188,0 -4.724,-2.041 -4.724,-5.754c0,-3.304 2.003,-5.851 5.133,-5.851c2.954,0 3.984,1.827 3.984,5.404c-1.613,0.738 -4.141,1.244 -6.609,1.244c-0.156,0 -0.291,0 -0.505,-0.019c0,2.021 1.069,3.421 2.954,3.421c1.516,0 2.411,-0.486 3.422,-1.166c0.194,-0.136 0.349,-0.195 0.447,-0.195c0.116,0 0.214,0.078 0.35,0.253l0.369,0.486l0.078,0.213c0,0.157 -0.116,0.371 -0.447,0.603Z" style="fill:#78c255;fill-rule:nonzero;"/><path d="M143.578,151.607l-0.932,0c-0.253,0 -0.467,-0.234 -0.467,-0.506l0,-8.476c0,-0.602 -0.195,-0.855 -0.758,-0.855c-0.681,0 -2.372,1.128 -3.772,2.508l0,6.823c0,0.272 -0.233,0.506 -0.486,0.506l-0.991,0c-0.253,0 -0.467,-0.234 -0.467,-0.506l0,-8.476c0,-0.504 -0.155,-0.855 -0.719,-0.855c-0.836,0 -2.76,1.381 -3.81,2.508l0,6.823c0,0.272 -0.234,0.506 -0.486,0.506l-0.992,0c-0.252,0 -0.467,-0.234 -0.467,-0.506l0,-10.128c0,-0.271 0.215,-0.505 0.467,-0.505l0.992,0c0.252,0 0.486,0.234 0.486,0.505l0,1.672c1.167,-1.244 2.78,-2.41 4.471,-2.41c1.031,0 1.555,0.233 2.002,1.127l0,1.283c1.439,-1.38 2.936,-2.41 4.471,-2.41c1.03,0 1.556,0.233 2.003,1.127l0,9.739c0,0.272 -0.292,0.506 -0.545,0.506Z" style="fill:#78c255;fill-rule:nonzero;"/><path d="M151.767,141.77c-1.749,0 -3.052,1.73 -3.052,3.675c1.75,0 3.848,-0.117 5.268,-0.817c0,-1.381 -0.447,-2.858 -2.216,-2.858ZM155.946,150.479c-1.593,1.186 -2.818,1.361 -4.451,1.361c-3.188,0 -4.724,-2.041 -4.724,-5.754c0,-3.304 2.002,-5.851 5.132,-5.851c2.954,0 3.985,1.827 3.985,5.404c-1.614,0.738 -4.141,1.244 -6.61,1.244c-0.155,0 -0.291,0 -0.505,-0.019c0,2.021 1.07,3.421 2.955,3.421c1.516,0 2.411,-0.486 3.421,-1.166c0.195,-0.136 0.35,-0.195 0.448,-0.195c0.116,0 0.214,0.078 0.349,0.253l0.369,0.486l0.079,0.213c0,0.157 -0.117,0.371 -0.448,0.603Z" style="fill:#78c255;fill-rule:nonzero;"/><path d="M166.894,151.607l-0.953,0c-0.233,0 -0.466,-0.234 -0.466,-0.506l0,-8.572c0,-0.506 -0.292,-0.759 -0.856,-0.759c-0.991,0 -3.13,1.497 -4.237,2.508l0,6.823c0,0.272 -0.234,0.506 -0.486,0.506l-0.992,0c-0.253,0 -0.466,-0.234 -0.466,-0.506l0,-10.361c0,-0.291 0.213,-0.505 0.466,-0.505l0.992,0c0.252,0 0.486,0.214 0.486,0.505l0,1.905c1.107,-1.107 3.032,-2.41 4.704,-2.41c1.05,0 1.905,0.31 2.333,1.205l0,9.661c0,0.272 -0.292,0.506 -0.525,0.506Z" style="fill:#78c255;fill-rule:nonzero;"/><path d="M177.472,150.285c-1.342,1.049 -2.528,1.555 -4.025,1.555c-1.03,0 -2.041,-0.7 -2.216,-1.438l0,-8.632l-1.574,0c-0.408,0 -0.584,-0.116 -0.428,-0.485l0.156,-0.37c0.116,-0.272 0.369,-0.37 0.836,-0.466l1.01,-0.214l0,-1.419c0,-0.642 0.234,-0.72 0.467,-0.817l0.933,-0.35c0.253,0 0.486,-0.058 0.486,0.506l0,2.08l3.616,0c0.33,0 0.427,0.077 0.427,0.253l-0.038,0.233l-0.233,0.641c-0.098,0.272 -0.234,0.408 -0.701,0.408l-3.071,0l0,7.329c0,0.739 0.136,1.186 0.895,1.186c0.738,0 1.866,-0.525 2.643,-1.147c0.195,-0.155 0.661,-0.428 0.817,-0.078l0.272,0.603c0.116,0.233 -0.039,0.427 -0.272,0.622Z" style="fill:#78c255;fill-rule:nonzero;"/></g><defs><linearGradient id="_Linear1" x1="0" y1="0" x2="1" y2="0" gradientUnits="userSpaceOnUse" gradientTransform="matrix(-2.80415e-06,-64.1514,64.1514,-2.80415e-06,113.563,65.7358)"><stop offset="0%" style="stop-color:#8ac97a;stop-opacity:1"/><stop offset="100%" style="stop-color:#b2dbb2;stop-opacity:1"/></linearGradient><linearGradient id="_Linear2" x1="0" y1="0" x2="1" y2="0" gradientUnits="userSpaceOnUse" gradientTransform="matrix(-2.80415e-06,-64.1514,64.1514,-2.80415e-06,113.563,65.7358)"><stop offset="0%" style="stop-color:#8ac97a;stop-opacity:1"/><stop offset="100%" style="stop-color:#b2dbb2;stop-opacity:1"/></linearGradient><linearGradient id="_Linear3" x1="0" y1="0" x2="1" y2="0" gradientUnits="userSpaceOnUse" gradientTransform="matrix(-2.80415e-06,-64.1514,64.1514,-2.80415e-06,113.563,65.7358)"><stop offset="0%" style="stop-color:#8ac97a;stop-opacity:1"/><stop offset="100%" style="stop-color:#b2dbb2;stop-opacity:1"/></linearGradient><linearGradient id="_Linear4" x1="0" y1="0" x2="1" y2="0" gradientUnits="userSpaceOnUse" gradientTransform="matrix(-2.80415e-06,-64.1514,64.1514,-2.80415e-06,113.563,65.7358)"><stop offset="0%" style="stop-color:#8b8b93;stop-opacity:1"/><stop offset="100%" style="stop-color:#b3bac1;stop-opacity:1"/></linearGradient></defs></svg>