<?xml version="1.0" standalone="no"?>
<!DOCTYPE svg PUBLIC "-//W3C//DTD SVG 1.1//EN" "http://www.w3.org/Graphics/SVG/1.1/DTD/svg11.dtd" >
<svg>
<metadata>
Created by FontForge 20110222 at Mon Mar  7 11:06:03 2011
 By www-data
(c) the.bend aka Dimitri Castrique 2009, www.thebend.be
</metadata>
<defs>
<font id="AndrogyneMedium" horiz-adv-x="697" >
  <font-face 
    font-family="Androgyne"
    font-weight="400"
    font-stretch="normal"
    units-per-em="1000"
    panose-1="5 8 0 0 0 0 3 5 0 0"
    ascent="800"
    descent="-200"
    x-height="543"
    cap-height="775"
    bbox="-154 -251 1222 1012"
    underline-thickness="50"
    underline-position="-50"
    unicode-range="U+0020-2122"
  />
    <missing-glyph />
    <glyph glyph-name="eth" unicode="&#xf0;" horiz-adv-x="544" 
d="M353 739c34 43 55 88 77 125c12 -13 21 -24 28 -34c7 -9 10 -19 10 -29c0 -37 -41 -74 -49 -87c99 -61 158 -157 158 -286c0 -204 -152 -438 -367 -438c-112 0 -164 56 -164 162c0 191 166 359 351 359c6 0 12 0 18 -1c-10 32 -28 112 -73 133c-18 -23 -65 -92 -81 -120
l-8 11c-16 23 -34 31 -34 48c0 15 14 38 53 85h-6c-42 0 -86 -18 -120 -26c8 93 59 110 126 110c25 0 52 -4 81 -12zM423 372c-15 43 -24 68 -58 68c-85 0 -170 -173 -170 -301c0 -49 20 -75 50 -75c94 0 166 160 178 308z" />
    <glyph glyph-name="Scaron" unicode="&#x160;" horiz-adv-x="577" 
d="M127 192c-2 -12 -1 -23 2 -35c16 -61 74 -96 144 -96c85 0 140 43 140 124c0 45 -23 80 -63 113c-78 65 -181 111 -181 226c0 158 141 262 298 262c82 0 154 -18 154 -78c0 -34 -35 -72 -66 -86c-32 51 -67 82 -134 82c-71 0 -118 -34 -118 -102c0 -61 34 -84 169 -188
c51 -46 83 -95 83 -166c0 -163 -171 -271 -326 -271c-85 0 -199 35 -199 107c0 40 39 91 97 108zM312 973c18 22 46 22 50 22c22 0 70 -33 112 -79c62 47 130 79 160 79c13 0 29 -3 29 -15c0 0 -43 -37 -79 -68c-63 -55 -118 -93 -148 -93c-9 0 -18 2 -24 6
c-15 42 -59 109 -100 148z" />
    <glyph glyph-name="scaron" unicode="&#x161;" horiz-adv-x="413" 
d="M329 498c-40 0 -58 -23 -58 -62c0 -20 10 -38 26 -58c43 -52 87 -99 87 -172c0 -120 -110 -213 -231 -213c-69 0 -148 45 -148 123c0 34 22 55 40 65c23 -62 62 -117 122 -120c47 0 77 26 77 80c0 47 -42 80 -80 123c-26 31 -40 70 -40 109c0 129 130 185 245 185
c36 0 51 -7 57 -30c0 -20 -9 -38 -39 -59c-20 20 -40 29 -58 29zM166 768c18 22 46 22 50 22c22 0 70 -33 112 -79c62 47 130 79 160 79c13 0 29 -3 29 -15c0 0 -43 -37 -79 -68c-63 -55 -118 -93 -148 -93c-9 0 -18 2 -24 6c-15 42 -59 109 -100 148z" />
    <glyph glyph-name="Yacute" unicode="&#xdd;" horiz-adv-x="617" 
d="M552 888c-41 -23 -109 -48 -171 -59c-3 -1 -6 -1 -10 -1c-9 0 -31 8 -31 18c0 4 2 7 6 10c17 11 37 24 58 39c34 27 66 58 87 90c4 6 6 11 9 15h15c23 0 42 -1 56 -7c27 -11 42 -28 42 -44c0 -3 -1 -7 -3 -10c-6 -18 -25 -35 -58 -51zM463 378c65 85 239 266 239 368
c0 39 -36 65 -107 65c-10 0 -19 0 -29 -2c2 -11 3 -23 3 -34c0 -21 -3 -42 -12 -61c-28 -61 -39 -75 -167 -282c-24 116 -49 226 -78 293c-17 41 -46 60 -84 60c-43 0 -87 -21 -131 -63c8 -3 15 -8 25 -12c53 -24 119 -185 152 -391c-13 -102 -102 -212 -102 -289
c0 -32 25 -46 63 -46s77 11 105 25c-6 16 -11 38 -11 54c0 67 65 222 134 315z" />
    <glyph glyph-name="yacute" unicode="&#xfd;" horiz-adv-x="510" 
d="M474 672c-41 -23 -109 -48 -171 -59c-3 -1 -6 -1 -10 -1c-9 0 -31 8 -31 18c0 4 2 7 6 10c17 11 37 24 58 39c34 27 66 58 87 90c4 6 6 11 9 15h15c23 0 42 -1 56 -7c27 -11 42 -28 42 -44c0 -3 -1 -7 -3 -10c-6 -18 -25 -35 -58 -51zM-76 -163c-1 3 -1 7 -1 11
c0 19 8 44 18 65c9 -8 34 -16 50 -16c62 0 123 51 169 117c7 10 9 27 9 46c0 17 -2 35 -4 50c-28 227 -63 368 -99 396c40 24 78 37 113 37c37 0 62 -26 70 -82c15 -102 28 -226 35 -325c99 140 169 275 169 347c0 18 -11 51 -23 64c12 2 29 3 37 3c73 0 105 -22 105 -68
c0 -63 -104 -238 -263 -447c-147 -195 -235 -246 -309 -246c-43 0 -70 16 -76 48z" />
    <glyph glyph-name="Zcaron" unicode="&#x17d;" horiz-adv-x="658" 
d="M194 93c71 -2 143 -3 215 -3h72c51 0 103 11 147 48c1 -13 1 -26 1 -37c0 -70 -33 -108 -99 -112c-21 -1 -42 -2 -62 -2c-78 0 -152 8 -229 12c-13 1 -26 1 -38 1c-58 0 -103 -6 -149 -16c-18 8 -29 28 -34 47c-5 18 -2 33 10 49c15 20 437 513 498 593
c-53 -1 -106 -2 -159 -2c-25 0 -76 -4 -101 -4c-59 0 -99 35 -101 110c0 6 1 11 2 16c42 -7 83 -24 162 -24c131 0 262 8 392 25c4 -14 7 -29 7 -43c0 -41 -37 -82 -94 -145c-19 -21 -423 -493 -440 -513zM332 975c18 22 46 22 50 22c22 0 70 -33 112 -79
c62 47 130 79 160 79c13 0 29 -3 29 -15c0 0 -43 -37 -79 -68c-63 -55 -118 -93 -148 -93c-9 0 -18 2 -24 6c-15 42 -59 109 -100 148z" />
    <glyph glyph-name="zcaron" unicode="&#x17e;" horiz-adv-x="465" 
d="M541 -5c-22 -21 -46 -30 -75 -30c-39 0 -98 18 -143 49c-48 33 -111 66 -164 67c39 53 100 107 157 171c21 23 147 168 169 194c16 19 24 42 24 65c0 9 -1 17 -3 25c-60 -12 -105 -18 -177 -18c-79 0 -136 10 -169 30c-23 -30 -46 -70 -46 -92c0 -28 27 -51 94 -51
c22 0 58 1 108 5c-103 -133 -205 -241 -266 -309c-21 -23 -33 -54 -33 -85c0 -12 2 -24 5 -35c19 3 38 5 58 5c41 0 82 -9 120 -25c76 -33 147 -121 227 -121c65 0 120 51 120 119c0 12 -2 24 -6 36zM199 768c18 22 46 22 50 22c22 0 70 -33 112 -79c62 47 130 79 160 79
c13 0 29 -3 29 -15c0 0 -43 -37 -79 -68c-63 -55 -118 -93 -148 -93c-9 0 -18 2 -24 6c-15 42 -59 109 -100 148z" />
    <glyph glyph-name="onehalf" unicode="&#xbd;" horiz-adv-x="875" 
d="M849 772c-57 -40 -167 -174 -288 -335c-124 -163 -224 -308 -270 -387c-16 -28 -28 -50 -45 -63c-39 7 -63 19 -72 36c9 32 87 149 204 309c12 17 256 344 271 363c44 55 76 84 127 84c26 0 50 -2 73 -7zM267 330c-14 6 -31 8 -48 7h-56c-12 1 -32 -1 -50 -1
c-30 0 -51 13 -53 35v1c0 17 4 28 12 40l3 5l7 -1c10 0 27 -5 38 -5c10 0 16 -3 20 14c9 39 57 240 65 278c-24 -5 -51 -15 -65 -15c-15 0 -25 10 -25 33c0 18 2 31 9 46l2 7h7c23 0 103 1 150 18l6 3l5 -6c12 -14 18 -27 18 -40c0 -6 -1 -11 -3 -17
c-5 -22 -69 -296 -75 -322c4 0 7 1 12 1c29 0 49 -16 49 -39c0 -9 -5 -21 -15 -39l-5 -8zM802 101c15 0 15 -18 15 -26c0 -48 -10 -75 -63 -75c-25 0 -66 3 -107 3c-38 0 -73 -4 -93 -4h-1c-8 0 -16 0 -22 5v1c-10 10 -11 39 -11 39c0 5 0 11 4 17l2 2c54 45 112 93 156 150
c46 59 70 104 70 138c0 19 -18 35 -39 35c-28 0 -54 -14 -71 -39v-1l-2 -2c-6 -5 -12 -12 -22 -15l-7 -2l-4 7c-7 11 -14 25 -14 42c0 53 74 84 147 84c72 0 115 -35 115 -97c0 -52 -33 -112 -110 -194c-10 -10 -58 -61 -86 -85c11 -1 20 -1 29 -1c69 0 98 18 114 18z" />
    <glyph glyph-name="onequarter" unicode="&#xbc;" horiz-adv-x="881" 
d="M817 201c21 1 28 -13 28 -25c0 -14 -15 -42 -28 -56l-4 -5l-6 2c-13 4 -26 6 -40 7l-1 -4c-8 -37 -12 -60 -12 -74c0 -8 1 -15 5 -23l4 -9l-9 -4c-11 -5 -34 -14 -55 -14c-27 0 -42 12 -42 37c0 20 10 60 17 92c-56 0 -113 -7 -133 -7c-18 0 -28 14 -28 43
c0 47 99 149 127 178c42 44 89 89 142 120l5 1c30 0 48 -14 48 -29c0 -13 -6 -39 -9 -56v-1c-10 -45 -27 -113 -43 -175c20 0 24 2 34 2zM694 197c11 52 32 114 42 157c-56 -44 -125 -109 -161 -162c28 2 77 3 119 5zM266 330c-12 5 -25 7 -40 7h-8h-56h-8
c-11 0 -27 -1 -42 -1c-29 0 -50 13 -52 35v1c0 17 3 28 11 40l3 5l7 -1c14 0 38 -5 46 -5c6 0 10 2 13 14c8 39 56 240 64 278c-23 -5 -50 -15 -64 -15c-15 0 -25 10 -25 33c0 18 1 31 8 46l3 7h7c22 0 102 1 150 18l5 3l6 -6c11 -14 18 -27 18 -40c0 -6 -1 -11 -4 -17
c-4 -22 -69 -296 -74 -322c4 0 7 1 11 1c29 0 49 -16 49 -39c0 -9 -4 -21 -14 -39l-6 -8zM848 772c-57 -40 -166 -174 -288 -335c-123 -163 -223 -308 -269 -387c-16 -28 -28 -50 -46 -63c-38 7 -63 19 -71 36c15 59 197 296 474 672c45 55 77 84 128 84c26 0 50 -2 72 -7z
" />
    <glyph glyph-name="onesuperior" unicode="&#xb9;" horiz-adv-x="433" 
d="M337 330c-14 6 -31 8 -48 7h-56c-12 1 -32 -1 -50 -1c-30 0 -51 13 -53 35v1c0 17 4 28 12 40l3 5l7 -1c10 0 27 -5 38 -5c10 0 16 -3 20 14c9 39 57 240 65 278c-24 -5 -51 -15 -65 -15c-15 0 -25 10 -25 33c0 18 2 31 9 46l2 7h7c23 0 103 1 150 18l6 3l5 -6
c12 -14 18 -27 18 -40c0 -6 -1 -11 -3 -17c-5 -22 -69 -296 -75 -322c4 0 7 1 12 1c29 0 49 -16 49 -39c0 -9 -5 -21 -15 -39l-5 -8z" />
    <glyph glyph-name="threequarters" unicode="&#xbe;" horiz-adv-x="885" 
d="M817 201c21 1 28 -13 28 -25c0 -14 -15 -42 -28 -56l-4 -5l-6 2c-13 4 -26 6 -40 7l-1 -4c-8 -37 -12 -60 -12 -74c0 -8 1 -15 5 -23l4 -9l-9 -4c-11 -5 -34 -14 -55 -14c-27 0 -42 12 -42 37c0 20 10 60 17 92c-56 0 -113 -7 -133 -7c-18 0 -28 14 -28 43
c0 47 99 149 127 178c42 44 89 89 142 120l5 1c30 0 48 -14 48 -29c0 -13 -6 -39 -9 -56v-1c-10 -45 -27 -113 -43 -175c20 0 24 2 34 2zM694 197c11 52 32 114 42 157c-56 -44 -125 -109 -161 -162c28 2 77 3 119 5zM848 772c-57 -40 -166 -174 -288 -335
c-123 -163 -223 -308 -269 -387c-16 -28 -28 -50 -46 -63c-38 7 -63 19 -71 36c15 59 197 296 474 672c45 55 77 84 128 84c26 0 50 -2 72 -7zM160 321c107 0 195 73 195 164c0 45 -24 76 -60 90c60 34 88 68 88 119c0 42 -21 92 -122 92c-75 0 -124 -29 -124 -72
c0 -14 12 -29 22 -41l12 -15l7 14c13 27 40 44 70 44c17 0 38 -7 38 -38c0 -43 -55 -66 -96 -80l-3 -1c-29 -8 -63 -19 -63 -50c0 -8 2 -17 6 -26l3 -8l8 2c22 6 45 8 68 8c28 0 44 -27 44 -52c0 -46 -38 -81 -89 -81c-30 0 -55 16 -73 39l-9 12l-8 -13
c-10 -17 -17 -39 -17 -56c0 -24 19 -51 103 -51z" />
    <glyph glyph-name="threesuperior" unicode="&#xb3;" horiz-adv-x="430" 
d="M210 321c107 0 195 73 195 164c0 45 -24 76 -60 90c60 34 88 68 88 119c0 42 -21 92 -122 92c-75 0 -124 -29 -124 -72c0 -14 12 -29 22 -41l12 -15l7 14c13 27 40 44 70 44c17 0 38 -7 38 -38c0 -43 -55 -66 -96 -80l-3 -1c-29 -8 -63 -19 -63 -50c0 -8 2 -17 6 -26
l3 -8l8 2c22 6 45 8 68 8c28 0 44 -27 44 -52c0 -46 -38 -81 -89 -81c-30 0 -55 16 -73 39l-9 12l-8 -13c-10 -17 -17 -39 -17 -56c0 -24 19 -51 103 -51z" />
    <glyph glyph-name="twosuperior" unicode="&#xb2;" horiz-adv-x="446" 
d="M393 433c15 0 15 -18 15 -26c0 -48 -10 -75 -63 -75c-25 0 -66 3 -107 3c-38 0 -73 -4 -93 -4h-1c-8 0 -16 0 -22 5v1c-10 10 -11 39 -11 39c0 5 0 11 4 17l2 2c54 45 112 93 156 150c46 59 70 104 70 138c0 19 -18 35 -39 35c-28 0 -54 -14 -71 -39v-1l-2 -2
c-6 -5 -12 -12 -22 -15l-7 -2l-4 7c-7 11 -14 25 -14 42c0 53 74 84 147 84c72 0 115 -35 115 -97c0 -52 -33 -112 -110 -194c-10 -10 -58 -61 -86 -85c11 -1 20 -1 29 -1c69 0 98 18 114 18z" />
    <glyph glyph-name="brokenbar" unicode="&#xa6;" horiz-adv-x="289" 
d="M339 744c-5 -28 -18 -89 -38 -162c-16 -62 -27 -112 -31 -144c-1 -5 -1 -11 -1 -17v-8c-10 -2 -20 -3 -29 -3c-29 0 -53 10 -76 25c1 3 2 5 3 8c5 31 15 78 31 141c17 64 28 120 37 168c0 4 0 10 -2 17c8 1 16 2 24 2c32 0 57 -11 82 -27zM223 258
c-3 -27 -16 -79 -34 -146c-17 -68 -30 -124 -35 -159c-1 -8 -1 -16 -1 -26c-10 -2 -19 -3 -28 -3c-30 0 -54 10 -77 25c7 32 17 80 34 148c17 63 28 120 37 169c0 5 0 10 -2 16c9 2 18 2 26 2c32 0 55 -10 80 -26z" />
    <glyph glyph-name="multiply" unicode="&#xd7;" horiz-adv-x="583" 
d="M547 397c-19 -32 -99 -101 -158 -141c45 -72 86 -126 122 -161c-37 -29 -66 -41 -88 -41c-34 0 -95 111 -116 146c-72 -52 -129 -104 -173 -157c-36 30 -53 56 -53 76c0 33 132 129 178 161c-36 49 -66 101 -119 131c31 43 55 57 81 57c38 0 94 -99 117 -133
c72 56 127 106 165 148c33 -31 48 -50 48 -68c0 -6 -1 -12 -4 -18z" />
    <glyph glyph-name="space" unicode=" " horiz-adv-x="274" 
 />
    <glyph glyph-name="exclam" unicode="!" horiz-adv-x="339" 
d="M374 721c0 -28 -7 -54 -14 -80c-67 -269 -99 -387 -99 -418c0 -9 1 -17 3 -25c-11 -1 -22 -2 -32 -2c-54 0 -79 15 -83 43c0 20 1 39 7 69c23 108 61 285 67 372c2 26 0 51 -6 77c33 12 65 21 92 21c42 0 65 -16 65 -57zM249 69c0 -10 -5 -29 -13 -58
c-28 -19 -59 -28 -88 -28c-36 0 -53 19 -53 45c0 29 10 48 10 64c0 4 0 8 -1 13c27 13 54 21 78 21c43 0 67 -21 67 -57z" />
    <glyph glyph-name="quotedbl" unicode="&#x22;" horiz-adv-x="390" 
d="M269 770c22 0 32 -10 32 -24c0 -4 0 -7 -1 -11c-3 -18 -15 -47 -33 -85c-38 -83 -42 -118 -83 -118c-31 0 -35 6 -35 26c0 27 29 138 29 176c0 4 -1 8 -3 13c29 15 61 23 94 23zM452 770c22 0 32 -10 32 -24c0 -4 0 -7 -1 -11c-3 -18 -15 -47 -33 -85
c-38 -83 -42 -118 -83 -118c-31 0 -35 6 -35 26c0 27 29 138 29 176c0 4 -1 8 -3 13c29 15 62 23 94 23z" />
    <glyph glyph-name="numbersign" unicode="#" horiz-adv-x="644" 
d="M659 723c-20 -35 -48 -91 -84 -169h22c32 0 58 5 86 14c-12 -82 -56 -96 -141 -96c-20 -54 -43 -120 -66 -184h26c40 0 71 8 102 23c-19 -94 -70 -106 -155 -106c-25 -77 -43 -141 -43 -172c0 -12 1 -23 4 -33c-23 -7 -43 -11 -61 -11c-30 0 -42 10 -42 34
c0 36 22 101 51 183h-110c-36 -83 -56 -158 -56 -211c-19 -4 -36 -6 -51 -6c-31 0 -44 9 -44 31c0 7 2 10 2 20c11 42 31 97 60 166h-21c-35 0 -66 -5 -89 -16c19 75 17 99 144 99c25 65 50 132 71 183h-25c-44 0 -81 -5 -107 -15c23 91 48 98 165 98c28 71 45 135 45 170
c0 7 -1 15 -3 22c21 4 41 6 58 6c24 0 39 -9 39 -33c0 -36 -28 -105 -53 -166h102c33 87 58 154 70 178c20 11 42 17 64 17c17 0 34 -5 40 -26zM455 472h-105c-24 -63 -48 -130 -69 -184h105c12 36 36 103 69 184z" />
    <glyph glyph-name="dollar" unicode="$" horiz-adv-x="566" 
d="M542 608c-39 45 -50 73 -110 79c-14 -79 -31 -163 -46 -250c87 -60 159 -117 159 -203c0 -131 -113 -225 -256 -235c-2 -18 -4 -32 -4 -46c0 -3 1 -10 4 -18c-15 -12 -28 -16 -39 -16s-32 3 -40 11c2 16 5 38 10 68c-79 4 -184 43 -184 119c0 37 29 81 75 107
c-2 -37 34 -127 125 -144c15 83 32 175 49 269c-82 52 -140 108 -140 185c0 125 95 216 232 231c2 13 2 24 3 35c0 12 0 22 -2 32c6 7 21 11 47 11c18 0 26 -18 26 -36c0 -11 -3 -24 -5 -39c60 -4 149 -18 149 -79c0 -28 -32 -63 -53 -81zM267 576c0 -38 21 -70 60 -95
c13 71 26 142 37 207c-57 -8 -97 -49 -97 -112zM420 194c0 43 -30 79 -76 114c-14 -79 -28 -159 -41 -231c75 9 117 48 117 117z" />
    <glyph glyph-name="percent" unicode="%" horiz-adv-x="876" 
d="M744 417c81 0 118 -52 118 -145c0 -144 -98 -280 -241 -280c-90 0 -130 45 -130 127c0 148 110 298 253 298zM652 65c71 0 109 117 109 187c0 37 -10 90 -50 90c-68 0 -117 -123 -117 -202c0 -40 16 -75 58 -75zM272 -15c60 132 163 266 254 392c95 132 194 260 298 385
c-15 22 -34 32 -53 32c-10 0 -28 -6 -52 -19c-66 -35 -144 -44 -188 -44c-67 0 -113 26 -147 68c-32 -29 -47 -56 -47 -81c0 -17 14 -31 40 -45c2 -14 2 -29 2 -44c0 -78 -38 -199 -109 -199c-40 0 -55 30 -55 78c0 70 28 156 85 191c-13 29 -33 30 -51 30
c-85 0 -136 -154 -136 -231c0 -88 39 -143 130 -143c137 0 235 143 235 276c0 2 0 6 -1 14c12 -4 24 -5 38 -5c46 0 92 18 144 40c-15 -22 -299 -397 -336 -446c-67 -89 -124 -159 -130 -209c0 -22 22 -34 79 -40z" />
    <glyph glyph-name="ampersand" unicode="&#x26;" horiz-adv-x="524" 
d="M598 163c9 4 27 21 23 9c-17 -47 -59 -61 -88 -72c-26 -8 -100 7 -136 35c-55 -66 -121 -122 -199 -150c-29 -10 -53 -15 -73 -15c-48 0 -73 28 -73 84c0 80 55 163 149 242c-21 18 -34 46 -34 81c0 93 80 174 175 206c14 5 26 7 36 7c13 0 22 -3 30 -8
c13 -7 21 -18 22 -35c10 -58 -57 -151 -130 -216c34 -37 74 -71 118 -100c28 50 53 114 53 160c-3 42 -28 33 -28 37c0 11 42 32 56 36c36 13 46 -4 46 -28c0 -15 -4 -33 -7 -48c-8 -58 -46 -129 -84 -181c21 -11 95 -64 144 -44zM325 530c-40 -13 -66 -56 -66 -107
c0 -26 6 -46 20 -61c59 57 92 117 91 151c-1 21 -22 25 -45 17zM237 61c52 17 90 54 122 95c-42 26 -90 62 -132 113c-43 -48 -67 -102 -67 -150c0 -40 14 -64 46 -64c9 0 19 2 31 6z" />
    <glyph glyph-name="quotesingle" unicode="'" horiz-adv-x="225" 
d="M274 772c23 0 34 -11 35 -26c0 -4 0 -7 -1 -12c-3 -19 -15 -49 -33 -90c-38 -88 -41 -125 -84 -125c-33 0 -38 6 -38 28c-1 29 27 146 26 186c0 5 -2 9 -4 14c30 16 64 25 99 25z" />
    <glyph glyph-name="parenleft" unicode="(" horiz-adv-x="401" 
d="M484 752c-75 -37 -136 -103 -183 -192c-51 -97 -80 -206 -84 -313c0 -156 39 -253 119 -280c-28 -36 -57 -54 -88 -54c-107 0 -161 150 -161 300c0 141 47 291 133 410c78 101 158 156 211 156c19 0 40 -9 53 -27z" />
    <glyph glyph-name="parenright" unicode=")" horiz-adv-x="384" 
d="M389 481c0 -141 -47 -291 -132 -410c-79 -101 -157 -156 -212 -156c-18 0 -39 9 -52 27c79 43 145 120 193 219c48 98 74 206 74 310c0 145 -43 233 -120 256c28 36 57 54 88 54c111 0 161 -159 161 -300z" />
    <glyph glyph-name="asterisk" unicode="*" horiz-adv-x="498" 
d="M349 559c21 -1 38 -12 38 -34c0 -20 -5 -34 -17 -47c-2 -3 -5 -6 -9 -9c-21 5 -54 16 -89 23c21 -33 32 -58 37 -78c6 -20 0 -39 -21 -46c-19 -6 -34 -6 -50 1c-3 1 -7 3 -11 6c-1 21 -2 57 -5 91c-25 -30 -45 -47 -63 -59c-18 -11 -38 -11 -50 6c-12 16 -16 30 -15 48
c0 4 1 7 2 12c20 8 54 20 86 34c-36 14 -60 28 -76 41c-16 14 -23 32 -10 50c11 16 24 24 41 28c4 1 8 2 13 2c13 -16 34 -45 58 -71c2 39 8 65 15 85c8 20 24 32 45 25c18 -6 31 -15 39 -30c3 -3 4 -7 6 -12c-11 -18 -32 -46 -49 -77c37 10 64 12 85 11z" />
    <glyph glyph-name="plus" unicode="+" horiz-adv-x="541" 
d="M532 337c-5 -24 -11 -45 -19 -63c-14 -43 -89 -47 -172 -47c-14 -68 -24 -118 -24 -152c0 -12 1 -22 3 -31c-18 -4 -35 -7 -51 -7c-36 0 -60 7 -60 29c0 45 17 105 34 161h-43c-48 0 -91 -5 -125 -16c5 25 11 47 18 65c18 44 91 47 171 47c14 58 25 114 25 153
c0 9 -1 18 -2 26c17 4 34 7 48 7c46 0 59 -8 59 -32c0 -38 -20 -102 -32 -154h27c57 0 107 4 143 14z" />
    <glyph glyph-name="comma" unicode="," horiz-adv-x="297" 
d="M248 75c0 -46 -24 -93 -73 -138c-39 -36 -103 -79 -154 -79c-11 0 -39 10 -39 34c0 5 3 9 4 14c86 15 122 55 122 120c0 25 -14 50 -25 68c21 21 72 38 104 38c33 0 61 -11 61 -57z" />
    <glyph glyph-name="hyphen" unicode="-" horiz-adv-x="348" 
d="M364 367c4 -7 5 -15 3 -24c-24 -89 -63 -92 -144 -92h-29c-59 0 -99 -14 -114 -14c0 7 2 16 6 25c34 83 52 94 101 94c12 1 26 0 44 0h33c38 0 74 4 100 11z" />
    <glyph glyph-name="period" unicode="." horiz-adv-x="284" 
d="M229 78c0 -20 -7 -45 -18 -73c-26 -14 -55 -22 -80 -22c-34 0 -53 15 -56 40v15c5 28 11 50 11 63c0 4 0 8 -1 12c27 14 53 22 78 22c42 0 66 -21 66 -57z" />
    <glyph glyph-name="slash" unicode="/" horiz-adv-x="447" 
d="M584 775c-57 -54 -168 -228 -283 -438c-107 -202 -168 -345 -180 -413c-19 0 -44 -2 -66 -2c-34 0 -60 6 -47 42c10 36 85 179 190 375c98 184 178 320 223 380c36 40 60 60 116 60c13 0 29 -2 47 -4z" />
    <glyph glyph-name="zero" unicode="0" horiz-adv-x="608" 
d="M639 549c-4 -262 -144 -573 -388 -573c-138 0 -189 92 -189 224c0 265 149 586 388 586c145 0 189 -95 189 -237zM491 553c0 86 -20 150 -85 150c-110 0 -191 -242 -197 -497c0 -84 18 -151 81 -151c123 0 197 284 201 498z" />
    <glyph glyph-name="one" unicode="1" horiz-adv-x="509" 
d="M456 43c0 32 -33 53 -78 51c-11 -1 -23 -2 -37 -2c43 199 96 406 142 608c3 11 4 20 4 28c0 19 -10 40 -28 61c-82 -30 -215 -35 -279 -35c-10 -24 -15 -46 -15 -78c0 -33 15 -48 40 -40c36 12 88 24 130 31c-35 -159 -82 -360 -125 -533c-3 -13 -7 -25 -12 -37
c-12 -1 -27 -2 -42 -2c-22 0 -53 7 -72 10c-12 -19 -20 -36 -20 -63c4 -35 44 -48 79 -47c32 1 68 2 91 2h102c33 0 67 -1 96 -16c18 31 24 49 24 62z" />
    <glyph glyph-name="two" unicode="2" horiz-adv-x="608" 
d="M44 68c101 83 204 170 286 275c80 102 130 191 131 261c0 47 -42 83 -88 83c-54 0 -109 -28 -144 -79c-10 -10 -20 -21 -34 -25c-14 23 -23 44 -23 68c0 81 124 134 249 134c118 0 192 -51 192 -159c0 -62 -29 -126 -76 -194c-31 -46 -72 -95 -119 -145
c-24 -26 -166 -164 -186 -185c37 -1 68 -2 95 -2c28 0 51 1 73 2c75 5 118 31 135 31c7 0 8 -15 8 -29c0 -88 -18 -119 -96 -119c-43 0 -117 5 -195 5c-66 0 -130 -6 -169 -6c-12 0 -25 0 -29 4c-9 9 -14 42 -14 59c0 9 1 16 4 21z" />
    <glyph glyph-name="three" unicode="3" horiz-adv-x="580" 
d="M176 329c41 10 84 15 126 15c63 0 99 -57 99 -113c0 -91 -74 -165 -179 -165c-59 0 -115 29 -149 78c-18 -29 -29 -67 -29 -93c0 -50 54 -74 170 -74c170 0 337 110 337 280c0 45 -14 81 -39 108c-25 26 -60 45 -105 44c-1 0 -2 1 -2 2s1 1 2 2c59 30 108 56 142 93
c33 36 52 80 52 130c0 103 -75 149 -203 149c-114 0 -208 -38 -208 -112c0 -20 24 -48 40 -68c27 55 83 89 143 89c53 0 88 -29 88 -86c0 -88 -101 -134 -188 -163c-52 -15 -107 -29 -107 -77c0 -11 3 -24 10 -39z" />
    <glyph glyph-name="four" unicode="4" horiz-adv-x="617" 
d="M577 321c25 0 34 -12 34 -28c0 -19 -24 -65 -46 -89c-29 8 -60 13 -93 14c-17 -84 -27 -130 -27 -161c0 -20 5 -36 11 -49c-28 -13 -62 -24 -92 -24c-41 0 -58 15 -58 50c0 38 21 127 34 186c-110 0 -227 -14 -263 -14c-18 0 -33 11 -33 60c0 7 1 14 4 21
c30 74 122 188 221 291c77 80 160 160 254 215c43 0 69 -20 69 -36c0 -22 -9 -64 -15 -99c-20 -88 -56 -226 -84 -340c58 0 68 3 84 3zM362 316c24 101 60 213 82 301c-49 -42 -115 -105 -171 -162c-47 -47 -89 -96 -123 -146c53 2 133 4 212 7z" />
    <glyph glyph-name="five" unicode="5" horiz-adv-x="601" 
d="M277 376c36 0 71 -9 96 -33c26 -23 41 -57 41 -93c0 -122 -76 -187 -188 -187c-86 0 -127 41 -159 69c-14 -25 -23 -57 -23 -78c0 -59 71 -77 158 -77c203 0 362 127 362 308c0 131 -88 193 -209 193c-31 0 -63 -2 -86 -7c19 64 40 126 62 190c29 -4 64 -5 99 -5
c108 0 186 21 216 138c-11 2 -17 3 -41 -5c-48 -15 -135 -23 -169 -23c-53 0 -114 4 -172 11c-11 -36 -111 -359 -118 -387c-6 -17 18 -22 44 -22c21 0 44 3 56 5c8 3 23 3 31 3z" />
    <glyph glyph-name="six" unicode="6" horiz-adv-x="608" 
d="M614 716c0 -21 -1 -46 -8 -69c-16 14 -48 38 -97 38c-129 0 -231 -158 -272 -300c59 50 108 70 163 70c105 0 171 -55 171 -169c0 -176 -136 -309 -297 -309c-144 0 -207 83 -207 221c0 246 184 587 443 587c59 0 100 -18 104 -69zM435 239c0 77 -38 117 -105 117
c-35 0 -72 -16 -108 -43c-10 -42 -15 -81 -15 -116c0 -76 21 -137 99 -137c85 0 129 77 129 179z" />
    <glyph glyph-name="seven" unicode="7" horiz-adv-x="484" 
d="M626 784c9 -40 -9 -90 -28 -113c-72 -84 -143 -171 -216 -276c-105 -151 -179 -295 -179 -378c0 -10 0 -19 1 -27c-18 -7 -45 -13 -70 -13c-53 0 -85 18 -85 58c0 69 101 233 207 368c66 84 137 173 207 254c-100 -5 -267 -8 -286 -8c-32 0 -50 9 -50 26
c2 47 15 75 40 104c54 0 165 -8 290 -8c65 0 125 3 169 13z" />
    <glyph glyph-name="eight" unicode="8" horiz-adv-x="608" 
d="M630 648c0 -97 -65 -170 -180 -234c77 -56 117 -116 117 -184c0 -161 -148 -252 -304 -252c-138 0 -213 62 -213 172c0 104 90 188 213 254c-47 40 -82 95 -82 154c0 133 119 228 264 228c119 0 185 -48 185 -138zM495 629c0 51 -30 80 -78 80c-67 0 -105 -44 -105 -112
c0 -49 32 -96 77 -136c60 43 106 102 106 168zM434 188c0 57 -48 113 -113 169c-74 -53 -126 -117 -126 -199c0 -65 32 -103 97 -103c78 0 142 61 142 133z" />
    <glyph glyph-name="nine" unicode="9" horiz-adv-x="608" 
d="M627 552c-5 -251 -196 -574 -456 -574c-65 0 -103 23 -103 82c0 26 10 47 17 59c17 -14 41 -42 95 -42c129 0 238 162 278 303c-58 -54 -117 -73 -167 -73c-106 0 -168 60 -168 170c0 167 134 306 298 306c148 0 206 -76 206 -231zM486 565c0 79 -27 138 -103 138
c-85 0 -125 -79 -125 -180c0 -72 35 -114 99 -114c31 0 76 18 114 41c9 37 14 80 15 115z" />
    <glyph glyph-name="colon" unicode=":" horiz-adv-x="284" 
d="M235 78c0 -20 -7 -45 -18 -73c-26 -14 -55 -22 -80 -22c-34 0 -53 15 -56 40v15c5 28 11 50 11 63c0 4 0 8 -1 12c27 14 53 22 78 22c42 0 66 -21 66 -57zM309 474c0 -20 -7 -45 -18 -73c-26 -14 -55 -22 -80 -22c-34 0 -53 15 -56 40v15c5 28 11 50 11 63c0 4 0 8 -1 12
c27 14 53 22 78 22c42 0 66 -21 66 -57z" />
    <glyph glyph-name="semicolon" unicode=";" horiz-adv-x="297" 
d="M309 474c0 -20 -7 -45 -18 -73c-26 -14 -55 -22 -80 -22c-34 0 -53 15 -56 40v15c5 28 11 50 11 63c0 4 0 8 -1 12c27 14 53 22 78 22c42 0 66 -21 66 -57zM248 75c0 -46 -24 -93 -73 -138c-39 -36 -103 -79 -154 -79c-11 0 -39 10 -39 34c0 5 3 9 4 14
c86 15 122 55 122 120c0 25 -14 50 -25 68c21 21 72 38 104 38c33 0 61 -11 61 -57z" />
    <glyph glyph-name="less" unicode="&#x3c;" horiz-adv-x="421" 
d="M197 336c89 -67 154 -147 142 -233c-2 -12 -7 -24 -15 -31c-45 47 -147 134 -221 184c-36 24 -67 36 -67 102c10 8 22 16 36 22c102 41 231 126 325 210c11 10 24 20 35 28c11 -7 15 -27 14 -33c-16 -83 -116 -173 -249 -249z" />
    <glyph glyph-name="equal" unicode="=" horiz-adv-x="582" 
d="M524 240c-11 -63 -20 -88 -48 -97c-40 -8 -92 -13 -155 -13h-38c-13 0 -26 1 -39 1c-65 0 -119 -4 -161 -12c20 110 59 108 136 108h153c57 0 108 5 152 13zM556 424c-10 -63 -20 -88 -47 -97c-39 -8 -90 -13 -152 -13h-37c-13 0 -25 1 -38 1c-64 0 -117 -4 -158 -12
c20 110 58 108 133 108h150c56 0 106 5 149 13z" />
    <glyph glyph-name="greater" unicode="&#x3e;" horiz-adv-x="421" 
d="M287 354c-89 67 -154 147 -142 233c2 12 7 24 15 31c45 -47 147 -134 221 -184c36 -24 67 -36 67 -102c-10 -8 -22 -16 -36 -22c-102 -41 -231 -126 -325 -210c-11 -10 -24 -20 -35 -28c-11 7 -15 27 -14 33c16 83 116 173 249 249z" />
    <glyph glyph-name="question" unicode="?" horiz-adv-x="507" 
d="M383 786c115 0 193 -48 193 -166c0 -57 -24 -105 -64 -147c-80 -75 -212 -138 -212 -209c0 -14 7 -40 15 -56c-34 -23 -65 -32 -90 -32c-39 0 -60 45 -60 70c0 34 15 67 41 90c48 42 226 139 226 272c0 60 -38 88 -91 88c-50 0 -92 -35 -109 -81c-6 -8 -13 -16 -25 -19
c-26 19 -44 41 -44 66c0 79 120 124 220 124zM226 120c41 0 64 -20 64 -55c0 -9 -5 -27 -12 -55c-27 -18 -57 -27 -85 -27c-34 0 -50 18 -50 43c0 28 9 46 9 61c0 4 0 8 -1 13c26 12 52 20 75 20z" />
    <glyph glyph-name="at" unicode="@" horiz-adv-x="896" 
d="M625 -9c3 -8 4 -17 4 -26c0 -10 -2 -20 -6 -29c-20 -40 -139 -71 -247 -71c-190 0 -307 92 -307 279c0 289 264 522 543 522c185 0 314 -85 314 -267c0 -152 -110 -316 -266 -316c-64 0 -117 51 -119 115c-59 -83 -121 -127 -188 -127c-64 0 -84 43 -84 99
c0 126 124 292 250 292c27 0 57 -8 87 -28c13 15 34 22 59 22c13 0 32 -5 46 -10c-36 -64 -72 -183 -72 -237c0 -31 12 -54 41 -54c90 0 140 116 140 229c0 138 -92 205 -239 205c-220 0 -406 -202 -406 -432c0 -144 88 -216 232 -216c76 0 155 17 218 50zM577 376
c-13 20 -37 30 -53 30c-81 0 -150 -142 -150 -223c0 -25 7 -39 30 -39c53 0 135 130 173 232z" />
    <glyph glyph-name="A" unicode="A" horiz-adv-x="644" 
d="M124 3c-30 -11 -61 -17 -93 -17c-33 0 -51 12 -51 35c0 14 5 31 16 52c73 133 170 296 265 455c39 66 85 140 130 222c36 27 80 39 125 34c28 -3 43 -27 45 -71c0 -23 0 -51 1 -83c0 -34 3 -63 3 -88c3 -35 12 -222 14 -255c4 -63 11 -121 21 -167c10 -47 24 -80 47 -101
c-36 -25 -79 -37 -124 -33c-35 3 -58 31 -67 98c-9 55 -11 109 -16 164c-15 -12 -31 -14 -46 -14c-55 -2 -109 -3 -162 -3c-27 -14 -37 -27 -47 -46c-14 -20 -30 -55 -42 -80c-13 -32 -27 -68 -19 -102zM412 316c10 0 17 2 25 3c-1 83 -8 244 -14 322
c-46 -85 -109 -200 -175 -325h164z" />
    <glyph glyph-name="B" unicode="B" horiz-adv-x="648" 
d="M661 624c-5 -93 -70 -163 -178 -207c104 -21 158 -86 158 -168v-5c-2 -73 -38 -133 -99 -181c-67 -54 -156 -79 -254 -79c-44 0 -125 8 -162 16c-25 6 -52 41 -52 74c0 11 0 23 3 36c47 202 118 479 118 531c0 15 -2 33 -8 31c-13 -3 -26 -3 -32 -3c-3 1 -4 6 -3 17
c0 9 2 19 6 28c18 36 28 37 57 46c64 17 130 26 196 26c15 0 29 0 44 -1c133 -7 206 -50 206 -161zM491 234c0 72 -45 110 -130 122c-10 2 -20 2 -30 1s-20 -1 -31 -1c-7 0 -16 2 -22 12c-17 -69 -40 -164 -51 -232c-2 -14 -2 -26 -2 -38c24 -21 57 -31 97 -32
c55 0 94 16 125 48c29 32 43 71 44 115v5zM520 603v7c0 72 -52 95 -121 95c-11 0 -52 -5 -73 -9c7 -14 10 -27 10 -44c0 -12 -1 -26 -5 -44c-12 -56 -27 -122 -39 -173c22 2 59 4 80 8c95 17 145 81 148 160z" />
    <glyph glyph-name="C" unicode="C" horiz-adv-x="607" 
d="M694 686c0 -46 -37 -79 -94 -104c-19 82 -54 123 -128 123c-160 0 -241 -269 -241 -441c0 -116 45 -186 143 -186c68 0 151 43 216 105c8 -22 14 -40 14 -54c0 -74 -156 -151 -297 -151c-167 0 -236 99 -236 275c0 270 200 534 453 534c95 0 170 -30 170 -101z" />
    <glyph glyph-name="D" unicode="D" 
d="M424 785c185 0 300 -81 300 -271c0 -284 -221 -529 -462 -529c-70 0 -139 23 -195 66c-1 9 1 19 5 38c41 183 94 386 117 511c2 10 3 18 3 24c0 30 -30 21 -30 43c0 26 8 53 23 75c64 24 153 43 239 43zM320 76c144 0 254 210 254 411c0 131 -59 209 -169 209
c-16 0 -51 -4 -78 -10c5 -15 7 -30 7 -46c0 -75 -74 -354 -106 -510c9 -39 34 -54 92 -54z" />
    <glyph glyph-name="E" unicode="E" horiz-adv-x="539" 
d="M208 758c84 8 169 12 254 12c40 0 77 4 105 4c40 0 56 -4 69 -18c-7 -48 -35 -104 -79 -104c-12 0 -31 25 -84 25h-37c-28 0 -54 2 -75 2h-44c9 -10 12 -20 12 -30c0 -5 0 -11 -2 -16c-12 -57 -26 -122 -43 -192h59c64 0 128 7 177 15c0 -8 -1 -15 -3 -24
c-22 -80 -81 -85 -162 -85h-60h-30c-14 -44 -36 -128 -36 -182c0 -81 69 -74 111 -74c101 0 180 43 205 43c0 -125 -100 -141 -249 -141c-47 0 -93 1 -139 1c-74 0 -85 36 -85 90c0 39 11 93 22 137c50 190 91 334 91 418c0 15 1 33 -5 31c-13 -3 -26 -3 -32 -3
c-3 1 -4 6 -3 17c0 9 2 19 6 28c18 36 27 43 57 46z" />
    <glyph glyph-name="F" unicode="F" horiz-adv-x="492" 
d="M292 419h46c77 0 171 6 206 17c0 -72 -42 -101 -73 -104c-42 -3 -94 -8 -155 -8c-14 0 -29 0 -43 -2c-5 -14 -8 -29 -12 -44c-26 -115 -39 -180 -39 -219c0 -20 10 -39 10 -50c-23 -16 -64 -24 -98 -24c-49 0 -65 17 -65 54c0 23 5 47 11 72c9 40 17 79 27 119
c50 190 91 334 91 418c0 15 1 33 -5 31c-13 -3 -26 -3 -32 -3c-3 1 -4 6 -3 17c0 9 2 19 6 28c18 36 26 43 57 46c84 8 169 12 254 12c40 0 77 4 105 4c40 0 56 -4 69 -18c-7 -48 -35 -104 -79 -104c-12 0 -31 25 -84 25h-37c-28 0 -54 2 -75 2h-46c10 -11 14 -21 14 -32
c0 -6 0 -10 -1 -17c-11 -56 -31 -147 -49 -220z" />
    <glyph glyph-name="G" unicode="G" horiz-adv-x="658" 
d="M502 -5c-28 0 -37 4 -37 33c-43 -35 -113 -47 -173 -47c-137 0 -223 107 -223 263c0 287 213 542 455 542c117 0 187 -36 187 -96c0 -38 -29 -71 -93 -104c-12 77 -67 119 -141 119c-156 0 -249 -262 -249 -441c0 -116 40 -186 121 -186c31 0 64 13 94 29
c31 44 43 101 56 170c0 18 -2 25 -12 30c-16 0 -33 -3 -49 -10c0 77 38 73 162 79c18 1 50 1 51 -12c1 -15 -5 -31 -10 -50c-27 -114 -46 -206 -46 -245c0 -20 10 -40 10 -52c-23 -14 -67 -22 -103 -22z" />
    <glyph glyph-name="H" unicode="H" horiz-adv-x="706" 
d="M278 337c-6 -16 -10 -33 -14 -51c-27 -104 -66 -246 -72 -286c-2 -14 -2 -29 -1 -43c-20 -12 -83 -31 -119 -31c-32 0 -41 9 -39 33c0 20 7 45 17 75c66 196 138 452 145 656c0 21 -5 36 -16 58c39 22 70 33 103 33c15 1 33 -2 45 -13s16 -29 16 -45
c0 -21 -13 -145 -42 -284h208c14 0 26 0 37 3c6 15 12 32 16 51l69 302c9 44 33 67 79 63c28 -3 60 -16 73 -31c-29 -30 -131 -571 -143 -629c-8 -40 -15 -77 -15 -103s8 -52 23 -73c0 -23 -94 -39 -121 -39c-44 0 -57 23 -57 64c0 26 7 63 15 95c13 53 28 124 46 210
c-29 -11 -75 -13 -123 -13c-33 0 -67 1 -97 1c-12 0 -23 -1 -33 -3z" />
    <glyph glyph-name="I" unicode="I" horiz-adv-x="310" 
d="M92 145c29 116 66 273 91 390c10 46 16 86 18 121c1 21 4 46 -23 57c-5 1 -8 5 -10 10c-3 10 -3 10 3 14c41 24 92 38 127 38c19 0 41 -5 53 -20c13 -15 13 -39 10 -57c-39 -166 -81 -331 -114 -498c-8 -40 -15 -76 -15 -103c0 -26 8 -51 23 -73c0 -22 -94 -39 -121 -39
c-44 0 -57 24 -57 64c0 26 7 63 15 96z" />
    <glyph glyph-name="J" unicode="J" horiz-adv-x="339" 
d="M-15 -71c60 5 91 51 115 105c13 31 24 69 34 115c31 123 65 264 92 391c10 46 16 86 18 121c1 22 4 47 -23 57c-5 2 -8 6 -10 11c-3 10 -3 10 3 14c41 24 92 37 127 37c19 0 41 -4 53 -19c13 -15 13 -39 10 -58c-39 -166 -76 -332 -114 -498c-20 -88 -46 -162 -77 -217
c-52 -101 -145 -154 -231 -154c-67 0 -110 27 -110 64c0 24 20 42 57 59c16 -18 35 -28 56 -28z" />
    <glyph glyph-name="K" unicode="K" horiz-adv-x="662" 
d="M686 77c2 0 4 -1 5 -2s1 -4 0 -5c-18 -57 -65 -90 -116 -90c-50 0 -92 26 -142 99c-65 94 -130 219 -153 287c-41 -176 -62 -274 -62 -308c0 -21 7 -31 9 -44c-23 -17 -70 -29 -110 -29c-38 0 -55 13 -56 41c0 19 4 43 14 80c53 197 107 380 128 583c2 22 -2 36 -11 58
c40 23 73 31 105 33c16 1 34 -2 45 -13s14 -29 13 -45c-2 -20 -29 -177 -65 -310c11 10 22 18 36 28c192 130 266 211 268 289c0 12 -1 25 -4 37c33 8 54 11 65 11c39 0 59 -22 59 -59c0 -36 -18 -81 -65 -132c-73 -78 -216 -161 -227 -208c89 -177 185 -301 264 -301z" />
    <glyph glyph-name="L" unicode="L" horiz-adv-x="540" 
d="M80 60c0 85 76 459 144 665c6 20 18 33 34 45c16 11 35 14 50 13c32 -2 61 -11 90 -34c-19 -21 -30 -36 -38 -57c-66 -181 -128 -446 -128 -561c0 -8 1 -14 3 -19c31 -11 80 -12 114 -12c71 0 138 13 181 35c2 1 3 2 4 2s2 -2 2 -6c-6 -137 -72 -140 -231 -140
c-57 0 -105 0 -161 -1c-55 0 -64 27 -64 70z" />
    <glyph glyph-name="M" unicode="M" horiz-adv-x="903" 
d="M785 746c4 -8 2 -17 -2 -25c-15 -36 -46 -92 -92 -161c-64 -100 -135 -209 -189 -297c-8 -13 -15 -23 -21 -30c-4 12 -8 26 -11 39c-40 188 -80 389 -88 464c-3 27 -30 45 -57 43c-32 -2 -65 -10 -106 -33c10 -22 14 -36 12 -58c-17 -61 -33 -122 -49 -183
c-17 -65 -108 -379 -120 -425c-6 -23 -8 -40 -8 -50c2 -29 21 -44 63 -44c26 0 56 6 91 18c-8 17 -13 36 -13 62c0 52 40 216 88 393c4 15 7 31 12 46c2 -5 4 -12 6 -21c30 -141 74 -350 83 -390c6 -25 16 -38 35 -38c37 0 63 17 85 37c36 82 131 233 225 379
c10 15 19 28 28 40c-15 -135 -65 -404 -65 -466c2 -47 25 -62 62 -62c41 0 100 33 113 41c-19 33 -30 71 -30 109c0 67 27 277 76 492c12 51 23 102 27 125c5 26 -23 29 -41 27c-65 -6 -87 -11 -114 -32z" />
    <glyph glyph-name="N" unicode="N" horiz-adv-x="734" 
d="M625 2c-33 -11 -68 -16 -103 -16c-18 0 -39 29 -55 67c-9 22 -137 351 -169 435c-6 16 -10 32 -16 47c-47 -176 -95 -405 -95 -452c0 -30 7 -56 22 -75c-36 -14 -69 -22 -94 -22c-42 0 -60 18 -60 58c0 47 35 157 69 287c35 133 80 299 80 343c0 22 -6 41 -18 57
c38 29 80 46 109 46c44 0 71 -45 106 -160c56 -183 119 -370 157 -447c22 65 39 149 58 228c29 120 48 223 48 282c0 32 -7 58 -19 77c34 15 63 23 90 23c49 0 60 -32 60 -67c0 -12 -1 -24 -3 -35c-3 -25 -160 -628 -167 -676z" />
    <glyph glyph-name="O" unicode="O" 
d="M504 786c147 0 224 -93 224 -256c0 -254 -187 -554 -434 -554c-147 0 -220 92 -220 256c0 261 180 554 430 554zM340 60c155 24 238 325 238 477c0 96 -32 165 -111 165c-124 0 -238 -274 -238 -455c0 -112 30 -199 111 -187z" />
    <glyph glyph-name="P" unicode="P" horiz-adv-x="598" 
d="M247 220c-13 -64 -21 -119 -21 -155c0 -26 4 -38 10 -55c-25 -16 -69 -26 -109 -26c-42 0 -60 16 -60 44c0 25 6 54 13 84c46 186 88 352 111 480c3 18 7 41 7 57c0 38 -33 4 -33 40c2 26 5 42 16 51c59 31 147 47 219 47c164 0 273 -45 273 -186
c0 -159 -144 -290 -329 -290c-29 0 -39 35 -39 72c0 4 2 4 9 4c126 0 208 68 208 195c0 90 -57 121 -145 121c-12 -1 -29 -2 -46 -6c6 -14 9 -28 9 -45c0 -16 -3 -34 -8 -58c-28 -128 -60 -246 -85 -374z" />
    <glyph glyph-name="Q" unicode="Q" 
d="M765 -76c4 1 7 -1 6 -5c-3 -8 -10 -20 -21 -34c-12 -17 -28 -34 -48 -49c-39 -33 -82 -50 -116 -50c-65 7 -87 26 -144 54c-42 21 -80 48 -120 71c-19 11 -40 22 -62 31c-24 9 -53 17 -89 24c-30 5 -53 11 -66 19c-5 4 -8 12 -8 20c0 5 1 8 9 11c13 5 28 8 42 10
c-47 43 -70 112 -70 205c0 261 180 554 429 554c147 0 225 -93 225 -256c0 -220 -141 -476 -341 -539c27 -12 54 -25 81 -35c45 -17 90 -34 139 -43c15 -3 31 -5 48 -5c14 0 28 1 42 3s27 4 39 7c10 2 19 5 25 7zM471 701c-124 0 -238 -274 -238 -455
c0 -112 30 -199 111 -187c155 24 238 325 238 477c0 96 -33 165 -111 165z" />
    <glyph glyph-name="R" unicode="R" horiz-adv-x="669" 
d="M671 618c0 -125 -93 -215 -231 -255c97 -245 169 -290 223 -318c-17 -44 -71 -62 -119 -62c-54 0 -83 28 -115 87c-36 66 -89 190 -122 284c-10 1 -22 3 -33 8c-27 -127 -58 -242 -58 -293c0 -29 5 -44 5 -58c0 -17 -103 -25 -107 -25c-33 0 -49 12 -49 44
c1 11 1 23 4 37c37 165 85 343 112 476c9 43 15 78 15 103c0 30 -14 40 -33 52c21 62 133 89 259 89c151 0 249 -52 249 -169zM293 452c-1 -6 -3 -12 -3 -17c0 -20 23 -21 38 -21c119 0 197 69 197 182c0 73 -45 109 -124 109c-69 0 -77 -12 -77 -39c10 -2 12 -9 12 -16
c0 -4 0 -7 -1 -10c-11 -59 -30 -124 -42 -188z" />
    <glyph glyph-name="S" unicode="S" horiz-adv-x="577" 
d="M127 192c-2 -12 -1 -23 2 -35c16 -61 74 -96 144 -96c85 0 140 43 140 124c0 45 -23 80 -63 113c-78 65 -181 111 -181 226c0 158 141 262 298 262c82 0 154 -18 154 -78c0 -34 -35 -72 -66 -86c-32 51 -67 82 -134 82c-71 0 -118 -34 -118 -102c0 -61 34 -84 169 -188
c51 -46 83 -95 83 -166c0 -163 -171 -271 -326 -271c-85 0 -199 35 -199 107c0 40 39 91 97 108z" />
    <glyph glyph-name="T" unicode="T" horiz-adv-x="437" 
d="M302 673c-14 0 -26 1 -40 1c-56 0 -93 -14 -122 -29c-9 -6 -19 -9 -25 -9c-1 13 -2 27 -2 38c0 70 34 101 100 101c102 0 202 -3 299 -3c79 0 120 15 162 22c1 -4 2 -9 2 -15c-2 -76 -42 -109 -101 -109c-25 0 -76 4 -101 4c-18 0 -27 -3 -31 -18
c-23 -98 -72 -301 -105 -457c-10 -47 -19 -94 -19 -131c0 -23 5 -35 13 -56c-33 -21 -83 -28 -108 -28c-41 0 -63 16 -63 49c0 22 4 56 16 102c9 35 110 458 120 511c2 10 4 18 5 27z" />
    <glyph glyph-name="U" unicode="U" horiz-adv-x="703" 
d="M551 -20c-55 6 -60 55 -60 101v35c0 2 0 3 -1 2c-70 -80 -140 -141 -242 -141c-122 0 -161 90 -161 182c0 16 1 32 3 47c15 111 92 392 96 472c0 39 -15 49 -24 66c30 26 96 34 126 34c35 0 53 -14 55 -45c0 -80 -62 -291 -91 -427c-11 -51 -20 -97 -20 -133
c0 -58 24 -92 72 -92c42 0 93 28 142 86c28 38 47 96 64 159c33 120 76 299 88 386c1 9 -1 12 -2 20c-6 41 44 46 85 46c66 0 80 -8 80 -37c-1 -21 -12 -44 -21 -75c-52 -174 -108 -385 -108 -507c0 -17 1 -32 3 -45c8 -48 16 -80 40 -101c-36 -25 -80 -37 -124 -33z" />
    <glyph glyph-name="V" unicode="V" horiz-adv-x="643" 
d="M233 12c-16 148 -34 296 -53 444c-8 66 -20 125 -32 173c-14 48 -31 82 -58 101c36 31 80 48 127 49c38 0 63 -28 79 -98c6 -30 11 -61 15 -91c14 -98 28 -240 39 -385c133 212 214 348 254 452c13 31 25 67 17 101c29 11 60 17 91 17c33 0 52 -13 53 -35
c0 -14 -7 -30 -15 -52c-14 -38 -48 -95 -84 -152c-155 -244 -265 -422 -308 -529c-8 -13 -63 -32 -94 -32c-21 0 -27 10 -31 37z" />
    <glyph glyph-name="W" unicode="W" horiz-adv-x="969" 
d="M559 712c-5 -12 -9 -24 -13 -36c-22 -63 -86 -195 -233 -473c1 15 1 33 1 53c0 73 -3 192 -7 295c-7 183 -31 228 -86 228c-31 0 -76 -20 -113 -48c11 -11 51 -43 58 -178c9 -182 17 -365 22 -548c1 -21 14 -29 34 -28c49 6 95 26 99 37c8 22 17 43 28 62
c23 41 203 385 208 386c11 -170 26 -400 33 -457c2 -21 13 -29 33 -28c49 6 95 26 100 37c21 62 106 208 176 338l42 78c50 93 117 216 118 285c0 45 -29 64 -89 64c-19 0 -38 -2 -56 -8c6 -18 9 -36 9 -55c0 -13 -1 -27 -4 -40c-27 -111 -100 -262 -221 -504l-3 42
c-2 26 -12 381 -12 408c0 29 2 57 2 83c0 28 -10 43 -30 40c-30 -5 -50 -13 -96 -33z" />
    <glyph glyph-name="X" unicode="X" horiz-adv-x="681" 
d="M423 463c-52 145 -74 317 -65 343c-97 -21 -145 -64 -145 -130c0 -62 35 -209 76 -313c-44 -45 -90 -100 -142 -173s-78 -124 -78 -150c0 -28 23 -42 69 -42c23 0 45 5 68 13c-18 46 39 179 130 272c58 -163 117 -298 189 -298c37 0 95 25 142 84c-52 17 -91 56 -116 103
c-31 59 -70 140 -92 207c90 90 183 179 229 245c26 37 41 69 41 102c0 34 -24 52 -68 52c-25 0 -54 -6 -79 -17c7 -14 9 -26 9 -45c0 -45 -77 -146 -168 -253z" />
    <glyph glyph-name="Y" unicode="Y" horiz-adv-x="581" 
d="M463 378c65 85 239 266 239 368c0 39 -36 65 -107 65c-10 0 -19 0 -29 -2c2 -11 3 -23 3 -34c0 -21 -3 -42 -12 -61c-28 -61 -39 -75 -167 -282c-24 116 -49 226 -78 293c-17 41 -46 60 -84 60c-43 0 -87 -21 -131 -63c8 -3 15 -8 25 -12c53 -24 119 -185 152 -391
c-13 -102 -102 -212 -102 -289c0 -32 25 -46 63 -46s77 11 105 25c-6 16 -11 38 -11 54c0 67 65 222 134 315z" />
    <glyph glyph-name="Z" unicode="Z" horiz-adv-x="640" 
d="M194 93c71 -2 143 -3 215 -3h72c51 0 103 11 147 48c1 -13 1 -26 1 -37c0 -70 -33 -108 -99 -112c-21 -1 -42 -2 -62 -2c-78 0 -152 8 -229 12c-13 1 -26 1 -38 1c-58 0 -103 -6 -149 -16c-18 8 -29 28 -34 47c-5 18 -2 33 10 49c15 20 437 513 498 593
c-53 -1 -106 -2 -159 -2c-25 0 -76 -4 -101 -4c-59 0 -99 35 -101 110c0 6 1 11 2 16c42 -7 83 -24 162 -24c131 0 262 8 392 25c4 -14 7 -29 7 -43c0 -41 -37 -82 -94 -145c-19 -21 -423 -493 -440 -513z" />
    <glyph glyph-name="bracketleft" unicode="[" horiz-adv-x="369" 
d="M241 686c13 60 86 83 146 83c30 0 58 5 86 5c7 0 15 -2 14 -7c-6 -27 -14 -49 -24 -66c-6 -9 -78 -10 -105 -22c-35 -142 -90 -394 -126 -577c-4 -24 -8 -44 -8 -59c0 -35 18 -49 57 -49c16 0 37 0 65 3c-9 -80 -49 -83 -110 -83c-85 0 -134 7 -136 81c0 23 3 59 13 111
c34 186 86 413 128 580z" />
    <glyph glyph-name="backslash" unicode="\" horiz-adv-x="440" 
d="M74 775c44 -54 116 -228 182 -438c60 -202 89 -345 86 -413c19 0 43 -2 65 -2c33 0 61 6 56 42c-1 36 -43 179 -104 375c-56 184 -104 320 -135 380c-28 40 -46 60 -102 60c-13 0 -30 -2 -48 -4z" />
    <glyph glyph-name="bracketright" unicode="]" horiz-adv-x="369" 
d="M388 686c9 60 -53 83 -113 83c-30 0 -56 5 -84 5c-7 0 -16 -2 -17 -7c-3 -27 -6 -49 -4 -66c1 -9 73 -10 98 -22c-26 -142 -74 -394 -116 -577c-7 -24 -13 -44 -16 -59c-17 -35 -38 -49 -77 -49c-16 0 -37 0 -64 3c-6 -17 -8 -31 -8 -42c0 -39 34 -41 82 -41
c85 0 137 7 171 81c7 23 22 59 33 111c41 186 84 413 115 580z" />
    <glyph glyph-name="asciicircum" unicode="^" horiz-adv-x="583" 
d="M576 323c-8 -8 -19 -13 -30 -13c-81 0 -143 99 -188 224c-94 -132 -175 -203 -256 -224h-2c-8 0 -24 4 -30 14c9 11 20 24 31 35c94 94 192 223 243 325c7 14 16 26 25 36c59 -11 65 -50 80 -98c32 -98 92 -236 127 -299z" />
    <glyph glyph-name="underscore" unicode="_" horiz-adv-x="476" 
d="M442 -74c-4 -25 -8 -46 -16 -70c-5 0 -11 2 -18 3c-34 4 -75 7 -120 7c-18 0 -39 -1 -63 -1h-62c-76 0 -124 10 -136 31c8 41 9 53 21 65c3 -1 5 -2 9 -2c31 -3 74 -4 124 -4h63c40 0 70 1 89 1c61 0 99 -10 109 -30z" />
    <glyph glyph-name="grave" unicode="`" horiz-adv-x="439" 
d="M478 630c0 -12 -27 -20 -43 -17c-121 24 -223 80 -223 120c0 26 58 63 118 54c26 -38 47 -75 87 -108c22 -17 61 -41 61 -49z" />
    <glyph glyph-name="a" unicode="a" horiz-adv-x="578" 
d="M565 133c31 34 51 50 61 50c4 0 5 -3 5 -9c0 -73 -106 -182 -177 -182c-55 0 -89 34 -89 106c0 24 2 60 5 81c-75 -122 -148 -185 -214 -188h-11c-80 0 -108 59 -108 141c4 193 155 413 316 413c39 0 72 -8 98 -28c16 17 38 26 63 26c31 0 60 -9 89 -24
c-37 -55 -98 -302 -98 -379c0 -20 7 -33 11 -42c11 2 30 16 49 35zM306 188c51 74 95 163 117 224c-11 41 -49 58 -80 58c-80 0 -160 -192 -160 -322c2 -35 12 -52 33 -52s51 34 90 92z" />
    <glyph glyph-name="b" unicode="b" horiz-adv-x="562" 
d="M160 546c11 55 18 92 18 123c0 16 -3 32 -10 47c38 22 73 31 105 31c27 0 52 -12 52 -47c0 -38 -30 -177 -78 -351c85 138 169 199 239 199c84 0 102 -74 102 -143c0 -181 -139 -413 -314 -413c-38 0 -76 10 -108 30c-18 -19 -41 -26 -68 -26c-25 0 -52 8 -79 23
c18 29 32 64 47 117c27 113 64 265 94 410zM442 347c1 10 2 22 2 35c0 30 -6 60 -33 60c-49 0 -176 -210 -215 -315c3 -40 47 -59 85 -59c71 0 145 138 161 279z" />
    <glyph glyph-name="c" unicode="c" horiz-adv-x="456" 
d="M463 162c6 -11 8 -22 8 -34c0 -86 -161 -138 -246 -138c-119 0 -180 56 -180 169c0 199 156 387 341 387c86 0 126 -21 126 -63c0 -38 -40 -68 -94 -85c-13 58 -31 78 -71 78c-84 0 -147 -109 -147 -290c0 -61 22 -113 76 -113c71 0 141 35 187 89z" />
    <glyph glyph-name="d" unicode="d" horiz-adv-x="579" 
d="M569 137c31 34 51 50 60 50c4 0 6 -3 6 -9c0 -74 -106 -181 -177 -181c-58 0 -90 34 -90 109c0 24 3 57 6 77c-82 -135 -166 -192 -235 -192c-63 0 -101 53 -101 133c0 187 146 416 316 416c39 0 67 -10 96 -26c15 59 23 113 23 154c0 16 -2 31 -10 44
c35 20 73 30 102 30c38 0 56 -20 56 -56c0 -31 -6 -60 -13 -90c-50 -214 -99 -367 -99 -452c0 -20 6 -33 11 -42c10 2 29 16 49 35zM336 228c34 55 64 113 89 169c-7 39 -42 66 -80 66c-80 0 -162 -172 -162 -315c2 -35 12 -52 32 -52c27 0 71 49 121 132z" />
    <glyph glyph-name="e" unicode="e" horiz-adv-x="480" 
d="M296 69c71 7 125 38 177 88c14 -25 12 -56 -6 -79c-17 -21 -42 -40 -75 -54c-50 -23 -102 -34 -158 -34c-117 0 -184 51 -189 154s31 204 100 279c67 80 153 123 242 123c84 0 124 -36 123 -104c0 -68 -88 -155 -223 -203c-32 -11 -97 -40 -98 -66c-1 -24 2 -45 11 -58
c22 -32 58 -51 96 -46zM209 286c0 0 -4 -17 -10 -45c17 37 47 50 84 70c64 35 82 68 92 103s-2 65 -38 65c-54 0 -99 -69 -128 -193z" />
    <glyph glyph-name="f" unicode="f" horiz-adv-x="397" 
d="M-12 -132c50 41 85 99 97 163c8 42 64 334 73 373h-21c-22 0 -55 7 -55 21c0 2 1 3 1 4c16 46 26 55 93 55c4 17 8 34 12 50c36 147 167 226 312 226c54 0 95 -10 95 -55c0 -22 -26 -49 -76 -73c-18 38 -44 57 -76 57c-25 0 -58 -21 -73 -43c-19 -28 -37 -81 -53 -162h37
c39 0 81 7 116 7c1 -4 1 -8 1 -12c0 -61 -63 -74 -118 -74c-18 0 -36 1 -54 1c-25 -110 -42 -226 -86 -353c-34 -98 -110 -177 -208 -214c-4 -1 -7 -2 -10 -2c-14 0 -18 7 -18 15c1 7 5 9 11 16z" />
    <glyph glyph-name="g" unicode="g" horiz-adv-x="574" 
d="M526 -97c29 -19 38 -29 38 -32c-5 0 -22 12 -46 23c1 0 -55 25 -83 34c-51 -84 -141 -131 -252 -131c-112 0 -222 48 -222 100c0 40 37 99 196 99c56 0 118 -6 167 -16c19 52 38 128 59 230c-86 -122 -168 -168 -236 -168c-72 0 -99 59 -99 138c0 180 134 365 308 365
c38 0 74 -9 106 -28c19 16 44 25 69 25s51 -7 80 -22c-26 -39 -44 -95 -70 -208c-19 -97 -39 -189 -54 -249c-13 -52 -28 -90 -42 -118c23 -9 56 -25 81 -42zM286 -91c10 11 20 28 30 50c-46 10 -105 15 -158 15c-38 0 -96 2 -96 -25c0 -3 1 -6 3 -9c30 -42 78 -69 131 -69
c37 0 67 13 90 38zM225 148c61 0 156 138 209 269c-4 26 -49 53 -86 53c-85 0 -154 -141 -154 -278c0 -29 13 -44 31 -44z" />
    <glyph glyph-name="h" unicode="h" horiz-adv-x="584" 
d="M241 313c66 119 168 225 259 225c45 0 71 -25 71 -81c-1 -71 -51 -206 -51 -314c0 -20 7 -34 12 -43c9 3 30 15 49 35c32 33 49 50 60 50c4 0 6 -2 6 -8c0 -72 -106 -182 -178 -182c-55 0 -89 34 -89 105c0 28 3 85 20 147c18 63 25 111 26 140c0 12 -4 31 -16 31
c-44 0 -138 -148 -230 -368c-15 -36 -31 -54 -83 -54c-19 0 -45 3 -77 8c76 199 123 421 152 648c0 4 1 7 1 10c0 16 -4 29 -12 46c41 23 76 32 108 32c29 0 50 -16 50 -47c0 -3 0 -6 -1 -9c-2 -25 -31 -190 -77 -371z" />
    <glyph glyph-name="i" unicode="i" horiz-adv-x="296" 
d="M312 784c31 0 47 -11 48 -26c0 -4 0 -7 -1 -12c-5 -19 -14 -36 -40 -76c-44 -68 -43 -67 -101 -79c-42 -9 -53 12 -53 28c0 29 17 86 16 126c0 5 -3 9 -5 14c41 16 88 25 136 25zM264 134c-20 -19 -39 -33 -49 -35c-5 9 -11 23 -11 43c0 29 7 86 15 121
c6 28 24 91 39 147c5 18 8 34 11 50c4 22 0 39 -12 52s-33 16 -50 16c-31 0 -65 -8 -100 -21c10 -15 15 -31 15 -50c0 -15 -1 -34 -5 -54c-7 -37 -16 -96 -33 -156c-20 -75 -22 -139 -20 -161c4 -62 36 -92 89 -92c52 0 133 62 161 127c11 26 16 44 16 54
c0 20 -22 7 -66 -41z" />
    <glyph glyph-name="j" unicode="j" horiz-adv-x="290" 
d="M293 411c-14 -56 -75 -284 -81 -312c-16 -73 -43 -130 -66 -166c25 -7 86 -27 86 -29s-3 -2 -8 -2c-13 0 -25 -3 -90 13c-57 -79 -125 -116 -199 -116c-47 0 -89 22 -89 62c0 63 55 102 137 102c16 0 32 -2 46 -4c16 34 32 80 49 139c17 60 68 284 75 321c4 20 4 23 4 38
c0 19 -5 35 -15 50c35 13 69 21 100 21c33 0 64 -13 64 -52c0 -19 -7 -42 -13 -65zM-33 -111c17 4 35 24 51 50c-14 0 -26 2 -39 2c-52 0 -86 -19 -86 -33c0 -15 29 -22 53 -22c7 0 14 1 21 3zM347 784c30 0 48 -11 48 -26c0 -23 -10 -41 -41 -88c-44 -68 -43 -67 -101 -79
c-7 -1 -13 -2 -18 -2c-27 0 -35 17 -35 30c0 28 16 83 16 123c0 7 -2 10 -5 17c41 16 88 25 136 25z" />
    <glyph glyph-name="k" unicode="k" horiz-adv-x="530" 
d="M265 740h6c30 0 49 -18 49 -50c0 5 -30 -193 -82 -399c120 166 209 250 270 250c34 0 52 -33 57 -98c-57 0 -122 -36 -204 -130c0 -3 -1 -7 -1 -11c0 -9 2 -19 5 -29c24 -73 58 -159 129 -159c25 0 53 10 86 31c2 1 3 2 4 2s2 -2 2 -4c0 -3 -1 -5 -2 -7
c-27 -69 -104 -137 -166 -137c-59 0 -107 59 -162 219c-25 -46 -41 -88 -74 -168c-14 -36 -32 -54 -83 -54c-20 0 -45 3 -77 8c76 199 123 421 152 648c0 4 1 7 1 10c0 16 -4 29 -12 46c39 22 71 30 102 32z" />
    <glyph glyph-name="l" unicode="l" horiz-adv-x="330" 
d="M208 99c27 1 53 10 74 25c45 33 80 61 90 61c8 0 0 -19 -31 -69c-46 -72 -145 -122 -195 -122c-53 0 -89 29 -89 91c-1 22 3 46 9 84c2 8 3 17 4 26c-36 -26 -51 -36 -54 -36c-4 0 19 21 49 47c-1 -1 2 2 9 8c37 158 81 319 128 475c5 15 18 32 34 43s34 14 49 13
c29 -2 57 -10 85 -31c4 -4 7 -9 8 -15c0 -1 3 -13 3 -36c0 -10 0 -22 -2 -35c-5 -42 -24 -92 -45 -141c-34 -78 -84 -146 -103 -171l-1 -6c-2 -9 -4 -19 -7 -29c-7 -32 -25 -115 -25 -140c0 -20 5 -33 10 -42zM288 522c-16 -49 -30 -100 -43 -150c22 32 49 77 70 127
c21 47 39 95 43 133c1 14 2 27 1 37c0 10 -13 14 -18 5c-3 -5 -6 -11 -8 -17c-17 -45 -32 -90 -45 -135z" />
    <glyph glyph-name="m" unicode="m" horiz-adv-x="875" 
d="M662 83c1 41 15 90 24 134c25 112 38 176 38 187c0 13 -5 17 -15 17c-45 0 -200 -251 -224 -381c0 -7 1 -14 4 -23c-10 -8 -45 -21 -70 -21c-29 0 -51 10 -70 30c46 194 84 342 84 378c0 14 -6 18 -16 18c-27 -1 -79 -75 -129 -149c-33 -49 -54 -104 -103 -222
c-15 -36 -31 -55 -82 -55c-20 0 -45 3 -78 9c79 195 113 379 113 445c0 24 -4 47 -12 66c44 19 79 28 105 28c30 0 54 -18 54 -49c0 -38 -15 -96 -33 -166c92 143 189 218 251 218c38 0 69 -21 69 -65c0 -51 -8 -107 -23 -151c92 147 190 216 248 216c40 0 68 -33 68 -72
c0 -110 -63 -267 -63 -334c0 -20 5 -34 10 -43c28 6 98 86 109 86c4 0 6 -3 6 -9c0 -72 -106 -182 -178 -182c-54 0 -87 28 -87 90z" />
    <glyph glyph-name="n" unicode="n" horiz-adv-x="589" 
d="M418 422c-28 0 -76 -63 -123 -137c-49 -79 -64 -118 -111 -235c-14 -36 -32 -54 -83 -54c-20 0 -46 3 -78 8c22 55 42 113 59 169c39 129 54 223 54 277c0 25 -3 48 -11 65c44 20 79 28 105 28c25 0 53 -13 53 -48c0 -41 -17 -104 -36 -182c62 116 171 233 255 233
c45 0 76 -31 76 -73c0 -45 -14 -116 -33 -194c-14 -49 -30 -101 -30 -137c0 -20 5 -34 10 -43c9 3 30 15 49 35c32 33 49 50 60 50c4 0 6 -2 6 -8c0 -74 -107 -182 -177 -182c-53 0 -90 29 -90 92c0 34 10 69 20 114c26 113 40 185 40 200c0 16 -7 22 -15 22z" />
    <glyph glyph-name="o" unicode="o" horiz-adv-x="535" 
d="M146 434c62 69 140 112 227 112c109 0 183 -67 183 -178c0 -188 -146 -378 -324 -378c-110 0 -183 70 -183 186c0 97 34 184 97 258zM407 368c0 59 -16 104 -64 104c-89 0 -147 -192 -147 -307c0 -59 18 -102 66 -102c88 0 145 190 145 305z" />
    <glyph glyph-name="p" unicode="p" horiz-adv-x="573" 
d="M513 540c58 -8 81 -75 81 -135c0 -194 -151 -408 -323 -408c-32 0 -65 6 -94 19c-11 -43 -22 -96 -22 -139c0 -16 5 -33 10 -50c-36 -18 -70 -25 -94 -25c-41 0 -60 20 -60 56c0 14 2 31 6 49c7 28 89 378 101 430c13 56 21 99 21 142c0 16 -3 32 -10 47
c40 18 74 26 103 26c37 0 57 -15 57 -46c0 -18 -13 -77 -34 -157c58 93 137 193 233 193c8 0 16 -1 25 -2zM447 363v12c0 39 -9 61 -31 61c-52 0 -177 -203 -216 -313c6 -28 47 -48 81 -48c85 0 159 154 166 288z" />
    <glyph glyph-name="q" unicode="q" horiz-adv-x="565" 
d="M608 519c-27 15 -54 23 -79 23c-27 0 -50 -7 -68 -26c-33 20 -70 30 -108 30c-176 0 -314 -235 -314 -414c0 -69 19 -142 102 -142c70 0 152 58 235 193c-20 -93 -37 -175 -58 -281c-3 -15 -6 -31 -6 -46c0 -29 12 -54 64 -54c22 0 50 7 83 20c-3 16 -5 33 -5 50
c0 33 5 66 11 97c26 145 69 320 96 433c15 53 29 88 47 117zM216 96c-27 0 -33 30 -33 60c0 152 91 314 163 314c38 0 82 -19 85 -59c-39 -105 -166 -315 -215 -315z" />
    <glyph glyph-name="r" unicode="r" horiz-adv-x="422" 
d="M452 544h5c31 0 42 -19 42 -48c0 -46 -29 -97 -69 -142c-10 16 -23 25 -38 25c-80 0 -142 -154 -212 -329c-14 -36 -32 -55 -82 -55c-20 0 -45 3 -78 9c77 197 112 375 112 445c0 26 -3 49 -11 66c44 19 79 28 105 28c31 0 53 -19 53 -51c0 -40 -15 -98 -32 -165
c75 132 145 216 205 217z" />
    <glyph glyph-name="s" unicode="s" horiz-adv-x="403" 
d="M329 498c-40 0 -58 -23 -58 -62c0 -20 10 -38 26 -58c43 -52 87 -99 87 -172c0 -120 -110 -213 -231 -213c-69 0 -148 45 -148 123c0 34 22 55 40 65c23 -62 62 -117 122 -120c47 0 77 26 77 80c0 47 -42 80 -80 123c-26 31 -40 70 -40 109c0 129 130 185 245 185
c36 0 51 -7 57 -30c0 -20 -9 -38 -39 -59c-20 20 -40 29 -58 29z" />
    <glyph glyph-name="t" unicode="t" horiz-adv-x="358" 
d="M423 495v-6c0 -47 -38 -80 -84 -80c-20 0 -39 1 -57 1c-8 0 -15 0 -23 -2c-10 -48 -22 -102 -36 -155c-8 -30 -16 -74 -16 -107c2 -31 15 -48 39 -48c12 0 33 19 51 38c32 34 51 51 61 51c4 0 5 -3 5 -9c0 -72 -105 -182 -177 -182c-83 0 -116 50 -116 130
c0 20 3 41 6 62c10 59 13 76 33 159c22 84 45 187 45 245c0 19 -2 35 -11 55c42 24 76 33 108 33s49 -19 49 -49c0 3 -5 -45 -24 -143h52c30 0 61 2 95 7z" />
    <glyph glyph-name="u" unicode="u" horiz-adv-x="589" 
d="M531 543c32 -2 61 -13 61 -54c0 -21 -5 -46 -13 -75c-27 -98 -59 -196 -59 -267c0 -20 6 -34 11 -43c28 6 98 86 109 86c4 0 6 -3 6 -9c0 -72 -106 -182 -178 -182c-56 0 -89 35 -89 107c0 27 4 50 9 77c-77 -126 -152 -193 -233 -193c-74 0 -87 52 -87 103
c0 78 72 303 72 378c0 17 -2 36 -10 51c36 14 72 21 98 21c46 0 58 -25 58 -55c0 -20 -6 -43 -10 -61c-32 -140 -65 -255 -65 -304c0 -13 4 -26 19 -26c28 0 90 69 145 168c51 93 77 176 77 230c0 11 -2 24 -7 34c26 9 61 14 86 14z" />
    <glyph glyph-name="v" unicode="v" horiz-adv-x="506" 
d="M387 331c40 71 56 128 56 168c0 18 -11 51 -23 64c12 2 29 3 37 3c72 0 104 -19 104 -73c0 -43 -33 -121 -105 -232c-102 -158 -190 -271 -303 -271c-7 0 -14 0 -21 2c0 14 2 35 2 52c1 72 -11 205 -31 322c-14 81 -24 123 -46 140c39 24 77 37 112 37
c42 0 67 -29 71 -91c10 -73 13 -176 13 -261c0 -23 0 -45 -1 -68c58 76 101 146 135 208z" />
    <glyph glyph-name="w" unicode="w" horiz-adv-x="735" 
d="M475 0c139 36 319 412 319 494c0 56 -42 76 -115 76c-8 0 -25 -1 -37 -3c26 -24 35 -67 35 -91c0 -92 -69 -245 -150 -353c4 84 4 161 4 219c0 126 -1 191 -54 191c-24 0 -53 -6 -85 -20c3 -7 4 -16 4 -26c0 -78 -30 -185 -145 -325v47c0 77 -2 149 -6 201
c-6 91 -12 133 -67 133c-27 0 -62 -11 -101 -33c20 -30 35 -68 40 -132c6 -71 9 -172 9 -251c0 -53 -1 -98 -6 -132c48 0 96 6 130 40c58 58 114 148 161 249c2 -63 4 -121 4 -185c0 -32 1 -57 -4 -105c32 1 44 0 64 6z" />
    <glyph glyph-name="x" unicode="x" horiz-adv-x="488" 
d="M121 -10c-7 -1 -14 -1 -21 -1c-48 0 -86 21 -86 54c0 46 50 112 175 218c-38 102 -58 181 -88 207c16 35 61 62 102 62c39 0 61 -38 70 -77s22 -83 34 -120c91 94 131 161 131 205c0 7 36 6 41 6c42 0 60 -13 60 -40c0 -53 -86 -143 -200 -250c37 -100 93 -180 137 -203
c-35 -38 -76 -59 -116 -59c-50 0 -92 72 -138 187c-62 -55 -105 -120 -105 -168c0 -7 1 -14 4 -21z" />
    <glyph glyph-name="y" unicode="y" horiz-adv-x="510" 
d="M-76 -163c-1 3 -1 7 -1 11c0 19 8 44 18 65c9 -8 34 -16 50 -16c62 0 123 51 169 117c7 10 9 27 9 46c0 17 -2 35 -4 50c-28 227 -63 368 -99 396c40 24 78 37 113 37c37 0 62 -26 70 -82c15 -102 28 -226 35 -325c99 140 169 275 169 347c0 18 -11 51 -23 64
c12 2 29 3 37 3c73 0 105 -22 105 -68c0 -63 -104 -238 -263 -447c-147 -195 -235 -246 -309 -246c-43 0 -70 16 -76 48z" />
    <glyph glyph-name="z" unicode="z" horiz-adv-x="455" 
d="M541 -5c-22 -21 -46 -30 -75 -30c-39 0 -98 18 -143 49c-48 33 -111 66 -164 67c39 53 100 107 157 171c21 23 147 168 169 194c16 19 24 42 24 65c0 9 -1 17 -3 25c-60 -12 -105 -18 -177 -18c-79 0 -136 10 -169 30c-23 -30 -46 -70 -46 -92c0 -28 27 -51 94 -51
c22 0 58 1 108 5c-103 -133 -205 -241 -266 -309c-21 -23 -33 -54 -33 -85c0 -12 2 -24 5 -35c19 3 38 5 58 5c41 0 82 -9 120 -25c76 -33 147 -121 227 -121c65 0 120 51 120 119c0 12 -2 24 -6 36z" />
    <glyph glyph-name="braceleft" unicode="{" horiz-adv-x="351" 
d="M106 26c1 37 10 79 23 120c13 44 20 79 20 105c0 23 -11 46 -31 60c-24 15 -36 44 -31 72c13 -3 27 -3 39 1c41 11 68 65 89 163c7 31 15 61 24 90c29 96 85 141 153 147c65 5 104 -15 106 -50c-55 5 -106 -27 -124 -82c-14 -40 -27 -84 -38 -137c-3 -16 -7 -30 -11 -44
c-28 -74 -75 -103 -132 -118c-9 -2 -17 -5 -25 -8l30 -12c49 -19 74 -52 74 -102c0 -18 -3 -41 -8 -66c-4 -17 -7 -34 -11 -50c-7 -31 -10 -58 -10 -78c0 -48 16 -70 59 -70c11 0 23 2 35 5c-5 -42 -50 -62 -101 -62c-15 0 -31 1 -47 5c-49 14 -83 46 -83 111z" />
    <glyph glyph-name="bar" unicode="|" horiz-adv-x="289" 
d="M337 741c-3 -14 -11 -52 -25 -111c-40 -166 -94 -384 -136 -564c-12 -52 -20 -89 -23 -110c-2 -10 -3 -20 -3 -32c-11 -3 -21 -5 -32 -5c-19 0 -40 5 -66 11c-2 5 -4 11 -4 19v5c3 15 9 41 18 80c14 58 114 481 129 545c16 63 24 110 28 136c4 20 7 38 8 54c5 0 9 1 14 1
c37 0 64 -12 92 -29z" />
    <glyph glyph-name="braceright" unicode="}" horiz-adv-x="351" 
d="M221 26c16 37 24 79 30 120c6 44 13 79 26 105c9 23 32 46 57 60c30 15 56 44 62 72c-14 -3 -28 -3 -38 1c-22 6 -32 28 -32 64c0 26 5 58 15 99c7 31 11 61 16 90c2 12 2 23 2 34c0 72 -34 108 -92 113c-63 5 -110 -15 -128 -50c57 5 95 -27 89 -82
c-4 -40 -11 -84 -23 -137c-4 -16 -6 -30 -7 -44c-6 -74 29 -103 80 -118c8 -2 15 -5 22 -8l-37 -12c-57 -19 -97 -52 -117 -102c-9 -18 -16 -41 -23 -66c-3 -17 -7 -34 -9 -50c-8 -31 -17 -58 -26 -78c-21 -48 -46 -70 -89 -70c-11 0 -22 2 -33 5c-13 -42 23 -62 74 -62
c15 0 32 1 49 5c55 14 104 46 132 111z" />
    <glyph glyph-name="asciitilde" unicode="~" horiz-adv-x="580" 
d="M122 251c-15 0 -29 5 -39 15c-11 10 -17 24 -17 38c0 61 50 120 160 120c64 0 182 -82 221 -82c40 0 72 32 73 72c46 -3 59 -24 59 -46c0 -80 -65 -141 -161 -128c-62 8 -185 83 -221 83c-40 0 -73 -32 -75 -72z" />
    <glyph glyph-name="Adieresis" unicode="&#xc4;" horiz-adv-x="644" 
d="M525 881c0 -35 26 -46 52 -46c25 0 53 8 80 24c11 28 17 50 17 66c0 33 -24 51 -62 51c-23 0 -49 -8 -75 -21c0 -18 -12 -35 -12 -74zM309 881c0 -35 26 -46 52 -46c25 0 53 8 80 24c11 28 17 50 17 66c0 33 -24 51 -62 51c-23 0 -49 -8 -75 -21c0 -18 -12 -35 -12 -74z
M124 3c-30 -11 -61 -17 -93 -17c-33 0 -51 12 -51 35c0 14 5 31 16 52c73 133 170 296 265 455c39 66 85 140 130 222c36 27 80 39 125 34c28 -3 43 -27 45 -71c0 -23 0 -51 1 -83c0 -34 3 -63 3 -88c3 -35 12 -222 14 -255c4 -63 11 -121 21 -167c10 -47 24 -80 47 -101
c-36 -25 -79 -37 -124 -33c-35 3 -58 31 -67 98c-9 55 -11 109 -16 164c-15 -12 -31 -14 -46 -14c-55 -2 -109 -3 -162 -3c-27 -14 -37 -27 -47 -46c-14 -20 -30 -55 -42 -80c-13 -32 -27 -68 -19 -102zM412 316c10 0 17 2 25 3c-1 83 -8 244 -14 322
c-46 -85 -109 -200 -175 -325h164z" />
    <glyph glyph-name="Aring" unicode="&#xc5;" horiz-adv-x="644" 
d="M600 119c10 -46 24 -80 47 -101c-36 -25 -79 -36 -124 -32c-35 3 -58 31 -67 98c-9 54 -11 109 -16 164c-15 -13 -31 -14 -46 -14c-55 -3 -109 -3 -162 -3c-27 -14 -37 -28 -47 -46c-14 -20 -30 -55 -42 -80c-13 -32 -27 -69 -19 -102c-30 -12 -61 -17 -93 -17
c-33 0 -51 11 -51 35c0 14 5 31 16 52c73 133 170 295 265 455c39 66 85 139 130 221c-21 20 -30 49 -23 82c14 61 81 111 149 111s112 -50 98 -111c-7 -32 -30 -61 -60 -81c3 -11 6 -23 6 -37c0 -23 0 -51 1 -83c0 -35 3 -63 3 -88c3 -35 12 -223 14 -255
c4 -63 11 -122 21 -168zM440 833c-6 -28 12 -49 41 -49c28 0 56 21 62 49c6 25 -12 46 -40 46c-29 0 -57 -21 -63 -46zM412 315c10 0 17 3 25 4c-1 83 -8 244 -14 322c-46 -85 -109 -200 -175 -326h164z" />
    <glyph glyph-name="Ccedilla" unicode="&#xc7;" horiz-adv-x="631" 
d="M402 -123c0 -49 -58 -90 -160 -90c-32 0 -63 2 -63 27c0 12 3 17 6 24c8 -2 30 -6 45 -6c44 0 83 12 83 31c0 27 -19 29 -52 37c-3 15 2 31 12 42c10 12 25 19 40 19c5 0 9 0 11 -1c-3 -6 -9 -19 -9 -24c51 -9 87 -26 87 -59zM694 686c0 -46 -37 -79 -94 -104
c-19 82 -54 123 -128 123c-160 0 -241 -269 -241 -441c0 -116 45 -186 143 -186c68 0 151 43 216 105c8 -22 14 -40 14 -54c0 -74 -156 -151 -297 -151c-167 0 -236 99 -236 275c0 270 200 534 453 534c95 0 170 -30 170 -101z" />
    <glyph glyph-name="Eacute" unicode="&#xc9;" horiz-adv-x="577" 
d="M208 758c84 8 169 12 254 12c40 0 77 4 105 4c40 0 56 -4 69 -18c-7 -48 -35 -104 -79 -104c-12 0 -31 25 -84 25h-37c-28 0 -54 2 -75 2h-44c9 -10 12 -20 12 -30c0 -5 0 -11 -2 -16c-12 -57 -26 -122 -43 -192h59c64 0 128 7 177 15c0 -8 -1 -15 -3 -24
c-22 -80 -81 -85 -162 -85h-60h-30c-14 -44 -36 -128 -36 -182c0 -81 69 -74 111 -74c101 0 180 43 205 43c0 -125 -100 -141 -249 -141c-47 0 -93 1 -139 1c-74 0 -85 36 -85 90c0 39 11 93 22 137c50 190 91 334 91 418c0 15 1 33 -5 31c-13 -3 -26 -3 -32 -3
c-3 1 -4 6 -3 17c0 9 2 19 6 28c18 36 27 43 57 46zM315 847c0 -12 26 -20 42 -17c62 11 129 36 170 59c40 19 62 42 62 61c0 30 -37 51 -113 51c-40 -53 -81 -97 -154 -144c-5 -3 -7 -6 -7 -10z" />
    <glyph glyph-name="Ntilde" unicode="&#xd1;" horiz-adv-x="747" 
d="M625 2c-33 -11 -68 -16 -103 -16c-18 0 -39 29 -55 67c-9 22 -137 351 -169 435c-6 16 -10 32 -16 47c-47 -176 -95 -405 -95 -452c0 -30 7 -56 22 -75c-36 -14 -69 -22 -94 -22c-42 0 -60 18 -60 58c0 47 35 157 69 287c35 133 80 299 80 343c0 22 -6 41 -18 57
c38 29 80 46 109 46c44 0 71 -45 106 -160c56 -183 119 -370 157 -447c22 65 39 149 58 228c29 120 48 223 48 282c0 32 -7 58 -19 77c34 15 63 23 90 23c49 0 60 -32 60 -67c0 -12 -1 -24 -3 -35c-3 -25 -160 -628 -167 -676zM734 972c-5 -36 -19 -67 -42 -91
c-21 -24 -47 -37 -77 -37s-68 17 -112 41c-41 23 -73 37 -94 37c-4 0 -8 0 -13 -2c-21 -6 -35 -26 -44 -62c-2 -6 -5 -11 -7 -17c-1 -1 -2 -1 -3 -1c-6 0 -16 4 -21 8c-9 7 -11 10 -11 17c0 9 2 17 3 27c7 32 20 59 40 81c22 23 46 32 73 32c32 1 70 -17 114 -40
c43 -22 75 -36 97 -36c4 0 7 1 11 2c23 6 37 29 45 65c2 5 4 10 5 15c1 1 2 1 3 1c4 0 6 -1 11 -3c17 -8 22 -18 22 -37z" />
    <glyph glyph-name="Odieresis" unicode="&#xd6;" 
d="M578 881c0 -35 26 -46 52 -46c25 0 53 8 80 24c11 28 17 50 17 66c0 33 -24 51 -62 51c-23 0 -49 -8 -75 -21c0 -18 -12 -35 -12 -74zM362 881c0 -35 26 -46 52 -46c25 0 53 8 80 24c11 28 17 50 17 66c0 33 -24 51 -62 51c-23 0 -49 -8 -75 -21c0 -18 -12 -35 -12 -74z
M504 786c147 0 224 -93 224 -256c0 -254 -187 -554 -434 -554c-147 0 -220 92 -220 256c0 261 180 554 430 554zM340 60c155 24 238 325 238 477c0 96 -32 165 -111 165c-124 0 -238 -274 -238 -455c0 -112 30 -199 111 -187z" />
    <glyph glyph-name="Udieresis" unicode="&#xdc;" horiz-adv-x="703" 
d="M539 881c0 -35 26 -46 52 -46c25 0 53 8 80 24c11 28 17 50 17 66c0 33 -24 51 -62 51c-23 0 -49 -8 -75 -21c0 -18 -12 -35 -12 -74zM323 881c0 -35 26 -46 52 -46c25 0 53 8 80 24c11 28 17 50 17 66c0 33 -24 51 -62 51c-23 0 -49 -8 -75 -21c0 -18 -12 -35 -12 -74z
M551 -20c-55 6 -60 55 -60 101v35c0 2 0 3 -1 2c-70 -80 -140 -141 -242 -141c-122 0 -161 90 -161 182c0 16 1 32 3 47c15 111 92 392 96 472c0 39 -15 49 -24 66c30 26 96 34 126 34c35 0 53 -14 55 -45c0 -80 -62 -291 -91 -427c-11 -51 -20 -97 -20 -133
c0 -58 24 -92 72 -92c42 0 93 28 142 86c28 38 47 96 64 159c33 120 76 299 88 386c1 9 -1 12 -2 20c-6 41 44 46 85 46c66 0 80 -8 80 -37c-1 -21 -12 -44 -21 -75c-52 -174 -108 -385 -108 -507c0 -17 1 -32 3 -45c8 -48 16 -80 40 -101c-36 -25 -80 -37 -124 -33z" />
    <glyph glyph-name="aacute" unicode="&#xe1;" horiz-adv-x="578" 
d="M565 133c31 34 51 50 61 50c4 0 5 -3 5 -9c0 -73 -106 -182 -177 -182c-55 0 -89 34 -89 106c0 24 2 60 5 81c-75 -122 -148 -185 -214 -188h-11c-80 0 -108 59 -108 141c4 193 155 413 316 413c39 0 72 -8 98 -28c16 17 38 26 63 26c31 0 60 -9 89 -24
c-37 -55 -98 -302 -98 -379c0 -20 7 -33 11 -42c11 2 30 16 49 35zM306 188c51 74 95 163 117 224c-11 41 -49 58 -80 58c-80 0 -160 -192 -160 -322c2 -35 12 -52 33 -52s51 34 90 92zM316 630c0 -12 26 -20 42 -17c62 11 129 36 170 59c40 19 62 42 62 61
c0 30 -37 51 -113 51c-40 -53 -81 -97 -154 -144c-5 -3 -7 -6 -7 -10z" />
    <glyph glyph-name="agrave" unicode="&#xe0;" horiz-adv-x="578" 
d="M565 133c31 34 51 50 61 50c4 0 5 -3 5 -9c0 -73 -106 -182 -177 -182c-55 0 -89 34 -89 106c0 24 2 60 5 81c-75 -122 -148 -185 -214 -188h-11c-80 0 -108 59 -108 141c4 193 155 413 316 413c39 0 72 -8 98 -28c16 17 38 26 63 26c31 0 60 -9 89 -24
c-37 -55 -98 -302 -98 -379c0 -20 7 -33 11 -42c11 2 30 16 49 35zM306 188c51 74 95 163 117 224c-11 41 -49 58 -80 58c-80 0 -160 -192 -160 -322c2 -35 12 -52 33 -52s51 34 90 92zM487 631c0 -12 -27 -20 -43 -17c-121 24 -223 80 -223 120c0 26 58 63 118 54
c26 -38 47 -75 87 -108c22 -17 61 -41 61 -49z" />
    <glyph glyph-name="acircumflex" unicode="&#xe2;" horiz-adv-x="578" 
d="M565 133c31 34 51 50 61 50c4 0 5 -3 5 -9c0 -73 -106 -182 -177 -182c-55 0 -89 34 -89 106c0 24 2 60 5 81c-75 -122 -148 -185 -214 -188h-11c-80 0 -108 59 -108 141c4 193 155 413 316 413c39 0 72 -8 98 -28c16 17 38 26 63 26c31 0 60 -9 89 -24
c-37 -55 -98 -302 -98 -379c0 -20 7 -33 11 -42c11 2 30 16 49 35zM306 188c51 74 95 163 117 224c-11 41 -49 58 -80 58c-80 0 -160 -192 -160 -322c2 -35 12 -52 33 -52s51 34 90 92zM583 636c-18 -22 -46 -22 -50 -22c-22 0 -70 33 -112 79c-62 -47 -130 -79 -160 -79
c-13 0 -29 3 -29 15c0 0 43 37 79 68c63 55 118 93 148 93c9 0 18 -2 24 -6c15 -42 59 -109 100 -148z" />
    <glyph glyph-name="adieresis" unicode="&#xe4;" horiz-adv-x="578" 
d="M453 672c0 -35 26 -46 52 -46c25 0 53 8 80 24c11 28 17 50 17 66c0 33 -24 51 -62 51c-23 0 -49 -8 -75 -21c0 -18 -12 -35 -12 -74zM237 672c0 -35 26 -46 52 -46c25 0 53 8 80 24c11 28 17 50 17 66c0 33 -24 51 -62 51c-23 0 -49 -8 -75 -21c0 -18 -12 -35 -12 -74z
M565 133c31 34 51 50 61 50c4 0 5 -3 5 -9c0 -73 -106 -182 -177 -182c-55 0 -89 34 -89 106c0 24 2 60 5 81c-75 -122 -148 -185 -214 -188h-11c-80 0 -108 59 -108 141c4 193 155 413 316 413c39 0 72 -8 98 -28c16 17 38 26 63 26c31 0 60 -9 89 -24
c-37 -55 -98 -302 -98 -379c0 -20 7 -33 11 -42c11 2 30 16 49 35zM306 188c51 74 95 163 117 224c-11 41 -49 58 -80 58c-80 0 -160 -192 -160 -322c2 -35 12 -52 33 -52s51 34 90 92z" />
    <glyph glyph-name="atilde" unicode="&#xe3;" horiz-adv-x="578" 
d="M565 133c31 34 51 50 61 50c4 0 5 -3 5 -9c0 -73 -106 -182 -177 -182c-55 0 -89 34 -89 106c0 24 2 60 5 81c-75 -122 -148 -185 -214 -188h-11c-80 0 -108 59 -108 141c4 193 155 413 316 413c39 0 72 -8 98 -28c16 17 38 26 63 26c31 0 60 -9 89 -24
c-37 -55 -98 -302 -98 -379c0 -20 7 -33 11 -42c11 2 30 16 49 35zM306 188c51 74 95 163 117 224c-11 41 -49 58 -80 58c-80 0 -160 -192 -160 -322c2 -35 12 -52 33 -52s51 34 90 92zM625 753c-5 -36 -19 -67 -42 -91c-21 -24 -47 -37 -77 -37s-68 17 -112 41
c-41 23 -73 37 -94 37c-4 0 -8 0 -13 -2c-21 -6 -35 -26 -44 -62c-2 -6 -5 -11 -7 -17c-1 -1 -2 -1 -3 -1c-6 0 -16 4 -21 8c-9 7 -11 10 -11 17c0 9 2 17 3 27c7 32 20 59 40 81c22 23 46 32 73 32c32 1 70 -17 114 -40c43 -22 75 -36 97 -36c4 0 7 1 11 2
c23 6 37 29 45 65c2 5 4 10 5 15c1 1 2 1 3 1c4 0 6 -1 11 -3c17 -8 22 -18 22 -37z" />
    <glyph glyph-name="aring" unicode="&#xe5;" horiz-adv-x="578" 
d="M435 836c68 0 112 -50 98 -111s-80 -109 -149 -109c-68 0 -112 48 -98 109s81 111 149 111zM461 727c6 25 -12 46 -40 46c-29 0 -57 -21 -63 -46c-6 -28 12 -49 41 -49c28 0 56 21 62 49zM565 133c31 34 51 50 61 50c4 0 5 -3 5 -9c0 -73 -106 -182 -177 -182
c-55 0 -89 34 -89 106c0 24 2 60 5 81c-75 -122 -148 -185 -214 -188h-11c-80 0 -108 59 -108 141c4 193 155 413 316 413c39 0 72 -8 98 -28c16 17 38 26 63 26c31 0 60 -9 89 -24c-37 -55 -98 -302 -98 -379c0 -20 7 -33 11 -42c11 2 30 16 49 35zM306 188
c51 74 95 163 117 224c-11 41 -49 58 -80 58c-80 0 -160 -192 -160 -322c2 -35 12 -52 33 -52s51 34 90 92z" />
    <glyph glyph-name="ccedilla" unicode="&#xe7;" horiz-adv-x="456" 
d="M325 -113c0 -49 -58 -90 -160 -90c-32 0 -63 2 -63 27c0 12 3 17 6 24c8 -2 30 -6 45 -6c44 0 83 12 83 31c0 27 -19 29 -52 37c-3 15 2 31 12 42c10 12 25 19 40 19c5 0 9 0 11 -1c-3 -6 -9 -19 -9 -24c51 -9 87 -26 87 -59zM461 162c6 -11 8 -22 8 -34
c0 -86 -161 -138 -246 -138c-119 0 -180 56 -180 169c0 199 156 387 341 387c86 0 126 -21 126 -63c0 -38 -40 -68 -94 -85c-13 58 -31 78 -71 78c-84 0 -147 -109 -147 -290c0 -61 22 -113 76 -113c71 0 141 35 187 89z" />
    <glyph glyph-name="eacute" unicode="&#xe9;" horiz-adv-x="480" 
d="M296 69c71 7 125 38 177 88c14 -25 12 -56 -6 -79c-17 -21 -42 -40 -75 -54c-50 -23 -102 -34 -158 -34c-117 0 -184 51 -189 154s31 204 100 279c67 80 153 123 242 123c84 0 124 -36 123 -104c0 -68 -88 -155 -223 -203c-32 -11 -97 -40 -98 -66c-1 -24 2 -45 11 -58
c22 -32 58 -51 96 -46zM209 286c0 0 -4 -17 -10 -45c17 37 47 50 84 70c64 35 82 68 92 103s-2 65 -38 65c-54 0 -99 -69 -128 -193zM288 630c0 -12 26 -20 42 -17c62 11 129 36 170 59c40 19 62 42 62 61c0 30 -37 51 -113 51c-40 -53 -81 -97 -154 -144
c-5 -3 -7 -6 -7 -10z" />
    <glyph glyph-name="egrave" unicode="&#xe8;" horiz-adv-x="480" 
d="M296 69c71 7 125 38 177 88c14 -25 12 -56 -6 -79c-17 -21 -42 -40 -75 -54c-50 -23 -102 -34 -158 -34c-117 0 -184 51 -189 154s31 204 100 279c67 80 153 123 242 123c84 0 124 -36 123 -104c0 -68 -88 -155 -223 -203c-32 -11 -97 -40 -98 -66c-1 -24 2 -45 11 -58
c22 -32 58 -51 96 -46zM209 286c0 0 -4 -17 -10 -45c17 37 47 50 84 70c64 35 82 68 92 103s-2 65 -38 65c-54 0 -99 -69 -128 -193zM458 630c0 -12 -27 -20 -43 -17c-121 24 -223 80 -223 120c0 26 58 63 118 54c26 -38 47 -75 87 -108c22 -17 61 -41 61 -49z" />
    <glyph glyph-name="ecircumflex" unicode="&#xea;" horiz-adv-x="479" 
d="M296 69c71 7 125 38 177 88c14 -25 12 -56 -6 -79c-17 -21 -42 -40 -75 -54c-50 -23 -102 -34 -158 -34c-117 0 -184 51 -189 154s31 204 100 279c67 80 153 123 242 123c84 0 124 -36 123 -104c0 -68 -88 -155 -223 -203c-32 -11 -97 -40 -98 -66c-1 -24 2 -45 11 -58
c22 -32 58 -51 96 -46zM209 286c0 0 -4 -17 -10 -45c17 37 47 50 84 70c64 35 82 68 92 103s-2 65 -38 65c-54 0 -99 -69 -128 -193zM533 636c-18 -22 -46 -22 -50 -22c-22 0 -70 33 -112 79c-62 -47 -130 -79 -160 -79c-13 0 -29 3 -29 15c0 0 43 37 79 68
c63 55 118 93 148 93c9 0 18 -2 24 -6c15 -42 59 -109 100 -148z" />
    <glyph glyph-name="edieresis" unicode="&#xeb;" horiz-adv-x="480" 
d="M418 672c0 -35 26 -46 52 -46c25 0 53 8 80 24c11 28 17 50 17 66c0 33 -24 51 -62 51c-23 0 -49 -8 -75 -21c0 -18 -12 -35 -12 -74zM202 672c0 -35 26 -46 52 -46c25 0 53 8 80 24c11 28 17 50 17 66c0 33 -24 51 -62 51c-23 0 -49 -8 -75 -21c0 -18 -12 -35 -12 -74z
M296 69c71 7 125 38 177 88c14 -25 12 -56 -6 -79c-17 -21 -42 -40 -75 -54c-50 -23 -102 -34 -158 -34c-117 0 -184 51 -189 154s31 204 100 279c67 80 153 123 242 123c84 0 124 -36 123 -104c0 -68 -88 -155 -223 -203c-32 -11 -97 -40 -98 -66c-1 -24 2 -45 11 -58
c22 -32 58 -51 96 -46zM209 286c0 0 -4 -17 -10 -45c17 37 47 50 84 70c64 35 82 68 92 103s-2 65 -38 65c-54 0 -99 -69 -128 -193z" />
    <glyph glyph-name="iacute" unicode="&#xed;" horiz-adv-x="291" 
d="M284 134c-20 -19 -39 -33 -49 -35c-5 9 -11 23 -11 43c0 29 7 86 15 121c6 28 28 106 43 162c5 18 8 34 11 50c4 22 0 39 -12 52s-33 16 -50 16c-31 0 -65 -8 -100 -21c10 -15 15 -31 15 -50c0 -15 -1 -34 -5 -54c-7 -37 -20 -111 -37 -171c-20 -75 -22 -139 -20 -161
c4 -62 36 -92 89 -92c52 0 133 62 161 127c11 26 16 44 16 54c0 20 -22 7 -66 -41zM128 630c0 -12 26 -20 42 -17c62 11 129 36 170 59c40 19 62 42 62 61c0 30 -37 51 -113 51c-40 -53 -81 -97 -154 -144c-5 -3 -7 -6 -7 -10z" />
    <glyph glyph-name="igrave" unicode="&#xec;" horiz-adv-x="295" 
d="M284 134c-20 -19 -39 -33 -49 -35c-5 9 -11 23 -11 43c0 29 7 86 15 121c6 28 28 106 43 162c5 18 8 34 11 50c4 22 0 39 -12 52s-33 16 -50 16c-31 0 -65 -8 -100 -21c10 -15 15 -31 15 -50c0 -15 -1 -34 -5 -54c-7 -37 -20 -111 -37 -171c-20 -75 -22 -139 -20 -161
c4 -62 36 -92 89 -92c52 0 133 62 161 127c11 26 16 44 16 54c0 20 -22 7 -66 -41zM388 630c0 -12 -27 -20 -43 -17c-121 24 -223 80 -223 120c0 26 58 63 118 54c26 -38 47 -75 87 -108c22 -17 61 -41 61 -49z" />
    <glyph glyph-name="icircumflex" unicode="&#xee;" horiz-adv-x="295" 
d="M284 134c-20 -19 -39 -33 -49 -35c-5 9 -11 23 -11 43c0 29 7 86 15 121c6 28 28 106 43 162c5 18 8 34 11 50c4 22 0 39 -12 52s-33 16 -50 16c-31 0 -65 -8 -100 -21c10 -15 15 -31 15 -50c0 -15 -1 -34 -5 -54c-7 -37 -20 -111 -37 -171c-20 -75 -22 -139 -20 -161
c4 -62 36 -92 89 -92c52 0 133 62 161 127c11 26 16 44 16 54c0 20 -22 7 -66 -41zM418 636c-18 -22 -46 -22 -50 -22c-22 0 -70 33 -112 79c-62 -47 -130 -79 -160 -79c-13 0 -29 3 -29 15c0 0 43 37 79 68c63 55 118 93 148 93c9 0 18 -2 24 -6c15 -42 59 -109 100 -148z
" />
    <glyph glyph-name="idieresis" unicode="&#xef;" horiz-adv-x="295" 
d="M288 672c0 -35 26 -46 52 -46c25 0 53 8 80 24c11 28 17 50 17 66c0 33 -24 51 -62 51c-23 0 -49 -8 -75 -21c0 -18 -12 -35 -12 -74zM72 672c0 -35 26 -46 52 -46c25 0 53 8 80 24c11 28 17 50 17 66c0 33 -24 51 -62 51c-23 0 -49 -8 -75 -21c0 -18 -12 -35 -12 -74z
M284 134c-20 -19 -39 -33 -49 -35c-5 9 -11 23 -11 43c0 29 7 86 15 121c6 28 28 106 43 162c5 18 8 34 11 50c4 22 0 39 -12 52s-33 16 -50 16c-31 0 -65 -8 -100 -21c10 -15 15 -31 15 -50c0 -15 -1 -34 -5 -54c-7 -37 -20 -111 -37 -171c-20 -75 -22 -139 -20 -161
c4 -62 36 -92 89 -92c52 0 133 62 161 127c11 26 16 44 16 54c0 20 -22 7 -66 -41z" />
    <glyph glyph-name="ntilde" unicode="&#xf1;" horiz-adv-x="591" 
d="M418 422c-28 0 -76 -63 -123 -137c-49 -79 -64 -118 -111 -235c-14 -36 -32 -54 -83 -54c-20 0 -46 3 -78 8c22 55 42 113 59 169c39 129 54 223 54 277c0 25 -3 48 -11 65c44 20 79 28 105 28c25 0 53 -13 53 -48c0 -41 -17 -104 -36 -182c62 116 171 233 255 233
c45 0 76 -31 76 -73c0 -45 -14 -116 -33 -194c-14 -49 -30 -101 -30 -137c0 -20 5 -34 10 -43c9 3 30 15 49 35c32 33 49 50 60 50c4 0 6 -2 6 -8c0 -74 -107 -182 -177 -182c-53 0 -90 29 -90 92c0 34 10 69 20 114c26 113 40 185 40 200c0 16 -7 22 -15 22zM596 753
c-5 -36 -19 -67 -42 -91c-21 -24 -47 -37 -77 -37s-68 17 -112 41c-41 23 -73 37 -94 37c-4 0 -8 0 -13 -2c-21 -6 -35 -26 -44 -62c-2 -6 -5 -11 -7 -17c-1 -1 -2 -1 -3 -1c-6 0 -16 4 -21 8c-9 7 -11 10 -11 17c0 9 2 17 3 27c7 32 20 59 40 81c22 23 46 32 73 32
c32 1 70 -17 114 -40c43 -22 75 -36 97 -36c4 0 7 1 11 2c23 6 37 29 45 65c2 5 4 10 5 15c1 1 2 1 3 1c4 0 6 -1 11 -3c17 -8 22 -18 22 -37z" />
    <glyph glyph-name="oacute" unicode="&#xf3;" horiz-adv-x="535" 
d="M146 434c62 69 140 112 227 112c109 0 183 -67 183 -178c0 -188 -146 -378 -324 -378c-110 0 -183 70 -183 186c0 97 34 184 97 258zM407 368c0 59 -16 104 -64 104c-89 0 -147 -192 -147 -307c0 -59 18 -102 66 -102c88 0 145 190 145 305zM285 630c0 -12 26 -20 42 -17
c62 11 129 36 170 59c40 19 62 42 62 61c0 30 -37 51 -113 51c-40 -53 -81 -97 -154 -144c-5 -3 -7 -6 -7 -10z" />
    <glyph glyph-name="ograve" unicode="&#xf2;" horiz-adv-x="535" 
d="M146 434c62 69 140 112 227 112c109 0 183 -67 183 -178c0 -188 -146 -378 -324 -378c-110 0 -183 70 -183 186c0 97 34 184 97 258zM407 368c0 59 -16 104 -64 104c-89 0 -147 -192 -147 -307c0 -59 18 -102 66 -102c88 0 145 190 145 305zM466 630
c0 -12 -27 -20 -43 -17c-121 24 -223 80 -223 120c0 26 58 63 118 54c26 -38 47 -75 87 -108c22 -17 61 -41 61 -49z" />
    <glyph glyph-name="ocircumflex" unicode="&#xf4;" horiz-adv-x="535" 
d="M146 434c62 69 140 112 227 112c109 0 183 -67 183 -178c0 -188 -146 -378 -324 -378c-110 0 -183 70 -183 186c0 97 34 184 97 258zM407 368c0 59 -16 104 -64 104c-89 0 -147 -192 -147 -307c0 -59 18 -102 66 -102c88 0 145 190 145 305zM551 636
c-18 -22 -46 -22 -50 -22c-22 0 -70 33 -112 79c-62 -47 -130 -79 -160 -79c-13 0 -29 3 -29 15c0 0 43 37 79 68c63 55 118 93 148 93c9 0 18 -2 24 -6c15 -42 59 -109 100 -148z" />
    <glyph glyph-name="odieresis" unicode="&#xf6;" horiz-adv-x="535" 
d="M431 672c0 -35 26 -46 52 -46c25 0 53 8 80 24c11 28 17 50 17 66c0 33 -24 51 -62 51c-23 0 -49 -8 -75 -21c0 -18 -12 -35 -12 -74zM215 672c0 -35 26 -46 52 -46c25 0 53 8 80 24c11 28 17 50 17 66c0 33 -24 51 -62 51c-23 0 -49 -8 -75 -21c0 -18 -12 -35 -12 -74z
M146 434c62 69 140 112 227 112c109 0 183 -67 183 -178c0 -188 -146 -378 -324 -378c-110 0 -183 70 -183 186c0 97 34 184 97 258zM407 368c0 59 -16 104 -64 104c-89 0 -147 -192 -147 -307c0 -59 18 -102 66 -102c88 0 145 190 145 305z" />
    <glyph glyph-name="otilde" unicode="&#xf5;" horiz-adv-x="535" 
d="M146 434c62 69 140 112 227 112c109 0 183 -67 183 -178c0 -188 -146 -378 -324 -378c-110 0 -183 70 -183 186c0 97 34 184 97 258zM407 368c0 59 -16 104 -64 104c-89 0 -147 -192 -147 -307c0 -59 18 -102 66 -102c88 0 145 190 145 305zM594 753
c-5 -36 -19 -67 -42 -91c-21 -24 -47 -37 -77 -37s-68 17 -112 41c-41 23 -73 37 -94 37c-4 0 -8 0 -13 -2c-21 -6 -35 -26 -44 -62c-2 -6 -5 -11 -7 -17c-1 -1 -2 -1 -3 -1c-6 0 -16 4 -21 8c-9 7 -11 10 -11 17c0 9 2 17 3 27c7 32 20 59 40 81c22 23 46 32 73 32
c32 1 70 -17 114 -40c43 -22 75 -36 97 -36c4 0 7 1 11 2c23 6 37 29 45 65c2 5 4 10 5 15c1 1 2 1 3 1c4 0 6 -1 11 -3c17 -8 22 -18 22 -37z" />
    <glyph glyph-name="uacute" unicode="&#xfa;" horiz-adv-x="589" 
d="M531 543c32 -2 61 -13 61 -54c0 -21 -5 -46 -13 -75c-27 -98 -59 -196 -59 -267c0 -20 6 -34 11 -43c28 6 98 86 109 86c4 0 6 -3 6 -9c0 -72 -106 -182 -178 -182c-56 0 -89 35 -89 107c0 27 4 50 9 77c-77 -126 -152 -193 -233 -193c-74 0 -87 52 -87 103
c0 78 72 303 72 378c0 17 -2 36 -10 51c36 14 72 21 98 21c46 0 58 -25 58 -55c0 -20 -6 -43 -10 -61c-32 -140 -65 -255 -65 -304c0 -13 4 -26 19 -26c28 0 90 69 145 168c51 93 77 176 77 230c0 11 -2 24 -7 34c26 9 61 14 86 14zM294 630c0 -12 26 -20 42 -17
c62 11 129 36 170 59c40 19 62 42 62 61c0 30 -37 51 -113 51c-40 -53 -81 -97 -154 -144c-5 -3 -7 -6 -7 -10z" />
    <glyph glyph-name="ugrave" unicode="&#xf9;" horiz-adv-x="589" 
d="M531 543c32 -2 61 -13 61 -54c0 -21 -5 -46 -13 -75c-27 -98 -59 -196 -59 -267c0 -20 6 -34 11 -43c28 6 98 86 109 86c4 0 6 -3 6 -9c0 -72 -106 -182 -178 -182c-56 0 -89 35 -89 107c0 27 4 50 9 77c-77 -126 -152 -193 -233 -193c-74 0 -87 52 -87 103
c0 78 72 303 72 378c0 17 -2 36 -10 51c36 14 72 21 98 21c46 0 58 -25 58 -55c0 -20 -6 -43 -10 -61c-32 -140 -65 -255 -65 -304c0 -13 4 -26 19 -26c28 0 90 69 145 168c51 93 77 176 77 230c0 11 -2 24 -7 34c26 9 61 14 86 14zM472 630c0 -12 -27 -20 -43 -17
c-121 24 -223 80 -223 120c0 26 58 63 118 54c26 -38 47 -75 87 -108c22 -17 61 -41 61 -49z" />
    <glyph glyph-name="ucircumflex" unicode="&#xfb;" horiz-adv-x="589" 
d="M551 636c-18 -22 -46 -22 -50 -22c-22 0 -70 33 -112 79c-62 -47 -130 -79 -160 -79c-13 0 -29 3 -29 15c0 0 43 37 79 68c63 55 118 93 148 93c9 0 18 -2 24 -6c15 -42 59 -109 100 -148zM531 543c32 -2 61 -13 61 -54c0 -21 -5 -46 -13 -75c-27 -98 -59 -196 -59 -267
c0 -20 6 -34 11 -43c28 6 98 86 109 86c4 0 6 -3 6 -9c0 -72 -106 -182 -178 -182c-56 0 -89 35 -89 107c0 27 4 50 9 77c-77 -126 -152 -193 -233 -193c-74 0 -87 52 -87 103c0 78 72 303 72 378c0 17 -2 36 -10 51c36 14 72 21 98 21c46 0 58 -25 58 -55
c0 -20 -6 -43 -10 -61c-32 -140 -65 -255 -65 -304c0 -13 4 -26 19 -26c28 0 90 69 145 168c51 93 77 176 77 230c0 11 -2 24 -7 34c26 9 61 14 86 14z" />
    <glyph glyph-name="udieresis" unicode="&#xfc;" horiz-adv-x="589" 
d="M431 672c0 -35 26 -46 52 -46c25 0 53 8 80 24c11 28 17 50 17 66c0 33 -24 51 -62 51c-23 0 -49 -8 -75 -21c0 -18 -12 -35 -12 -74zM215 672c0 -35 26 -46 52 -46c25 0 53 8 80 24c11 28 17 50 17 66c0 33 -24 51 -62 51c-23 0 -49 -8 -75 -21c0 -18 -12 -35 -12 -74z
M531 543c32 -2 61 -13 61 -54c0 -21 -5 -46 -13 -75c-27 -98 -59 -196 -59 -267c0 -20 6 -34 11 -43c28 6 98 86 109 86c4 0 6 -3 6 -9c0 -72 -106 -182 -178 -182c-56 0 -89 35 -89 107c0 27 4 50 9 77c-77 -126 -152 -193 -233 -193c-74 0 -87 52 -87 103
c0 78 72 303 72 378c0 17 -2 36 -10 51c36 14 72 21 98 21c46 0 58 -25 58 -55c0 -20 -6 -43 -10 -61c-32 -140 -65 -255 -65 -304c0 -13 4 -26 19 -26c28 0 90 69 145 168c51 93 77 176 77 230c0 11 -2 24 -7 34c26 9 61 14 86 14z" />
    <glyph glyph-name="dagger" unicode="&#x2020;" horiz-adv-x="403" 
d="M479 551c-7 -73 -24 -99 -68 -99c-13 0 -65 6 -93 7c-52 -218 -86 -396 -86 -462c0 -24 3 -45 12 -71c-31 -12 -57 -18 -81 -18c-46 0 -65 22 -65 58c0 28 12 80 35 168c36 139 65 253 83 329c-53 0 -115 -4 -145 -14c14 86 35 109 89 109c22 -2 60 -6 75 -8
c15 64 25 124 25 170c0 19 -2 36 -7 51c31 8 58 13 80 13c37 0 54 -15 54 -46s-25 -106 -48 -191c56 1 97 7 128 17c5 -6 9 -11 12 -13z" />
    <glyph glyph-name="degree" unicode="&#xb0;" horiz-adv-x="373" 
d="M305 766c69 -6 114 -38 115 -95c0 -89 -88 -152 -177 -152c-66 0 -113 31 -113 94c0 91 78 153 175 153zM262 587c48 0 75 36 75 74c0 24 -24 51 -59 41c-37 -13 -59 -53 -59 -82c0 -22 15 -33 43 -33z" />
    <glyph glyph-name="cent" unicode="&#xa2;" horiz-adv-x="454" 
d="M521 484c0 -45 -40 -80 -85 -80c2 30 -19 62 -51 66c-25 -127 -52 -268 -76 -396c64 8 131 55 159 81c3 -9 4 -18 4 -28c0 -11 -2 -22 -6 -32c-19 -50 -81 -84 -172 -100c-7 -33 -11 -59 -12 -78c0 -8 -1 -15 -1 -23c-8 -1 -16 -1 -22 -1c-12 0 -26 2 -37 8
c-7 5 -12 15 -10 30c2 10 9 35 13 59c-50 3 -107 18 -141 56c-33 38 -41 97 -37 147c7 80 35 150 78 211c54 74 127 120 206 137c5 25 9 48 10 68c1 8 1 17 2 25c9 0 16 1 22 1c19 0 49 -4 49 -20c0 -2 -2 -14 -14 -68c79 -3 121 -24 121 -63zM244 83c24 123 50 261 74 387
c-66 -29 -114 -110 -127 -223c-2 -12 -2 -25 -2 -37c0 -57 17 -111 55 -127z" />
    <glyph glyph-name="sterling" unicode="&#xa3;" horiz-adv-x="608" 
d="M557 450c-9 -53 -50 -81 -148 -81c-16 0 -30 1 -41 1c-35 -141 -71 -215 -179 -277c77 4 140 10 192 10h58c54 4 87 18 99 31c13 -3 24 -14 24 -34c0 -50 -32 -118 -84 -118c-43 0 -164 19 -269 19c-58 -3 -114 -14 -139 -14c-22 0 -35 5 -35 28c0 12 5 43 11 60
c2 5 16 10 23 14c107 50 131 99 154 281h-32c-31 0 -61 -4 -84 -11c11 50 20 66 46 73c24 7 50 8 79 8c25 223 142 346 317 346c64 0 111 -17 111 -66c0 -21 -21 -60 -51 -84c-17 30 -34 63 -96 63c-104 0 -117 -113 -134 -259h36c57 0 109 5 142 10z" />
    <glyph glyph-name="section" unicode="&#xa7;" horiz-adv-x="587" 
d="M587 716c0 -29 -14 -53 -55 -84c-34 47 -56 80 -118 80c-56 0 -87 -29 -87 -82c0 -47 28 -62 148 -135c45 -31 77 -70 77 -127c0 -80 -51 -140 -132 -175c28 -32 37 -65 37 -103c0 -116 -121 -186 -243 -186c-83 0 -151 21 -154 79c0 31 21 67 51 87
c27 -48 68 -90 130 -90s96 30 96 85s-49 75 -162 146c-42 31 -68 68 -68 121c0 80 54 139 138 173c-27 32 -35 58 -35 99c0 114 116 182 236 182c76 0 139 -20 141 -70zM437 334c-2 55 -77 97 -142 119c-42 -15 -70 -48 -70 -87c0 -55 67 -97 143 -121c46 19 69 51 69 89z
" />
    <glyph glyph-name="bullet" unicode="&#x2022;" horiz-adv-x="541" 
d="M481 354c0 -39 -15 -90 -40 -150c-54 -30 -108 -45 -161 -45c-68 0 -110 27 -117 82c-1 6 -1 14 -1 22c0 17 2 33 6 51c5 23 9 41 11 55c5 22 9 43 12 63c54 25 107 37 154 37c82 0 136 -37 136 -115z" />
    <glyph glyph-name="paragraph" unicode="&#xb6;" horiz-adv-x="596" 
d="M563 685c-40 -162 -92 -418 -109 -514c-10 -59 -30 -187 -30 -219c0 -27 -100 -44 -100 -44c-18 -3 -38 1 -52 13c-15 12 -25 27 -25 48c0 28 11 94 24 168c7 37 15 76 22 112c4 19 8 37 11 54c5 20 9 40 14 60c-16 -14 -27 -21 -41 -28s-32 -11 -46 -11
c-94 0 -115 76 -115 154c0 167 149 298 365 298c125 0 187 -34 187 -62c0 -18 -14 -38 -43 -61c-13 16 -34 27 -62 32zM279 405c23 -4 47 44 70 109c22 65 41 141 50 183c-96 -4 -168 -120 -168 -221c0 -34 13 -66 48 -71zM360 -34c-1 6 -1 12 0 17c15 112 38 229 64 353
c26 127 56 253 81 360c-6 0 -13 2 -20 2c-2 0 -8 1 -18 1c-17 -68 -35 -138 -52 -207c-48 -177 -95 -400 -103 -501c0 -11 -5 -33 12 -33c10 0 23 4 36 8z" />
    <glyph glyph-name="germandbls" unicode="&#xdf;" horiz-adv-x="577" 
d="M567 179c0 -107 -116 -190 -224 -190c-55 0 -86 16 -91 49c0 25 11 41 29 68c11 -30 43 -49 76 -49c46 0 73 31 73 84c0 44 -93 132 -93 209c0 78 118 173 118 268c0 41 -19 64 -47 64c-61 0 -95 -81 -135 -249c-11 -48 -78 -344 -83 -366c-19 -80 -49 -124 -73 -157
c-13 -6 -30 -11 -44 -11c-9 0 -19 2 -32 8c-26 2 -32 12 -32 32c14 33 41 115 59 186c26 78 34 177 55 271c47 204 140 355 315 360c95 0 156 -33 156 -115c0 -46 -21 -77 -51 -106c-62 -54 -88 -84 -88 -111c0 -18 9 -42 24 -63c51 -69 88 -129 88 -182z" />
    <glyph glyph-name="registered" unicode="&#xae;" horiz-adv-x="875" 
d="M524 457c14 -32 54 -98 88 -114c-9 -20 -36 -40 -64 -40c-17 0 -32 9 -45 29c-19 27 -44 73 -55 104c-6 -41 -7 -74 -7 -89c0 -8 2 -17 2 -26c0 -14 -55 -20 -57 -20c-19 0 -33 8 -31 26c20 112 31 224 31 253c0 9 -3 20 -8 31c34 15 81 26 114 26c71 0 115 -25 115 -77
c0 -44 -29 -80 -83 -103zM455 491c42 2 68 21 68 59c0 22 -12 36 -35 36c-4 0 -12 0 -18 -2c-2 -15 -4 -33 -7 -50c-3 -14 -5 -29 -8 -43zM514 756c154 0 248 -82 248 -238c0 -195 -112 -341 -312 -341c-153 0 -245 79 -245 241c0 201 118 338 309 338zM460 237
c147 0 231 117 231 274c0 120 -70 183 -193 183c-145 0 -221 -127 -221 -270c0 -121 64 -187 183 -187z" />
    <glyph glyph-name="copyright" unicode="&#xa9;" horiz-adv-x="887" 
d="M764 518c0 -193 -114 -341 -312 -341c-154 0 -247 79 -247 241c0 201 121 338 311 338c154 0 248 -82 248 -238zM692 511c0 120 -70 183 -193 183c-144 0 -221 -125 -221 -270c0 -121 65 -187 183 -187c149 0 231 120 231 274zM586 405c17 -13 15 -40 6 -55
c-18 -26 -61 -64 -121 -64c-95 0 -135 52 -135 139c0 119 86 222 196 222c58 0 90 -23 90 -56c0 -16 -5 -28 -15 -38c-11 -10 -29 -17 -49 -13c-3 30 -18 46 -40 46c-51 0 -87 -72 -87 -163c0 -42 19 -70 60 -70c32 0 67 21 95 52z" />
    <glyph glyph-name="trademark" unicode="&#x2122;" horiz-adv-x="857" 
d="M882 765c-22 -47 -40 -156 -43 -241c0 -56 9 -68 21 -85c-14 -11 -42 -27 -73 -27c-27 0 -45 8 -45 42c0 38 14 142 18 155c-61 -100 -117 -176 -158 -176c-43 0 -59 79 -67 183c-13 -47 -39 -116 -47 -149c-4 -18 2 -27 7 -35c-13 -14 -33 -20 -48 -20
c-27 0 -41 10 -41 30c0 7 0 14 3 23c29 94 94 235 97 293c15 9 27 12 45 12c19 0 48 -8 52 -35c7 -43 20 -163 34 -201c20 26 55 82 87 133c37 61 59 99 143 99c5 0 10 0 15 -1zM334 687c1 5 23 6 35 6c57 0 75 3 101 63c2 5 2 12 -1 18c-34 -11 -67 -13 -117 -13h-51
c-18 0 -50 2 -70 2c-67 0 -87 -10 -109 -73c-3 -7 -3 -13 -3 -20c38 13 55 23 126 23c-11 -12 -16 -25 -21 -38c-31 -91 -53 -179 -53 -203c0 -28 17 -40 53 -40c16 0 45 3 62 11c-6 7 -14 20 -14 35c0 29 43 153 62 229z" />
    <glyph glyph-name="acute" unicode="&#xb4;" horiz-adv-x="439" 
d="M218 630c0 -12 26 -20 42 -17c62 11 129 36 170 59c40 19 62 42 62 61c0 30 -37 51 -113 51c-40 -53 -81 -97 -154 -144c-5 -3 -7 -6 -7 -10z" />
    <glyph glyph-name="dieresis" unicode="&#xa8;" horiz-adv-x="439" 
d="M385 672c0 -35 26 -46 52 -46c25 0 53 8 80 24c11 28 17 50 17 66c0 33 -24 51 -62 51c-23 0 -49 -8 -75 -21c0 -18 -12 -35 -12 -74zM169 672c0 -35 26 -46 52 -46c25 0 53 8 80 24c11 28 17 50 17 66c0 33 -24 51 -62 51c-23 0 -49 -8 -75 -21c0 -18 -12 -35 -12 -74z
" />
    <glyph glyph-name="AE" unicode="&#xc6;" horiz-adv-x="884" 
d="M872 774c40 0 57 -4 71 -18c-3 -48 -27 -104 -71 -104c-12 0 -33 25 -86 25h-37c-28 0 -54 2 -75 2h-44c12 -13 16 -25 14 -39c-8 -57 -17 -129 -29 -199h59c64 0 128 7 176 15c0 -2 1 -4 1 -7c0 -92 -73 -103 -159 -103c-27 0 -55 1 -83 1c-9 0 -30 -166 -30 -195
c0 -57 47 -61 86 -61c111 0 178 43 204 43c1 -5 1 -10 1 -15c0 -126 -131 -130 -307 -130h-40c-59 0 -98 7 -98 62c0 80 19 149 28 204c-18 -12 -35 -14 -50 -14c-56 -3 -111 -4 -165 -4c-59 -43 -131 -127 -131 -210c0 -7 1 -14 2 -21c-30 -11 -61 -17 -93 -17
c-23 0 -54 9 -54 43c0 18 19 53 50 96c24 34 459 589 486 622c35 23 74 35 112 35c21 0 38 -2 46 -18c73 4 163 7 216 7zM463 327c15 104 28 205 45 312c-38 -51 -123 -168 -234 -315c62 0 134 1 189 3z" />
    <glyph glyph-name="Oslash" unicode="&#xd8;" horiz-adv-x="695" 
d="M795 832c-27 -23 -68 -67 -116 -123c30 -43 46 -102 46 -176c0 -254 -187 -554 -434 -554c-48 0 -87 10 -119 29c-17 -28 -29 -51 -38 -67c-6 -13 -15 -26 -25 -26c-14 0 -38 14 -48 24c7 15 31 55 64 108c-36 44 -54 107 -54 188c0 261 180 554 430 554
c56 0 101 -13 136 -38c32 38 66 82 121 82c13 0 25 0 37 -1zM226 250c0 -16 1 -31 2 -46c31 45 63 91 94 134c9 13 142 187 234 307c-17 38 -47 60 -92 60c-124 0 -238 -274 -238 -455zM337 63c155 24 238 325 238 477c0 15 -1 29 -2 42c-46 -58 -94 -120 -140 -182
c-59 -80 -130 -184 -188 -275c17 -43 46 -68 92 -62z" />
    <glyph glyph-name="plusminus" unicode="&#xb1;" horiz-adv-x="541" 
d="M539 414c-11 -52 -21 -82 -41 -92c-32 -13 -84 -17 -141 -17c-12 -46 -21 -96 -21 -136c0 -8 0 -16 1 -23c-16 -3 -31 -5 -45 -5c-40 0 -56 8 -56 31c0 39 24 120 28 134h-23c-54 0 -101 -5 -136 -16c10 53 20 79 38 91c19 13 84 17 141 17c12 47 21 96 21 138
c0 7 0 13 -1 19c20 4 37 6 52 6c35 0 49 -11 49 -31c0 -25 -14 -75 -28 -132h17c59 0 110 5 145 16zM485 111c-14 -103 -59 -110 -139 -110h-39h-137c-61 0 -107 -4 -135 -12c19 101 55 108 145 108h50h83c76 0 137 5 172 14z" />
    <glyph glyph-name="yen" unicode="&#xa5;" horiz-adv-x="609" 
d="M709 751c0 -97 -190 -262 -266 -353c71 1 143 5 168 10c-15 -56 -29 -69 -59 -72c-25 -1 -98 -3 -153 -4c-16 -30 -28 -63 -37 -97c65 1 146 3 166 9c-15 -50 -27 -63 -53 -65c-18 -1 -77 -2 -127 -3c-8 -43 -12 -83 -12 -108c0 -17 5 -38 11 -55
c-28 -14 -67 -25 -105 -25s-63 14 -63 46c0 36 26 92 51 143c-41 0 -84 -5 -99 -9c9 61 21 71 64 71c5 0 46 -1 63 -2c15 34 25 64 23 87c0 3 0 6 -1 10h-35c-58 0 -113 -3 -138 -10c11 67 24 78 73 78c21 0 67 -2 90 -3c-30 170 -95 295 -141 316c-10 4 -17 8 -25 11
c44 42 88 63 131 63c38 0 67 -18 84 -59c29 -67 46 -178 70 -294c128 207 147 221 175 283c9 18 12 39 12 60c0 11 -1 24 -3 35c10 1 19 1 29 1c71 0 107 -26 107 -64z" />
    <glyph glyph-name="mu" unicode="&#xb5;" horiz-adv-x="589" 
d="M176 -8c-9 -40 -16 -79 -21 -110c-2 -12 -2 -21 -2 -31c1 -17 6 -34 16 -44c-33 -19 -71 -32 -100 -32c-44 0 -61 20 -61 62c0 5 1 14 2 21c4 24 12 63 24 116c6 27 13 55 19 82c8 33 48 214 55 245c16 69 32 136 32 170c0 17 -2 36 -10 52c36 14 72 21 98 21
c46 0 58 -25 58 -56c0 -20 -6 -42 -10 -60c-32 -141 -65 -255 -65 -304c0 -14 4 -27 19 -27c28 0 90 69 145 168c51 94 77 177 77 230c0 11 -2 25 -7 35c26 8 61 14 86 14c32 -3 61 -14 61 -55c0 -21 -5 -46 -13 -74c-14 -49 -29 -98 -40 -144s-19 -88 -19 -123
c0 -20 6 -34 11 -44c7 2 16 8 25 16c14 11 44 33 48 33c3 0 3 -4 3 -8c0 -32 -41 -94 -82 -125c-19 -15 -39 -21 -57 -21c-56 0 -89 35 -89 108c0 27 4 49 9 77c-71 -115 -139 -181 -212 -192z" />
    <glyph glyph-name="ordfeminine" unicode="&#xaa;" horiz-adv-x="498" 
d="M428 547c0 -29 32 -39 54 -46c-12 -41 -49 -69 -92 -69c-60 0 -68 37 -68 104c-55 -75 -105 -108 -151 -108c-52 0 -78 36 -78 94c0 134 120 229 213 232c23 0 45 -6 67 -19c14 12 30 18 49 18c22 0 45 -8 67 -23c-28 -37 -61 -131 -61 -183zM220 503c36 0 99 69 132 162
c-7 21 -25 30 -44 30c-49 0 -105 -85 -105 -153c0 -23 5 -39 17 -39z" />
    <glyph glyph-name="ordmasculine" unicode="&#xba;" horiz-adv-x="498" 
d="M362 760c77 0 129 -34 129 -112c0 -59 -29 -115 -72 -156c-42 -41 -93 -60 -153 -60c-89 0 -135 43 -135 115c0 144 132 213 231 213zM285 489c76 0 95 91 95 157c0 40 -15 59 -46 59c-53 0 -88 -59 -94 -141c0 -45 13 -75 45 -75z" />
    <glyph glyph-name="ae" unicode="&#xe6;" horiz-adv-x="791" 
d="M589 233c-23 -10 -50 -21 -68 -40s-11 -55 -3 -77c20 -51 77 -54 123 -42c54 13 101 46 143 81c11 -9 10 -27 10 -40c-1 -13 -5 -25 -12 -35c-15 -21 -37 -36 -59 -48c-49 -27 -106 -40 -162 -42c-50 -1 -106 7 -144 42c-39 37 -46 93 -46 143c-28 -43 -60 -86 -99 -121
c-36 -33 -81 -63 -132 -64c-36 -1 -69 19 -85 51c-14 30 -17 64 -16 96c2 109 48 215 115 299c34 43 77 80 129 98c29 10 59 12 89 10c28 -1 55 -9 77 -27c21 33 68 28 101 17c-6 -15 -10 -30 -15 -45c37 28 81 47 127 55c38 6 84 6 118 -15c36 -22 47 -67 38 -106
c-10 -44 -44 -81 -78 -109c-46 -36 -97 -59 -151 -81zM423 408c4 11 -6 25 -12 33c-15 17 -37 25 -59 29c-26 4 -51 -13 -68 -31c-20 -20 -34 -45 -46 -70c-27 -54 -42 -112 -51 -172c-4 -25 -12 -124 42 -96c16 8 29 22 41 36c18 21 34 44 49 68c33 54 63 109 88 167
c6 12 11 24 16 36zM527 286c-3 -15 -7 -30 -10 -45c21 45 70 61 107 87c19 14 37 30 49 50c12 21 23 51 16 76c-7 21 -30 29 -51 24c-23 -5 -41 -23 -53 -42c-31 -44 -46 -98 -58 -150z" />
    <glyph glyph-name="oslash" unicode="&#xf8;" horiz-adv-x="535" 
d="M503 498c32 -31 50 -75 50 -130c0 -189 -146 -378 -324 -378c-30 0 -58 5 -83 15c-32 -51 -50 -88 -68 -88c-13 0 -37 17 -46 27c6 11 35 53 65 95c-32 32 -51 78 -51 137c0 183 148 370 325 370c32 0 62 -7 88 -18c12 16 41 59 95 59c13 0 25 0 37 -1
c-21 -18 -53 -48 -88 -88zM340 471c-85 0 -142 -178 -146 -294c20 27 31 45 198 263c-10 19 -27 31 -52 31zM259 62c74 0 145 155 145 311c-12 -16 -181 -251 -198 -276c10 -22 27 -35 53 -35z" />
    <glyph glyph-name="questiondown" unicode="&#xbf;" horiz-adv-x="507" 
d="M223 -251c-115 0 -193 48 -193 166c0 57 24 105 64 147c80 75 212 138 212 209c0 14 -7 40 -15 56c34 23 65 32 90 32c39 0 60 -45 60 -70c0 -34 -15 -67 -41 -90c-48 -42 -226 -139 -226 -272c0 -60 38 -88 91 -88c50 0 92 35 109 81c6 8 13 16 25 19
c26 -19 44 -41 44 -66c0 -79 -120 -124 -220 -124zM380 415c-41 0 -64 20 -64 55c0 9 5 27 12 55c27 18 57 27 85 27c34 0 50 -18 50 -43c0 -28 -9 -46 -9 -61c0 -4 0 -8 1 -13c-26 -12 -52 -20 -75 -20z" />
    <glyph glyph-name="exclamdown" unicode="&#xa1;" horiz-adv-x="339" 
d="M46 -187c0 28 7 54 14 80c67 269 99 387 99 418c0 9 -1 17 -3 25c11 1 22 2 32 2c54 0 79 -15 83 -43c0 -20 -1 -39 -7 -69c-23 -108 -61 -285 -67 -372c-2 -26 0 -51 6 -77c-33 -12 -65 -21 -92 -21c-42 0 -65 16 -65 57zM171 465c0 10 5 29 13 58c28 19 59 28 88 28
c36 0 53 -19 53 -45c0 -29 -10 -48 -10 -64c0 -4 0 -8 1 -13c-27 -13 -54 -21 -78 -21c-43 0 -67 21 -67 57z" />
    <glyph glyph-name="logicalnot" unicode="&#xac;" horiz-adv-x="541" 
d="M532 310c-11 -60 -34 -135 -48 -150c-14 -18 -31 -28 -63 -28h-30h-16c18 35 29 69 33 98c3 7 3 16 3 21c0 11 -3 20 -7 23c-47 5 -126 8 -221 12c-35 3 -61 11 -78 23c-13 9 -14 27 -9 43c3 11 7 22 10 35c7 3 11 4 18 4s14 -1 24 -3c35 -2 77 -4 123 -4
c69 0 129 -2 173 -6c35 -2 78 -4 87 -38c3 -9 2 -20 1 -30z" />
    <glyph glyph-name="florin" unicode="&#x192;" horiz-adv-x="525" 
d="M321 405c-25 -110 -37 -203 -81 -330c-34 -98 -110 -177 -208 -214c-4 -1 -7 -2 -10 -2c-14 0 -18 7 -18 15c1 7 5 9 11 16c50 41 85 99 97 163c8 42 60 313 69 352h-51c-32 0 -64 -6 -80 -14c-5 17 -3 36 6 52c8 15 24 27 41 31c31 7 64 8 101 8c4 17 13 58 17 74
c36 147 167 226 312 226c54 0 95 -10 95 -55c0 -22 -26 -49 -76 -73c-18 38 -44 57 -76 57c-25 0 -58 -21 -73 -43c-19 -28 -42 -105 -58 -186c80 -1 168 3 200 11c3 -13 2 -26 -1 -38c-11 -43 -120 -54 -184 -51c-15 0 -25 1 -33 1z" />
    <glyph glyph-name="guillemotleft" unicode="&#xab;" horiz-adv-x="530" 
d="M549 479c8 -5 12 -20 11 -25c-12 -62 -87 -130 -188 -187c67 -50 116 -111 107 -175c-1 -9 -5 -18 -11 -24c-34 36 -111 101 -166 139c-27 18 -51 27 -51 76c8 7 17 12 27 17c77 31 174 95 245 158c8 8 18 15 26 21zM160 267c67 -50 116 -111 107 -175
c-2 -9 -5 -18 -11 -24c-34 36 -111 101 -167 139c-27 18 -50 27 -50 76c8 7 16 12 27 17c77 31 168 90 228 142c7 6 15 12 21 16c7 -6 11 -19 11 -23c-8 -54 -69 -112 -166 -168z" />
    <glyph glyph-name="guillemotright" unicode="&#xbb;" horiz-adv-x="530" 
d="M51 69c-8 5 -12 20 -11 25c12 62 87 130 188 187c-67 50 -116 111 -107 175c1 9 5 18 11 24c34 -36 111 -101 166 -139c27 -18 51 -27 51 -76c-8 -7 -17 -12 -27 -17c-77 -31 -174 -95 -245 -158c-8 -8 -18 -15 -26 -21zM440 281c-67 50 -116 111 -107 175
c2 9 5 18 11 24c34 -36 111 -101 167 -139c27 -18 50 -27 50 -76c-8 -7 -16 -12 -27 -17c-77 -31 -168 -90 -228 -142c-7 -6 -15 -12 -21 -16c-7 6 -11 19 -11 23c8 54 69 112 166 168z" />
    <glyph glyph-name="ellipsis" unicode="&#x2026;" horiz-adv-x="909" 
d="M837 34c-18 -29 -53 -48 -87 -48c-37 0 -59 20 -60 57c0 14 -1 26 -1 36c0 14 1 25 1 32c21 11 44 19 65 21c5 0 11 1 16 1c18 0 34 -7 44 -16c14 -12 22 -40 22 -83zM535 34c-18 -29 -53 -48 -88 -48c-36 0 -59 20 -60 57c0 13 -1 25 -1 35c0 14 1 26 2 33
c21 11 43 19 64 21c6 0 12 1 17 1c17 -1 33 -7 44 -16c14 -11 22 -40 22 -83zM232 34c-18 -29 -53 -48 -88 -48c-36 0 -59 20 -60 57c0 13 -1 25 -1 35c0 14 1 26 2 33c21 11 43 19 64 21c6 0 11 1 16 1c18 -1 34 -7 45 -16c14 -12 22 -40 22 -83z" />
    <glyph glyph-name="Agrave" unicode="&#xc0;" horiz-adv-x="644" 
d="M544 847c0 -12 -27 -20 -43 -17c-121 24 -223 80 -223 120c0 26 58 63 118 54c26 -38 47 -75 87 -108c22 -17 61 -41 61 -49zM124 3c-30 -11 -61 -17 -93 -17c-33 0 -51 12 -51 35c0 14 5 31 16 52c73 133 170 296 265 455c39 66 85 140 130 222c36 27 80 39 125 34
c28 -3 43 -27 45 -71c0 -23 0 -51 1 -83c0 -34 3 -63 3 -88c3 -35 12 -222 14 -255c4 -63 11 -121 21 -167c10 -47 24 -80 47 -101c-36 -25 -79 -37 -124 -33c-35 3 -58 31 -67 98c-9 55 -11 109 -16 164c-15 -12 -31 -14 -46 -14c-55 -2 -109 -3 -162 -3
c-27 -14 -37 -27 -47 -46c-14 -20 -30 -55 -42 -80c-13 -32 -27 -68 -19 -102zM412 316c10 0 17 2 25 3c-1 83 -8 244 -14 322c-46 -85 -109 -200 -175 -325h164z" />
    <glyph glyph-name="Atilde" unicode="&#xc3;" horiz-adv-x="644" 
d="M124 3c-30 -11 -61 -17 -93 -17c-33 0 -51 12 -51 35c0 14 5 31 16 52c73 133 170 296 265 455c39 66 85 140 130 222c36 27 80 39 125 34c28 -3 43 -27 45 -71c0 -23 0 -51 1 -83c0 -34 3 -63 3 -88c3 -35 12 -222 14 -255c4 -63 11 -121 21 -167c10 -47 24 -80 47 -101
c-36 -25 -79 -37 -124 -33c-35 3 -58 31 -67 98c-9 55 -11 109 -16 164c-15 -12 -31 -14 -46 -14c-55 -2 -109 -3 -162 -3c-27 -14 -37 -27 -47 -46c-14 -20 -30 -55 -42 -80c-13 -32 -27 -68 -19 -102zM412 316c10 0 17 2 25 3c-1 83 -8 244 -14 322
c-46 -85 -109 -200 -175 -325h164zM704 972c-5 -36 -19 -67 -42 -91c-21 -24 -47 -37 -77 -37s-68 17 -112 41c-41 23 -73 37 -94 37c-4 0 -8 0 -13 -2c-21 -6 -35 -26 -44 -62c-2 -6 -5 -11 -7 -17c-1 -1 -2 -1 -3 -1c-6 0 -16 4 -21 8c-9 7 -11 10 -11 17c0 9 2 17 3 27
c7 32 20 59 40 81c22 23 46 32 73 32c32 1 70 -17 114 -40c43 -22 75 -36 97 -36c4 0 7 1 11 2c23 6 37 29 45 65c2 5 4 10 5 15c1 1 2 1 3 1c4 0 6 -1 11 -3c17 -8 22 -18 22 -37z" />
    <glyph glyph-name="Otilde" unicode="&#xd5;" 
d="M504 786c147 0 224 -93 224 -256c0 -254 -187 -554 -434 -554c-147 0 -220 92 -220 256c0 261 180 554 430 554zM340 60c155 24 238 325 238 477c0 96 -32 165 -111 165c-124 0 -238 -274 -238 -455c0 -112 30 -199 111 -187zM734 972c-5 -36 -19 -67 -42 -91
c-21 -24 -47 -37 -77 -37s-68 17 -112 41c-41 23 -73 37 -94 37c-4 0 -8 0 -13 -2c-21 -6 -35 -26 -44 -62c-2 -6 -5 -11 -7 -17c-1 -1 -2 -1 -3 -1c-6 0 -16 4 -21 8c-9 7 -11 10 -11 17c0 9 2 17 3 27c7 32 20 59 40 81c22 23 46 32 73 32c32 1 70 -17 114 -40
c43 -22 75 -36 97 -36c4 0 7 1 11 2c23 6 37 29 45 65c2 5 4 10 5 15c1 1 2 1 3 1c4 0 6 -1 11 -3c17 -8 22 -18 22 -37z" />
    <glyph glyph-name="OE" unicode="&#x152;" horiz-adv-x="962" 
d="M624 757c85 10 176 13 261 13c40 0 77 4 105 4c40 0 56 -4 69 -18c-7 -48 -35 -104 -79 -104c-12 0 -31 25 -84 25h-37c-28 0 -54 2 -75 2h-44c9 -10 12 -20 12 -30c0 -5 0 -11 -2 -16c-12 -57 -26 -122 -43 -192h59c64 0 128 7 177 15c0 -8 -1 -15 -3 -24
c-22 -80 -81 -85 -162 -85h-60h-30c-14 -44 -36 -128 -36 -182c0 -81 69 -74 111 -74c101 0 180 43 205 43c0 -125 -100 -141 -249 -141c-47 0 -93 1 -139 1c-56 0 -76 21 -82 55c-60 -45 -130 -73 -204 -73c-147 0 -220 92 -220 256c0 261 179 554 430 554
c47 0 88 -10 120 -29zM340 60c154 24 238 325 238 477c0 96 -32 165 -112 165c-123 0 -238 -274 -238 -455c0 -112 31 -199 112 -187z" />
    <glyph glyph-name="oe" unicode="&#x153;" horiz-adv-x="796" 
d="M787 155c6 -5 10 -13 10 -31c0 -22 -3 -34 -13 -46c-17 -21 -42 -40 -75 -55c-50 -22 -102 -33 -158 -33c-71 0 -120 23 -149 65c-46 -40 -108 -65 -173 -65c-57 0 -102 18 -134 52s-48 79 -48 134c0 94 34 182 96 256s140 114 228 114c64 0 113 -27 143 -77
c57 51 123 78 191 78c81 0 119 -36 119 -104c-1 -68 -86 -156 -216 -203c-31 -12 -94 -41 -95 -67c-2 -67 25 -105 85 -105c56 0 117 26 189 87zM530 286c0 0 -4 -17 -10 -45c17 37 46 50 81 70c63 36 80 69 90 103c9 35 -3 66 -37 66c-52 0 -96 -70 -124 -194zM396 332
c2 16 3 31 3 45c0 57 -16 95 -57 95c-42 0 -80 -41 -108 -109c-25 -61 -39 -128 -39 -190c0 -69 18 -109 65 -109c42 0 76 39 101 105c20 54 31 108 35 163z" />
    <glyph glyph-name="endash" unicode="&#x2013;" horiz-adv-x="500" 
d="M489 350c-9 -62 -22 -85 -54 -97c-35 -7 -78 -10 -125 -10h-96c-59 0 -106 -4 -135 -12c4 19 9 50 16 73c7 20 18 28 37 34c12 1 27 2 44 2c42 0 97 -3 158 -3c69 0 126 4 155 13z" />
    <glyph glyph-name="emdash" unicode="&#x2014;" horiz-adv-x="917" 
d="M150 331c34 6 80 9 134 9c88 0 195 -6 298 -8c166 0 292 6 326 17c-9 -56 -16 -77 -37 -89c-32 -11 -113 -17 -225 -17c-43 0 -168 2 -248 2c-162 0 -287 -5 -319 -15c11 61 50 92 71 101z" />
    <glyph glyph-name="quotedblleft" unicode="&#x201c;" horiz-adv-x="492" 
d="M577 768c10 0 36 -9 36 -31c0 -5 -2 -9 -4 -13c-80 -14 -114 -51 -114 -111c0 -22 12 -46 23 -62c-20 -19 -68 -35 -98 -35c-32 0 -59 10 -59 52c0 43 24 86 69 127c37 33 99 73 147 73zM398 724c-81 -14 -115 -51 -115 -111c0 -22 12 -46 24 -62
c-20 -19 -69 -35 -99 -35c-31 0 -59 10 -59 52c0 43 24 86 70 127c37 33 98 73 147 73c9 0 36 -9 36 -31c0 -5 -2 -9 -4 -13z" />
    <glyph glyph-name="quotedblright" unicode="&#x201d;" horiz-adv-x="492" 
d="M136 516c-10 0 -36 9 -36 31c0 5 2 9 4 13c80 14 114 51 114 111c0 22 -12 46 -23 62c20 19 68 35 98 35c32 0 59 -10 59 -52c0 -43 -24 -86 -69 -127c-37 -33 -99 -73 -147 -73zM315 560c81 14 115 51 115 111c0 22 -12 46 -24 62c20 19 69 35 99 35c31 0 59 -10 59 -52
c0 -43 -24 -86 -70 -127c-37 -33 -98 -73 -147 -73c-9 0 -36 9 -36 31c0 5 2 9 4 13z" />
    <glyph glyph-name="quoteleft" unicode="&#x2018;" horiz-adv-x="278" 
d="M365 768c10 0 36 -9 36 -31c0 -5 -2 -9 -4 -13c-80 -14 -114 -51 -114 -111c0 -22 12 -46 23 -62c-20 -19 -68 -35 -98 -35c-32 0 -59 10 -59 52c0 43 24 86 69 127c37 33 99 73 147 73z" />
    <glyph glyph-name="quoteright" unicode="&#x2019;" horiz-adv-x="278" 
d="M134 516c-10 0 -36 9 -36 31c0 5 2 9 4 13c80 14 114 51 114 111c0 22 -12 46 -23 62c20 19 68 35 98 35c32 0 59 -10 59 -52c0 -43 -24 -86 -69 -127c-37 -33 -99 -73 -147 -73z" />
    <glyph glyph-name="divide" unicode="&#xf7;" horiz-adv-x="541" 
d="M425 495c-2 -15 -8 -36 -17 -65c-24 -13 -48 -22 -70 -22c-41 0 -62 12 -63 40c0 11 6 43 6 54c0 5 -1 12 -4 19c24 21 53 35 84 35c41 0 65 -22 65 -53c0 -3 -1 -5 -1 -8zM534 348c-20 -70 -35 -92 -68 -100c-48 -7 -106 -11 -175 -11h-93c-43 0 -84 -4 -123 -13
c20 115 53 106 147 109h166c54 1 102 7 146 15zM341 104c-2 -18 -8 -39 -17 -65c-24 -14 -49 -21 -71 -23c-39 0 -63 12 -63 41c0 13 6 43 6 54c0 5 -1 12 -3 19c24 21 52 35 84 35c40 0 65 -21 65 -53c0 -3 -1 -5 -1 -8z" />
    <glyph glyph-name="ydieresis" unicode="&#xff;" horiz-adv-x="510" 
d="M385 672c0 -35 26 -46 52 -46c25 0 53 8 80 24c11 28 17 50 17 66c0 33 -24 51 -62 51c-23 0 -49 -8 -75 -21c0 -18 -12 -35 -12 -74zM169 672c0 -35 26 -46 52 -46c25 0 53 8 80 24c11 28 17 50 17 66c0 33 -24 51 -62 51c-23 0 -49 -8 -75 -21c0 -18 -12 -35 -12 -74z
M-76 -163c-1 3 -1 7 -1 11c0 19 8 44 18 65c9 -8 34 -16 50 -16c62 0 123 51 169 117c7 10 9 27 9 46c0 17 -2 35 -4 50c-28 227 -63 368 -99 396c40 24 78 37 113 37c37 0 62 -26 70 -82c15 -102 28 -226 35 -325c99 140 169 275 169 347c0 18 -11 51 -23 64
c12 2 29 3 37 3c73 0 105 -22 105 -68c0 -63 -104 -238 -263 -447c-147 -195 -235 -246 -309 -246c-43 0 -70 16 -76 48z" />
    <glyph glyph-name="Ydieresis" unicode="&#x178;" horiz-adv-x="617" 
d="M492 881c0 -35 26 -46 52 -46c25 0 53 8 80 24c11 28 17 50 17 66c0 33 -24 51 -62 51c-23 0 -49 -8 -75 -21c0 -18 -12 -35 -12 -74zM276 881c0 -35 26 -46 52 -46c25 0 53 8 80 24c11 28 17 50 17 66c0 33 -24 51 -62 51c-23 0 -49 -8 -75 -21c0 -18 -12 -35 -12 -74z
M463 378c65 85 239 266 239 368c0 39 -36 65 -107 65c-10 0 -19 0 -29 -2c2 -11 3 -23 3 -34c0 -21 -3 -42 -12 -61c-28 -61 -39 -75 -167 -282c-24 116 -49 226 -78 293c-17 41 -46 60 -84 60c-43 0 -87 -21 -131 -63c8 -3 15 -8 25 -12c53 -24 119 -185 152 -391
c-13 -102 -102 -212 -102 -289c0 -32 25 -46 63 -46s77 11 105 25c-6 16 -11 38 -11 54c0 67 65 222 134 315z" />
    <glyph glyph-name="guilsinglleft" unicode="&#x2039;" horiz-adv-x="325" 
d="M160 267c67 -50 116 -111 107 -175c-2 -9 -5 -18 -11 -24c-34 36 -111 101 -167 139c-27 18 -50 27 -50 76c8 7 16 12 27 17c77 31 168 90 228 142c7 6 15 12 21 16c7 -6 11 -19 11 -23c-8 -54 -69 -112 -166 -168z" />
    <glyph glyph-name="guilsinglright" unicode="&#x203a;" horiz-adv-x="325" 
d="M206 259c-67 50 -116 111 -107 175c2 9 5 18 11 24c34 -36 111 -101 167 -139c27 -18 50 -27 50 -76c-8 -7 -16 -12 -27 -17c-77 -31 -168 -90 -228 -142c-7 -6 -15 -12 -21 -16c-7 6 -11 19 -11 23c8 54 69 112 166 168z" />
    <glyph glyph-name="daggerdbl" unicode="&#x2021;" horiz-adv-x="403" 
d="M482 547c-6 -76 -24 -102 -69 -103c-11 0 -26 2 -43 4c-21 2 -37 4 -49 6c-18 -74 -35 -148 -52 -222c50 0 109 6 144 17c-13 -77 -34 -113 -76 -113c-17 0 -41 4 -88 9c-13 -58 -25 -127 -25 -180c0 -17 2 -33 6 -47c-29 -9 -56 -12 -79 -12c-37 0 -54 14 -54 43
c0 11 1 18 3 30c3 19 9 41 16 65c11 34 21 69 30 103c-66 0 -107 -7 -139 -20c0 14 1 25 2 34c5 60 24 83 65 83h7c10 0 22 -1 37 -3c19 -2 36 -4 48 -6c18 74 35 148 52 222c-53 -1 -112 -7 -144 -18c13 77 34 113 76 113c18 0 42 -4 88 -8c13 56 24 121 26 170
c0 22 -2 41 -7 57c29 9 54 13 77 13c41 0 57 -15 57 -49c-3 -22 -9 -55 -19 -90c-14 -48 -25 -83 -30 -104c66 1 108 8 139 20c0 -6 1 -11 1 -14z" />
    <glyph glyph-name="periodcentered" unicode="&#xb7;" horiz-adv-x="304" 
d="M270 302c0 -20 -7 -45 -18 -73c-26 -14 -55 -22 -80 -22c-34 0 -53 15 -56 40v15c5 28 11 50 11 63c0 4 0 8 -1 12c27 14 53 22 78 22c42 0 66 -21 66 -57z" />
    <glyph glyph-name="quotesinglbase" unicode="&#x201a;" horiz-adv-x="278" 
d="M18 -96c-10 0 -36 9 -36 31c0 5 2 9 4 13c80 14 114 51 114 111c0 22 -12 46 -23 62c20 19 68 35 98 35c32 0 59 -10 59 -52c0 -43 -24 -86 -69 -127c-37 -33 -99 -73 -147 -73z" />
    <glyph glyph-name="quotedblbase" unicode="&#x201e;" horiz-adv-x="492" 
d="M21 -96c-10 0 -36 9 -36 31c0 5 2 9 4 13c80 14 114 51 114 111c0 22 -12 46 -23 62c20 19 68 35 98 35c32 0 59 -10 59 -52c0 -43 -24 -86 -69 -127c-37 -33 -99 -73 -147 -73zM200 -52c81 14 115 51 115 111c0 22 -12 46 -24 62c20 19 69 35 99 35c31 0 59 -10 59 -52
c0 -43 -24 -86 -70 -127c-37 -33 -98 -73 -147 -73c-9 0 -36 9 -36 31c0 5 2 9 4 13z" />
    <glyph glyph-name="perthousand" unicode="&#x2030;" horiz-adv-x="1237" 
d="M713 417c81 0 118 -52 118 -145c0 -144 -98 -280 -241 -280c-90 0 -130 45 -130 127c0 148 110 298 253 298zM621 65c71 0 109 117 109 187c0 37 -10 90 -50 90c-68 0 -117 -123 -117 -202c0 -40 16 -75 58 -75zM1104 417c81 0 118 -52 118 -145
c0 -144 -98 -280 -241 -280c-90 0 -130 45 -130 127c0 148 110 298 253 298zM1012 65c71 0 109 117 109 187c0 37 -10 90 -50 90c-68 0 -117 -123 -117 -202c0 -40 16 -75 58 -75zM811 762c-104 -125 -203 -253 -298 -385c-91 -126 -194 -260 -254 -392c-57 6 -79 18 -79 40
c6 50 63 120 130 209c37 49 321 424 336 446c-47 -24 -87 -40 -133 -40c-14 0 -26 1 -38 5c1 -8 1 -12 1 -14c0 -133 -98 -276 -235 -276c-91 0 -130 55 -130 143c0 77 51 231 136 231c18 0 38 -1 51 -30c-57 -35 -85 -121 -85 -191c0 -48 15 -78 55 -78
c71 0 109 121 109 199c0 15 0 30 -2 44c-26 14 -40 28 -40 45c0 25 15 52 47 81c34 -42 80 -68 147 -68c44 0 111 9 177 44c24 13 42 19 52 19c19 0 38 -10 53 -32z" />
    <glyph glyph-name="Acircumflex" unicode="&#xc2;" horiz-adv-x="644" 
d="M124 3c-30 -11 -61 -17 -93 -17c-33 0 -51 12 -51 35c0 14 5 31 16 52c73 133 170 296 265 455c39 66 85 140 130 222c36 27 80 39 125 34c28 -3 43 -27 45 -71c0 -23 0 -51 1 -83c0 -34 3 -63 3 -88c3 -35 12 -222 14 -255c4 -63 11 -121 21 -167c10 -47 24 -80 47 -101
c-36 -25 -79 -37 -124 -33c-35 3 -58 31 -67 98c-9 55 -11 109 -16 164c-15 -12 -31 -14 -46 -14c-55 -2 -109 -3 -162 -3c-27 -14 -37 -27 -47 -46c-14 -20 -30 -55 -42 -80c-13 -32 -27 -68 -19 -102zM412 316c10 0 17 2 25 3c-1 83 -8 244 -14 322
c-46 -85 -109 -200 -175 -325h164z" />
    <glyph glyph-name="Ecircumflex" unicode="&#xca;" horiz-adv-x="577" 
d="M208 758c84 8 169 12 254 12c40 0 77 4 105 4c40 0 56 -4 69 -18c-7 -48 -35 -104 -79 -104c-12 0 -31 25 -84 25h-37c-28 0 -54 2 -75 2h-44c9 -10 12 -20 12 -30c0 -5 0 -11 -2 -16c-12 -57 -26 -122 -43 -192h59c64 0 128 7 177 15c0 -8 -1 -15 -3 -24
c-22 -80 -81 -85 -162 -85h-60h-30c-14 -44 -36 -128 -36 -182c0 -81 69 -74 111 -74c101 0 180 43 205 43c0 -125 -100 -141 -249 -141c-47 0 -93 1 -139 1c-74 0 -85 36 -85 90c0 39 11 93 22 137c50 190 91 334 91 418c0 15 1 33 -5 31c-13 -3 -26 -3 -32 -3
c-3 1 -4 6 -3 17c0 9 2 19 6 28c18 36 27 43 57 46z" />
    <glyph glyph-name="Aacute" unicode="&#xc1;" horiz-adv-x="644" 
d="M124 3c-30 -11 -61 -17 -93 -17c-33 0 -51 12 -51 35c0 14 5 31 16 52c73 133 170 296 265 455c39 66 85 140 130 222c36 27 80 39 125 34c28 -3 43 -27 45 -71c0 -23 0 -51 1 -83c0 -34 3 -63 3 -88c3 -35 12 -222 14 -255c4 -63 11 -121 21 -167c10 -47 24 -80 47 -101
c-36 -25 -79 -37 -124 -33c-35 3 -58 31 -67 98c-9 55 -11 109 -16 164c-15 -12 -31 -14 -46 -14c-55 -2 -109 -3 -162 -3c-27 -14 -37 -27 -47 -46c-14 -20 -30 -55 -42 -80c-13 -32 -27 -68 -19 -102zM412 316c10 0 17 2 25 3c-1 83 -8 244 -14 322
c-46 -85 -109 -200 -175 -325h164zM399 846c0 -12 26 -20 42 -17c62 11 129 36 170 59c40 19 62 42 62 61c0 30 -37 51 -113 51c-40 -53 -81 -97 -154 -144c-5 -3 -7 -6 -7 -10z" />
    <glyph glyph-name="Edieresis" unicode="&#xcb;" horiz-adv-x="577" 
d="M474 881c0 -35 26 -46 52 -46c25 0 53 8 80 24c11 28 17 50 17 66c0 33 -24 51 -62 51c-23 0 -49 -8 -75 -21c0 -18 -12 -35 -12 -74zM258 881c0 -35 26 -46 52 -46c25 0 53 8 80 24c11 28 17 50 17 66c0 33 -24 51 -62 51c-23 0 -49 -8 -75 -21c0 -18 -12 -35 -12 -74z
M208 758c84 8 169 12 254 12c40 0 77 4 105 4c40 0 56 -4 69 -18c-7 -48 -35 -104 -79 -104c-12 0 -31 25 -84 25h-37c-28 0 -54 2 -75 2h-44c9 -10 12 -20 12 -30c0 -5 0 -11 -2 -16c-12 -57 -26 -122 -43 -192h59c64 0 128 7 177 15c0 -8 -1 -15 -3 -24
c-22 -80 -81 -85 -162 -85h-60h-30c-14 -44 -36 -128 -36 -182c0 -81 69 -74 111 -74c101 0 180 43 205 43c0 -125 -100 -141 -249 -141c-47 0 -93 1 -139 1c-74 0 -85 36 -85 90c0 39 11 93 22 137c50 190 91 334 91 418c0 15 1 33 -5 31c-13 -3 -26 -3 -32 -3
c-3 1 -4 6 -3 17c0 9 2 19 6 28c18 36 27 43 57 46z" />
    <glyph glyph-name="Egrave" unicode="&#xc8;" horiz-adv-x="577" 
d="M208 758c84 8 169 12 254 12c40 0 77 4 105 4c40 0 56 -4 69 -18c-7 -48 -35 -104 -79 -104c-12 0 -31 25 -84 25h-37c-28 0 -54 2 -75 2h-44c9 -10 12 -20 12 -30c0 -5 0 -11 -2 -16c-12 -57 -26 -122 -43 -192h59c64 0 128 7 177 15c0 -8 -1 -15 -3 -24
c-22 -80 -81 -85 -162 -85h-60h-30c-14 -44 -36 -128 -36 -182c0 -81 69 -74 111 -74c101 0 180 43 205 43c0 -125 -100 -141 -249 -141c-47 0 -93 1 -139 1c-74 0 -85 36 -85 90c0 39 11 93 22 137c50 190 91 334 91 418c0 15 1 33 -5 31c-13 -3 -26 -3 -32 -3
c-3 1 -4 6 -3 17c0 9 2 19 6 28c18 36 27 43 57 46zM475 847c0 -12 -27 -20 -43 -17c-121 24 -223 80 -223 120c0 26 58 63 118 54c26 -38 47 -75 87 -108c22 -17 61 -41 61 -49z" />
    <glyph glyph-name="Iacute" unicode="&#xcd;" horiz-adv-x="377" 
d="M249 846c0 -12 26 -20 42 -17c62 11 129 36 170 59c40 19 62 42 62 61c0 30 -37 51 -113 51c-40 -53 -81 -97 -154 -144c-5 -3 -7 -6 -7 -10zM117 145c29 116 66 273 91 390c10 46 16 86 18 121c1 21 4 46 -23 57c-5 1 -8 5 -10 10c-3 10 -3 10 3 14c41 24 92 38 127 38
c19 0 41 -5 53 -20c13 -15 13 -39 10 -57c-39 -166 -81 -331 -114 -498c-8 -40 -15 -76 -15 -103c0 -26 8 -51 23 -73c0 -22 -94 -39 -121 -39c-44 0 -57 24 -57 64c0 26 7 63 15 96z" />
    <glyph glyph-name="Icircumflex" unicode="&#xce;" horiz-adv-x="377" 
d="M506 847c-18 -22 -46 -22 -50 -22c-22 0 -70 33 -112 79c-62 -47 -130 -79 -160 -79c-13 0 -29 3 -29 15c0 0 43 37 79 68c63 55 118 93 148 93c9 0 18 -2 24 -6c15 -42 59 -109 100 -148zM117 145c29 116 66 273 91 390c10 46 16 86 18 121c1 21 4 46 -23 57
c-5 1 -8 5 -10 10c-3 10 -3 10 3 14c41 24 92 38 127 38c19 0 41 -5 53 -20c13 -15 13 -39 10 -57c-39 -166 -81 -331 -114 -498c-8 -40 -15 -76 -15 -103c0 -26 8 -51 23 -73c0 -22 -94 -39 -121 -39c-44 0 -57 24 -57 64c0 26 7 63 15 96z" />
    <glyph glyph-name="Idieresis" unicode="&#xcf;" horiz-adv-x="377" 
d="M380 881c0 -35 26 -46 52 -46c25 0 53 8 80 24c11 28 17 50 17 66c0 33 -24 51 -62 51c-23 0 -49 -8 -75 -21c0 -18 -12 -35 -12 -74zM164 881c0 -35 26 -46 52 -46c25 0 53 8 80 24c11 28 17 50 17 66c0 33 -24 51 -62 51c-23 0 -49 -8 -75 -21c0 -18 -12 -35 -12 -74z
M117 145c29 116 66 273 91 390c10 46 16 86 18 121c1 21 4 46 -23 57c-5 1 -8 5 -10 10c-3 10 -3 10 3 14c41 24 92 38 127 38c19 0 41 -5 53 -20c13 -15 13 -39 10 -57c-39 -166 -81 -331 -114 -498c-8 -40 -15 -76 -15 -103c0 -26 8 -51 23 -73c0 -22 -94 -39 -121 -39
c-44 0 -57 24 -57 64c0 26 7 63 15 96z" />
    <glyph glyph-name="Igrave" unicode="&#xcc;" horiz-adv-x="377" 
d="M117 145c29 116 66 273 91 390c10 46 16 86 18 121c1 21 4 46 -23 57c-5 1 -8 5 -10 10c-3 10 -3 10 3 14c41 24 92 38 127 38c19 0 41 -5 53 -20c13 -15 13 -39 10 -57c-39 -166 -81 -331 -114 -498c-8 -40 -15 -76 -15 -103c0 -26 8 -51 23 -73c0 -22 -94 -39 -121 -39
c-44 0 -57 24 -57 64c0 26 7 63 15 96zM411 847c0 -12 -27 -20 -43 -17c-121 24 -223 80 -223 120c0 26 58 63 118 54c26 -38 47 -75 87 -108c22 -17 61 -41 61 -49z" />
    <glyph glyph-name="Oacute" unicode="&#xd3;" 
d="M447 846c0 -12 26 -20 42 -17c62 11 129 36 170 59c40 19 62 42 62 61c0 30 -37 51 -113 51c-40 -53 -81 -97 -154 -144c-5 -3 -7 -6 -7 -10zM504 786c147 0 224 -93 224 -256c0 -254 -187 -554 -434 -554c-147 0 -220 92 -220 256c0 261 180 554 430 554zM340 60
c155 24 238 325 238 477c0 96 -32 165 -111 165c-124 0 -238 -274 -238 -455c0 -112 30 -199 111 -187z" />
    <glyph glyph-name="Ocircumflex" unicode="&#xd4;" 
d="M504 786c147 0 224 -93 224 -256c0 -254 -187 -554 -434 -554c-147 0 -220 92 -220 256c0 261 180 554 430 554zM340 60c155 24 238 325 238 477c0 96 -32 165 -111 165c-124 0 -238 -274 -238 -455c0 -112 30 -199 111 -187z" />
    <glyph glyph-name="Ograve" unicode="&#xd2;" 
d="M504 786c147 0 224 -93 224 -256c0 -254 -187 -554 -434 -554c-147 0 -220 92 -220 256c0 261 180 554 430 554zM340 60c155 24 238 325 238 477c0 96 -32 165 -111 165c-124 0 -238 -274 -238 -455c0 -112 30 -199 111 -187zM594 847c0 -12 -27 -20 -43 -17
c-121 24 -223 80 -223 120c0 26 58 63 118 54c26 -38 47 -75 87 -108c22 -17 61 -41 61 -49z" />
    <glyph glyph-name="Uacute" unicode="&#xda;" horiz-adv-x="703" 
d="M413 846c0 -12 26 -20 42 -17c62 11 129 36 170 59c40 19 62 42 62 61c0 30 -37 51 -113 51c-40 -53 -81 -97 -154 -144c-5 -3 -7 -6 -7 -10zM551 -20c-55 6 -60 55 -60 101v35c0 2 0 3 -1 2c-70 -80 -140 -141 -242 -141c-122 0 -161 90 -161 182c0 16 1 32 3 47
c15 111 92 392 96 472c0 39 -15 49 -24 66c30 26 96 34 126 34c35 0 53 -14 55 -45c0 -80 -62 -291 -91 -427c-11 -51 -20 -97 -20 -133c0 -58 24 -92 72 -92c42 0 93 28 142 86c28 38 47 96 64 159c33 120 76 299 88 386c1 9 -1 12 -2 20c-6 41 44 46 85 46
c66 0 80 -8 80 -37c-1 -21 -12 -44 -21 -75c-52 -174 -108 -385 -108 -507c0 -17 1 -32 3 -45c8 -48 16 -80 40 -101c-36 -25 -80 -37 -124 -33z" />
    <glyph glyph-name="Ucircumflex" unicode="&#xdb;" horiz-adv-x="703" 
d="M551 -20c-55 6 -60 55 -60 101v35c0 2 0 3 -1 2c-70 -80 -140 -141 -242 -141c-122 0 -161 90 -161 182c0 16 1 32 3 47c15 111 92 392 96 472c0 39 -15 49 -24 66c30 26 96 34 126 34c35 0 53 -14 55 -45c0 -80 -62 -291 -91 -427c-11 -51 -20 -97 -20 -133
c0 -58 24 -92 72 -92c42 0 93 28 142 86c28 38 47 96 64 159c33 120 76 299 88 386c1 9 -1 12 -2 20c-6 41 44 46 85 46c66 0 80 -8 80 -37c-1 -21 -12 -44 -21 -75c-52 -174 -108 -385 -108 -507c0 -17 1 -32 3 -45c8 -48 16 -80 40 -101c-36 -25 -80 -37 -124 -33z" />
    <glyph glyph-name="Ugrave" unicode="&#xd9;" horiz-adv-x="703" 
d="M557 847c0 -12 -27 -20 -43 -17c-121 24 -223 80 -223 120c0 26 58 63 118 54c26 -38 47 -75 87 -108c22 -17 61 -41 61 -49zM551 -20c-55 6 -60 55 -60 101v35c0 2 0 3 -1 2c-70 -80 -140 -141 -242 -141c-122 0 -161 90 -161 182c0 16 1 32 3 47c15 111 92 392 96 472
c0 39 -15 49 -24 66c30 26 96 34 126 34c35 0 53 -14 55 -45c0 -80 -62 -291 -91 -427c-11 -51 -20 -97 -20 -133c0 -58 24 -92 72 -92c42 0 93 28 142 86c28 38 47 96 64 159c33 120 76 299 88 386c1 9 -1 12 -2 20c-6 41 44 46 85 46c66 0 80 -8 80 -37
c-1 -21 -12 -44 -21 -75c-52 -174 -108 -385 -108 -507c0 -17 1 -32 3 -45c8 -48 16 -80 40 -101c-36 -25 -80 -37 -124 -33z" />
    <glyph glyph-name="circumflex" unicode="&#x2c6;" horiz-adv-x="500" 
d="M508 636c-14 -5 -25 -11 -38 -16c-9 -7 -9 -6 -15 -6c-22 0 -71 37 -109 79c-62 -47 -117 -78 -147 -78c-12 0 -24 2 -41 10c0 1 -1 2 -1 4c0 5 5 9 11 13c18 12 42 32 68 55c53 46 99 79 131 90c5 2 11 3 17 3c9 0 18 -2 24 -6c15 -42 59 -109 100 -148z" />
    <glyph glyph-name="tilde" unicode="&#x2dc;" horiz-adv-x="500" 
d="M555 752c-5 -36 -19 -67 -42 -91c-21 -24 -47 -37 -77 -37s-68 17 -112 41c-41 23 -73 37 -94 37c-4 0 -8 0 -13 -2c-21 -6 -35 -26 -44 -62c-2 -6 -5 -11 -7 -17c-1 -1 -2 -1 -3 -1c-6 0 -16 4 -21 8c-9 7 -11 10 -11 17c0 9 2 17 3 27c7 32 20 59 40 81
c22 23 46 32 73 32c32 1 70 -17 114 -40c43 -22 75 -36 97 -36c4 0 7 1 11 2c23 6 37 29 45 65c2 5 4 10 5 15c1 1 2 1 3 1c4 0 6 -1 11 -3c17 -8 22 -18 22 -37z" />
    <glyph glyph-name="macron" unicode="&#xaf;" horiz-adv-x="500" 
d="M510 724c-1 -59 -19 -82 -57 -90c-19 -2 -37 -3 -55 -3c-28 0 -57 1 -81 2c-59 2 -98 8 -122 11c-1 6 -1 12 -1 18v7c1 17 4 33 14 51c8 0 18 0 30 -1c27 0 57 -1 90 -2c27 -1 56 -3 82 -3c39 0 72 2 100 10z" />
    <glyph glyph-name="cedilla" unicode="&#xb8;" horiz-adv-x="500" 
d="M296 -95c0 -49 -58 -90 -160 -90c-32 0 -63 2 -63 27c0 12 3 17 6 24c8 -2 30 -6 45 -6c44 0 83 12 83 31c0 27 -19 29 -52 37c-3 15 2 31 12 42c10 12 25 19 40 19c5 0 9 0 11 -1c-3 -6 -9 -19 -9 -24c51 -9 87 -26 87 -59z" />
    <glyph glyph-name="Euro" unicode="&#x20ac;" horiz-adv-x="664" 
d="M127 240c-35 -1 -66 -4 -82 -9c10 62 22 71 65 71h19c3 32 9 64 17 94c-40 -1 -73 -4 -92 -9c11 68 24 79 72 79c10 0 26 0 42 -1c71 181 227 322 412 322c95 0 170 -31 170 -102c0 -45 -37 -79 -94 -104c-19 83 -54 123 -128 123c-105 0 -175 -114 -212 -242
c72 0 208 1 235 10c-16 -56 -30 -70 -59 -72c-26 -2 -135 -4 -192 -4c-6 -33 -10 -66 -12 -97c66 0 181 1 204 9c-14 -51 -27 -63 -53 -65c-21 -1 -98 -3 -151 -3c6 -102 51 -163 142 -163c68 0 151 43 216 105c8 -22 14 -39 14 -53c0 -74 -156 -151 -297 -151
c-162 0 -236 98 -236 262z" />
    <glyph glyph-name="Eth" unicode="&#xd0;" 
d="M424 785c185 0 300 -81 300 -271c0 -284 -221 -529 -462 -529c-70 0 -139 23 -195 65c-1 10 1 20 5 39c19 85 41 175 62 260h-33c-22 0 -41 -2 -51 -5c11 49 22 83 67 83l35 -1c15 66 29 126 37 174c2 10 3 17 3 24c0 30 -30 21 -30 42c0 27 8 54 23 76
c64 24 153 43 239 43zM320 76c144 0 254 210 254 411c0 130 -59 209 -169 209c-16 0 -51 -4 -78 -10c5 -15 7 -30 7 -46c0 -37 -17 -120 -38 -214h29c39 0 81 2 118 9c-14 -91 -45 -86 -144 -86h-21c-18 -79 -37 -159 -50 -219c9 -39 34 -54 92 -54z" />
  </font>
</defs>
</svg>
